<?xml version="1.0" encoding="utf-8"?>
<!-- Generator: Adobe Illustrator 25.0.1, SVG Export Plug-In . SVG Version: 6.00 Build 0)  -->
<svg version="1.1" id="Isolation_Mode" xmlns="http://www.w3.org/2000/svg" xmlns:xlink="http://www.w3.org/1999/xlink" x="0px"
	 y="0px" viewBox="0 0 17 28" style="enable-background:new 0 0 17 28;" xml:space="preserve">
<g>
	<g>
		<path d="M3.1,27.4c1.7-0.7,3.2-1.7,4.7-2.7c3.6-2.5,6.6-5.7,9-9.2c0.3-0.4,0.1-1.1,0-1.4c-0.3-0.8-0.9-1.4-1.6-2
			c-0.2-0.1-0.4-0.3,0.4,0.3c-0.1-0.1-0.2-0.1-0.3-0.2c-0.3-0.2-0.6-0.5-0.9-0.7c-1-0.8-2-1.6-3-2.5C10.2,7.9,9,6.7,7.8,5.5
			C7.7,5.4,7.6,5.3,7.5,5.2C6.9,4.6,7.8,5.6,7.3,5C7,4.6,6.6,4.3,6.3,3.9C5.7,3.2,5.2,2.5,4.6,1.7C4.1,1,2.8,0,1.9,0.7
			C1,1.5,1.8,2.9,2.3,3.6c3.3,4.7,7.9,8.7,12.5,12.1c-0.5-1.1-1.1-2.3-1.6-3.4c-2.3,3.3-5.2,6.2-8.5,8.6c-1,0.7-2,1.3-3.1,1.9
			c-0.2,0.1-0.3,0.2-0.5,0.2c0.5-0.3,0,0-0.1,0c-0.1,0-0.2,0.1-0.3,0.1c-1.1,0.4-0.8,1.7-0.3,2.5C0.8,26.4,2.1,27.8,3.1,27.4
			L3.1,27.4z"/>
	</g>
</g>
</svg>
