<?xml version="1.0" encoding="utf-8"?>
<!-- Generator: Adobe Illustrator 25.0.1, SVG Export Plug-In . SVG Version: 6.00 Build 0)  -->
<svg version="1.1" id="레이어_1" xmlns="http://www.w3.org/2000/svg" xmlns:xlink="http://www.w3.org/1999/xlink" x="0px"
	 y="0px" viewBox="0 0 30 18" style="enable-background:new 0 0 30 18;" xml:space="preserve">
<g>
	<g>
		<path d="M2.2,8.4c2.6,0.7,5.4,1.1,8.1,1.4c5.5,0.5,11.3,0.4,16.6-1.4c0.8-0.3,0.6-1.1,0.2-1.6c-0.5-0.6-1.5-1.1-2.3-0.9
			c-2.5,0.8-5.2,1.3-7.8,1.5c-1.3,0.1-2.7,0.1-4,0.1c-0.6,0-1.3,0-1.9-0.1c-0.6,0-1.2-0.1-1.6-0.1C6.9,7,4.2,6.6,1.6,5.9
			C1,5.8,0.1,6.1,0.3,6.9C0.5,7.7,1.4,8.2,2.2,8.4L2.2,8.4z"/>
	</g>
	<g>
		<path d="M23.7,17.8c0.9-0.9,1.7-1.9,2.4-3c1.7-2.6,2.9-5.5,3.6-8.4c0.1-0.3-0.2-0.7-0.4-1c-0.4-0.5-0.9-0.7-1.5-0.9
			c-0.1,0-0.3-0.1,0.3,0.1c-0.1,0-0.2,0-0.2-0.1c-0.3-0.1-0.5-0.2-0.8-0.2c-0.9-0.3-1.7-0.6-2.6-0.9c-1.1-0.4-2.2-0.9-3.3-1.3
			C21,2,20.9,2,20.8,1.9c-0.5-0.2,0.3,0.2-0.2-0.1c-0.3-0.1-0.6-0.3-0.9-0.5c-0.6-0.3-1.1-0.6-1.7-1c-0.5-0.3-1.7-0.6-2.1,0
			c-0.4,0.7,0.5,1.5,1,1.8c3.4,2.3,7.5,3.7,11.4,4.8c-0.6-0.6-1.3-1.2-1.9-1.8c-0.7,2.8-1.8,5.5-3.4,7.9c-0.5,0.7-1,1.4-1.5,2
			c-0.1,0.1-0.2,0.2-0.3,0.3c0.3-0.3,0,0-0.1,0.1c-0.1,0.1-0.1,0.1-0.2,0.2c-0.6,0.6-0.1,1.3,0.4,1.7C21.9,17.7,23.1,18.3,23.7,17.8
			L23.7,17.8z"/>
	</g>
</g>
</svg>
