<?xml version="1.0" encoding="utf-8"?>
<!-- Generator: Adobe Illustrator 25.0.1, SVG Export Plug-In . SVG Version: 6.00 Build 0)  -->
<svg version="1.1" id="레이어_1" xmlns="http://www.w3.org/2000/svg" xmlns:xlink="http://www.w3.org/1999/xlink" x="0px"
	 y="0px" viewBox="0 0 270 37" style="enable-background:new 0 0 270 37;" xml:space="preserve">
<style type="text/css">
	.st0{fill:#221E1F;}
	.st1{fill:#D71049;}
	.st2{fill:#55C4CF;}
	.st3{fill:#F48245;}
	.st4{fill:#3B8376;}
	.st5{fill:#A5CD38;}
	.st6{fill:#FFFFFF;}
</style>
<g>
	<g>
		<polygon class="st0" points="37.4,19.2 37.4,20.1 34.8,20.1 34.8,4.9 37.4,4.9 37.4,5.8 35.8,5.8 35.8,19.2 		"/>
		<path class="st0" d="M42,11.3c0.1-0.3,0.1-0.7,0.1-0.9c0-0.4,0-0.7,0-0.9v-2h-1.7v1.8c0,1.2-0.3,2.1-0.8,2.8
			c-0.5,0.7-1.3,1.4-2.6,2.2l0.9,1.2c0.7-0.3,1.2-0.7,1.7-0.9c0.5-0.4,1.1-0.9,1.6-1.7l3.3,2.8l1.1-1.4L42,11.3L42,11.3z M52.9,10.8
			h-2.4c-0.5,0-0.8-0.1-1.1-0.4c-0.1-0.1-0.3-0.5-0.3-0.9V6.2h-1.6V18h1.6v-4.3c0-0.4,0.1-0.8,0.4-1.1c0.1-0.3,0.5-0.4,1.1-0.4H53
			v-1.4H52.9z"/>
		<polygon class="st0" points="53.2,19.2 54.7,19.2 54.7,5.8 53.2,5.8 53.2,4.9 55.9,4.9 55.9,20.1 53.2,20.1 		"/>
		<g>
			<path class="st0" d="M257.9,22.9v-8.7c0.7,0,1.3-0.3,1.8-0.8c0.5-0.5,0.8-1.2,0.8-2c0-0.7-0.3-1.3-0.8-1.8s-1.2-0.7-1.8-0.7V6.8
				c1.3,0,2.5,0.5,3.4,1.4c1.1,0.9,1.4,2.1,1.4,3.4c0,1.2-0.4,2.2-1.1,3.2c-0.7,0.9-1.7,1.6-2.8,1.7v2.2c0,0.7,0.1,1.2,0.5,1.4
				c0.4,0.4,0.9,0.5,1.6,0.5h3.7V23h-6.8V22.9z M257.9,5.5V0h1.1v3.4h4.3v2.1H257.9L257.9,5.5z M270,2.4h-2.2v16.3h2.2V2.4z
				 M257.9,0v5.5h-5.5V3.4h4.3V0H257.9L257.9,0z M257.9,6.8v2.2c0,0,0,0-0.1,0c-0.7,0-1.3,0.3-1.8,0.7c-0.5,0.5-0.7,1.1-0.7,1.8
				c0,0.8,0.3,1.4,0.7,2c0.5,0.5,1.1,0.8,1.8,0.8c0,0,0,0,0.1,0V23h-6.8v-2.2h3.7c0.7,0,1.2-0.1,1.6-0.5s0.5-0.8,0.5-1.4v-2.2
				c-1.1-0.3-2-0.8-2.8-1.7c-0.7-0.9-1.1-2-1.1-3.2c0-1.3,0.5-2.5,1.3-3.4C255.3,7.2,256.5,6.8,257.9,6.8
				C257.8,6.8,257.8,6.8,257.9,6.8L257.9,6.8z M236.2,18.9v-2.1h6.7V19h-6.7V18.9z M236.2,14.3V12c0.8,0,1.6-0.4,2.1-0.9
				c0.7-0.7,0.9-1.3,0.9-2.2s-0.3-1.6-0.9-2.1c-0.5-0.5-1.3-0.9-2.1-0.9V3.5c1.4,0,2.8,0.5,3.8,1.6c1.1,1.1,1.6,2.2,1.6,3.8
				s-0.5,2.8-1.6,3.8C239,13.7,237.7,14.3,236.2,14.3L236.2,14.3z M248.5,2.9h-2.2v14.2h2.2V2.9z M236.2,3.5v2.4c0,0,0,0-0.1,0
				c-0.8,0-1.6,0.3-2.1,0.9c-0.5,0.5-0.9,1.3-0.9,2.1c0,0.9,0.3,1.6,0.9,2.2c0.5,0.7,1.3,0.9,2.1,0.9c0,0,0,0,0.1,0v2.4
				c0,0,0,0-0.1,0c-1.4,0-2.8-0.5-3.7-1.6c-1.1-1.1-1.6-2.4-1.6-3.8s0.5-2.8,1.6-3.8C233.5,4.1,234.7,3.5,236.2,3.5L236.2,3.5
				L236.2,3.5z M236.2,16.8V19h-6.8v-2.2H236.2L236.2,16.8z M221.5,32.6v-2.4h2.9v-3.4h-2.9v-2.4h2.9v-3.2h2.4v11.3H221.5
				L221.5,32.6z M221.5,15.1V13h0.7c0.8,0,1.3-0.1,1.7-0.4c0.4-0.3,0.5-0.7,0.5-1.3c0-0.7-0.1-1.2-0.5-1.4c-0.4-0.3-0.9-0.4-1.7-0.4
				h-0.7V7.4h0.7c0.8,0,1.3-0.1,1.7-0.3c0.4-0.3,0.5-0.8,0.5-1.7V3.3h2.2v16.2h-2.2v-2.5c0-0.9-0.1-1.4-0.5-1.7
				c-0.4-0.3-0.9-0.4-1.7-0.4h-0.7V15.1z M221.5,7.4v2.2h-2.8V7.4H221.5L221.5,7.4z M221.5,13v2.1h-2.8V13H221.5L221.5,13z
				 M221.5,24.4v2.4h-2.9v3.4h2.9v2.4h-5.3V21.3h2.4v3.2H221.5L221.5,24.4z M211.6,17.5v-2.2c0.7,0,1.3-0.3,1.8-0.8
				c0.5-0.5,0.8-1.2,0.8-2c0-0.7-0.3-1.3-0.8-1.8c-0.5-0.5-1.2-0.7-1.8-0.7V7.7c1.3,0,2.5,0.5,3.4,1.4c0.9,0.9,1.4,2.1,1.4,3.4
				c0,1.4-0.5,2.5-1.4,3.5C214,17.1,212.9,17.5,211.6,17.5L211.6,17.5z M211.6,6.4V0.9h1.1v3.4h4.3v2.1H211.6z M75.9,2.8h-2.4v3.5
				h-2.9v2.4h2.9V12h-2.9v2.2h5.3V2.8L75.9,2.8z M211.6,0.9v5.5H206V4.3h4.3V0.9H211.6L211.6,0.9z M211.6,7.7V10c0,0,0,0-0.1,0
				c-0.7,0-1.3,0.3-1.8,0.7c-0.5,0.5-0.7,1.2-0.7,1.8c0,0.8,0.3,1.4,0.7,2c0.5,0.5,1.1,0.8,1.8,0.8h0.1v2.2c0,0,0,0-0.1,0
				c-1.3,0-2.5-0.5-3.4-1.4c-0.9-1.1-1.4-2.1-1.4-3.5c0-1.3,0.5-2.5,1.4-3.4S210.1,7.7,211.6,7.7L211.6,7.7L211.6,7.7z M70.8,23.6
				v-7.5h6.7v2.2h-3.7c-0.7,0-1.2,0.1-1.6,0.5c-0.4,0.4-0.5,0.9-0.5,1.6v3.2H70.8L70.8,23.6z M86.8,11.2c0.1-0.4,0.3-0.9,0.3-1.4
				c0-0.5,0-1.1,0-1.4V5.5h-2.6v2.8c0,1.7-0.4,3-1.2,4.2c-0.7,1.1-2.1,2.1-3.9,3.3l1.4,1.7c0.9-0.5,1.7-0.9,2.5-1.4
				c0.7-0.5,1.6-1.3,2.5-2.4l5,3.9l1.6-2.1L86.8,11.2L86.8,11.2z M97.4,28.2h-7.5V21h-2.4v9.6h9.9V28.2L97.4,28.2z M103.1,10.4h-3.7
				c-0.7,0-1.2-0.1-1.6-0.5c-0.4-0.4-0.5-0.8-0.5-1.6V4.6h-2.1V20h2.2v-5.3c0-0.7,0.1-1.2,0.5-1.6s0.9-0.5,1.6-0.5h3.5V10.4z
				 M70.8,6.3h-2.9V2.8h-2.4v11.4h5.3v-2.4h-2.9V8.7h2.9V6.3L70.8,6.3z M70.8,16.2v7.5h-1.2v-3.2c0-0.7-0.1-1.2-0.5-1.6
				c-0.4-0.4-0.9-0.5-1.6-0.5h-3.5v-2.2L70.8,16.2z"/>
			<path class="st1" d="M196.7,32.2v-2.4c0.8,0,1.6-0.3,2.1-0.9c0.7-0.7,0.9-1.3,0.9-2.2c0-0.9-0.4-1.6-0.9-2.1
				c-0.5-0.5-1.3-0.8-2.1-0.9v-2.4c1.4,0,2.8,0.5,3.8,1.6c1.1,1.1,1.6,2.2,1.6,3.7c0,1.4-0.5,2.8-1.6,3.8
				C199.5,31.7,198.2,32.2,196.7,32.2L196.7,32.2z M202.1,9.9h-2.2v9.6h2.2V9.9z M111.3,7.6c0.1-0.4,0.3-0.9,0.3-1.4s0-1.1,0-1.4
				V2.1H109v2.8c0,1.7-0.4,3.2-1.1,4.2c-0.8,1.1-2.1,2.1-3.9,3.3l1.4,1.7c0.9-0.5,1.7-0.9,2.4-1.4c0.7-0.5,1.6-1.3,2.5-2.5l5,4.1
				l1.7-2.1L111.3,7.6L111.3,7.6z M196.7,21.5v2.4c0,0,0,0-0.1,0c-0.8,0-1.6,0.3-2.1,0.9c-0.5,0.5-0.9,1.3-0.9,2.1
				c0,0.9,0.3,1.6,0.9,2.2c0.5,0.5,1.3,0.9,2.1,0.9c0,0,0,0,0.1,0v2.4c0,0,0,0-0.1,0c-1.4,0-2.8-0.5-3.7-1.6
				c-1.1-1.1-1.6-2.4-1.6-3.8s0.5-2.8,1.6-3.7C194,22.1,195.1,21.5,196.7,21.5L196.7,21.5L196.7,21.5z M117.3,16.8h-13.5V19h13.5
				V16.8L117.3,16.8z M130.6,12h-8V8h8V5.9h-8V2.5h8V0.3h-10.4v13.9h10.4V12L130.6,12z M124.3,15.5v3.2c0,0.7-0.1,1.2-0.5,1.4
				c-0.4,0.4-0.9,0.5-1.6,0.5h-3.5v2.2h13.5v-2.2h-3.7c-0.7,0-1.2-0.1-1.6-0.5c-0.4-0.4-0.5-0.8-0.5-1.4v-3.2H124.3L124.3,15.5z
				 M152.7,4.1h-2.2v15.5h2.2V4.1L152.7,4.1z M144.8,17.2h-6.4v-5h6.3V4.1H136v2.4h6.3V10H136v9.6h8.7v-2.4H144.8z M167.3,15.6h-8
				v-3.9h8V9.6h-8V6h8V3.8h-10.4v13.9h10.4V15.6L167.3,15.6z M181.1,2.8h-2.2v16.7h2.2V2.8L181.1,2.8z M178.9,34.4h-6.3v-4.9h6.3
				v-8.3h-8.7v2.4h6.3v3.5h-6.3v9.6h8.7V34.4L178.9,34.4z M176.4,2.8h-2.2v4.7c0,0.7-0.1,1.2-0.5,1.6c-0.4,0.4-0.9,0.5-1.6,0.5h-3.7
				v2.2h3.7c0.7,0,1.2,0.1,1.6,0.5c0.4,0.4,0.5,0.9,0.5,1.6v5.8h2.2V2.8L176.4,2.8z M194.2,17.2h-6.4v-5h6.3V4.1h-8.7v2.4h6.3V10
				h-6.3v9.6h8.7v-2.4H194.2z"/>
		</g>
	</g>
	<g>
		<path class="st2" d="M13.6,15.5c0,0,17.9-7.4,11.8,1.8C19.3,26.5,13.6,15.5,13.6,15.5z"/>
		<path class="st3" d="M12.7,15.6c0,0-16.7,9.7-11.8-0.1C5.6,5.4,12.7,15.6,12.7,15.6z"/>
		<path class="st4" d="M13.2,15.9c0,0,8.7,17.2-1.1,11.8C2.6,22.3,13.2,15.9,13.2,15.9z"/>
		<path class="st5" d="M13.1,15.2c0,0-8.8-17.2,0.9-11.8C23.7,8.7,13.1,15.2,13.1,15.2z"/>
		<path class="st6" d="M13.5,3.3l-0.3,11.8C13.2,15.2,16.3,6.4,13.5,3.3z"/>
		<path class="st6" d="M13,28l0.3-11.8C13.2,16.2,10.3,24.8,13,28z"/>
		<path class="st6" d="M0.6,16.3l11.8-0.7C12.4,15.6,3.5,13.4,0.6,16.3z"/>
		<path class="st6" d="M26.2,15l-11.8,0.7C14.4,15.6,23.3,17.9,26.2,15z"/>
	</g>
</g>
</svg>
