<?xml version="1.0" encoding="utf-8"?>
<!-- Generator: Adobe Illustrator 25.0.1, SVG Export Plug-In . SVG Version: 6.00 Build 0)  -->
<!DOCTYPE svg PUBLIC "-//W3C//DTD SVG 1.1//EN" "http://www.w3.org/Graphics/SVG/1.1/DTD/svg11.dtd" [
	<!ENTITY ns_extend "http://ns.adobe.com/Extensibility/1.0/">
	<!ENTITY ns_ai "http://ns.adobe.com/AdobeIllustrator/10.0/">
	<!ENTITY ns_graphs "http://ns.adobe.com/Graphs/1.0/">
	<!ENTITY ns_vars "http://ns.adobe.com/Variables/1.0/">
	<!ENTITY ns_imrep "http://ns.adobe.com/ImageReplacement/1.0/">
	<!ENTITY ns_sfw "http://ns.adobe.com/SaveForWeb/1.0/">
	<!ENTITY ns_custom "http://ns.adobe.com/GenericCustomNamespace/1.0/">
	<!ENTITY ns_adobe_xpath "http://ns.adobe.com/XPath/1.0/">
]>
<svg version="1.1" id="Layer_1" xmlns:x="&ns_extend;" xmlns:i="&ns_ai;" xmlns:graph="&ns_graphs;"
	 xmlns="http://www.w3.org/2000/svg" xmlns:xlink="http://www.w3.org/1999/xlink" x="0px" y="0px" viewBox="0 0 250 100"
	 style="enable-background:new 0 0 250 100;" xml:space="preserve">
<style type="text/css">
	.st0{fill:#020203;}
	.st1{fill:#274798;}
	.st2{fill:#A7A69D;}
	.st3{fill:#E62B23;}
</style>
<metadata>
	<sfw  xmlns="&ns_sfw;">
		<slices></slices>
		<sliceSourceBounds  bottomLeftOrigin="true" height="30" width="212.028" x="18.986" y="580.275"></sliceSourceBounds>
	</sfw>
</metadata>
<g>
	<g>
		<g>
			<path class="st0" d="M48.314,58.334L48.314,58.334c-0.001,0-1.813,0-1.907,0c-0.124,0.553-1.361,6.193-1.362,6.194
				c-0.001,0.001-0.012,0.046-0.012,0.106c0,0.069,0.014,0.16,0.07,0.234c0.064,0.084,0.164,0.128,0.299,0.128c0,0,0.889,0,0.977,0
				c0.003-0.012,0.006-0.022,0.006-0.022c0.114-0.517,0.779-3.734,1.063-5.119c0.305,1.469,0.945,4.552,0.945,4.553l0.013,0.044
				c0.05,0.187,0.145,0.548,0.52,0.548c0,0,1.138,0,1.278,0c-0.171-0.719-1.502-6.393-1.5-6.391
				C48.651,58.428,48.512,58.329,48.314,58.334z"/>
			<path class="st0" d="M36.165,58.334h-1.117c0,0-0.015,0-0.027,0c0,0.122,0,2.724,0,2.724h-1.777v-2.305
				c-0.008-0.267-0.17-0.419-0.448-0.419c0,0-1.032,0-1.143,0c0,0.125,0,6.243,0,6.243C31.66,64.843,31.821,65,32.1,65
				c0,0,1.03,0,1.143,0c0-0.121,0-2.792,0-2.792h1.777v2.37C35.027,64.848,35.186,65,35.467,65c0,0,1.032,0,1.144,0
				c0-0.632,0-6.246,0-6.246C36.604,58.49,36.44,58.334,36.165,58.334z"/>
			<path class="st0" d="M54.214,61.43l-1.303-0.599c-0.415-0.197-0.711-0.364-0.711-0.731c0-0.025,0-0.05,0.003-0.078
				c0.037-0.364,0.296-0.599,0.712-0.599h1.694c0.178,0,0.322-0.142,0.322-0.326v-0.762c-0.012,0-2.537,0-2.537,0
				c-1.009,0-1.674,0.551-1.779,1.48c-0.008,0.078-0.012,0.156-0.012,0.233c0,0.714,0.399,1.307,1.163,1.728
				c0,0,1.328,0.648,1.328,0.649c0.33,0.173,0.565,0.322,0.565,0.69c0,0.015,0,0.027-0.001,0.043
				c-0.019,0.445-0.274,0.728-0.699,0.728h-1.78c-0.178,0-0.32,0.146-0.32,0.328V65c0.115,0,2.652,0,2.652,0
				c0.369,0,1.585-0.12,1.732-1.635c0.011-0.096,0.015-0.189,0.015-0.28C55.259,62.303,54.902,61.742,54.214,61.43z"/>
			<path class="st0" d="M71.758,58.334h-2.339c-0.053,0-0.536,0.01-0.886,0.359c-0.224,0.22-0.337,0.537-0.337,0.922v4.964
				c0,0.265,0.164,0.42,0.447,0.42c0,0,1.032,0,1.144,0c0-0.123,0-5.579,0-5.579h1.602v5.159c0,0.265,0.164,0.42,0.449,0.42
				c0,0,1.031,0,1.142,0c0-0.123,0-5.384,0-5.384c0-0.385-0.112-0.702-0.336-0.922C72.29,58.344,71.81,58.334,71.758,58.334z"/>
			<path class="st0" d="M66.252,58.334h-1.116c0,0-0.014,0-0.026,0c0,0.125,0,5.552,0,5.552h-1.601v-5.135
				c0-0.262-0.164-0.418-0.449-0.418c0,0-1.033,0-1.144,0c0,0.125,0,5.381,0,5.381c0,0.388,0.113,0.701,0.339,0.922
				C62.604,64.99,63.088,65,63.143,65h2.334c0.053,0,0.537-0.01,0.885-0.363c0.226-0.221,0.339-0.534,0.339-0.922v-4.963
				C66.7,58.49,66.538,58.334,66.252,58.334z"/>
			<path class="st0" d="M78.603,61.519c0,0-0.995,0-1.107,0c0,0.119,0,2.368,0,2.368h-1.476V59.44h2.573
				c0.176,0,0.321-0.142,0.321-0.325v-0.781c-0.012,0-3.097,0-3.097,0c-1.027,0-1.388,0.63-1.388,1.179v4.189
				c0,0.941,0.77,1.298,1.252,1.298h2.145c0.589,0,1.223-0.408,1.223-1.297v-1.756C79.043,61.676,78.88,61.519,78.603,61.519z"/>
			<path class="st0" d="M56.314,58.334c0,0.125,0,6.243,0,6.243C56.321,64.848,56.482,65,56.761,65h3.901v-1.115
				c-0.119,0-2.75,0-2.75,0v-1.699c0,0,2.333,0,2.45,0c0-0.105,0-0.993,0-1.097c-0.117,0-2.45,0-2.45,0v-1.667h2.427
				c0.179,0,0.323-0.142,0.323-0.326v-0.762c-0.012,0-0.027,0-0.027,0S56.435,58.334,56.314,58.334z"/>
			<path class="st0" d="M44.676,58.49c-0.114-0.144-0.304-0.156-0.358-0.156c0,0-0.937,0-1.029,0l-0.733,3.854
				c-0.277-1.39-0.754-3.782-0.767-3.854c-0.09,0-1.134,0-1.224,0l-0.766,3.829c0,0-0.678-3.534-0.686-3.567
				c-0.028-0.118-0.12-0.262-0.39-0.262h-1.174c0,0-0.019,0-0.035,0c0.137,0.693,1.248,6.04,1.248,6.04
				c0.02,0.103,0.14,0.626,0.481,0.626c0,0,1,0,1.091,0l0.842-4.179c0.234,1.232,0.725,3.553,0.725,3.553
				C41.902,64.381,42.022,65,42.383,65c0,0,0.982,0,1.074,0l1.284-6.154C44.77,58.695,44.747,58.58,44.676,58.49L44.676,58.49z"/>
		</g>
		<path class="st1" d="M25.652,40.617c0-0.803-0.426-1.508-1.059-1.891c-0.249-0.148-0.527-0.261-0.819-0.309
			c-0.044-0.006-0.092-0.012-0.142-0.016c-0.37-0.04-0.824-0.065-1.313-0.065c-0.488,0-0.94,0.024-1.313,0.065
			c-0.047,0.005-0.091,0.01-0.134,0.016c-0.3,0.048-0.578,0.162-0.82,0.309c-0.641,0.384-1.066,1.089-1.066,1.891l0,0v14.781
			c0,0,0,0,0,0.001c0,0.803,0.424,1.508,1.066,1.891c0.241,0.153,0.52,0.261,0.82,0.309c0.043,0.006,0.088,0.012,0.134,0.016
			c0.372,0.042,0.824,0.065,1.313,0.065c0.489,0,0.943-0.024,1.313-0.065c0.05-0.005,0.098-0.011,0.142-0.016
			c0.292-0.047,0.57-0.155,0.819-0.309c0.634-0.383,1.059-1.088,1.059-1.891l0,0V40.617L25.652,40.617z"/>
		<path class="st2" d="M49.585,43.383c-0.002-0.015-0.004-0.029-0.005-0.044c-0.037-0.316-0.147-0.611-0.309-0.884
			c-0.379-0.595-1.049-1.006-1.815-1.007l0,0H32.851l0,0c-0.766,0.002-1.44,0.413-1.818,1.007c-0.162,0.273-0.271,0.567-0.308,0.884
			c-0.002,0.014-0.003,0.029-0.005,0.044c-0.042,0.371-0.065,0.806-0.065,1.291c0,0.484,0.023,0.919,0.065,1.29
			c0.002,0.014,0.003,0.029,0.005,0.043c0.038,0.317,0.146,0.611,0.308,0.884c0.378,0.595,1.052,1.006,1.818,1.007l0,0l0,0h0.002
			c0.002,0,0.003,0,0.003,0h14.592h0.002c0.001,0,0.001,0,0.001,0h0.003l0,0c0.766-0.001,1.436-0.412,1.815-1.007
			c0.162-0.273,0.272-0.567,0.309-0.884c0.002-0.014,0.003-0.029,0.005-0.044c0.039-0.371,0.063-0.806,0.063-1.29
			C49.648,44.188,49.624,43.754,49.585,43.383z"/>
		<path class="st3" d="M46.987,37.282c0-0.803-0.425-1.508-1.061-1.892c-0.247-0.147-0.523-0.263-0.82-0.309
			c-0.044-0.005-0.09-0.012-0.137-0.016C44.598,35.024,44.145,35,43.655,35s-0.943,0.024-1.314,0.064
			c-0.047,0.005-0.093,0.011-0.136,0.016c-0.299,0.046-0.575,0.162-0.82,0.309c-0.638,0.384-1.064,1.089-1.064,1.892l0,0v14.781
			v0.001c0,0.803,0.426,1.508,1.064,1.891c0.245,0.151,0.522,0.26,0.819,0.308c0.044,0.006,0.09,0.012,0.137,0.018
			c0.371,0.041,0.824,0.064,1.314,0.064s0.944-0.024,1.314-0.064c0.047-0.006,0.093-0.012,0.137-0.018
			c0.297-0.048,0.573-0.157,0.82-0.308c0.636-0.383,1.061-1.088,1.061-1.891l0,0V37.282L46.987,37.282z"/>
		<path class="st2" d="M37.279,46.721c-0.001-0.016-0.003-0.031-0.004-0.044c-0.038-0.317-0.147-0.613-0.311-0.886
			c-0.378-0.594-1.051-1.005-1.817-1.006l0,0H22.847l0,0c-0.762,0.001-1.435,0.412-1.815,1.006
			c-0.161,0.273-0.276,0.568-0.311,0.884c-0.002,0.015-0.004,0.031-0.005,0.048c-0.04,0.367-0.064,0.803-0.064,1.286
			c0,0.485,0.024,0.918,0.064,1.29c0.001,0.015,0.002,0.029,0.005,0.043c0.035,0.316,0.15,0.611,0.311,0.885
			c0.378,0.596,1.053,1.004,1.815,1.006l0,0l0,0h0.005c0.001,0,0.002,0,0.002,0h12.288h0.002c0,0,0.002,0,0.002,0h0.002l0,0
			c0.765-0.002,1.438-0.409,1.817-1.006c0.164-0.274,0.272-0.569,0.311-0.887c0.001-0.013,0.002-0.026,0.004-0.04
			c0.04-0.372,0.065-0.806,0.065-1.292C37.344,47.525,37.319,47.089,37.279,46.721z"/>
		<rect x="40.321" y="41.448" width="6.667" height="6.449"/>
		<path d="M22.847,44.785L22.847,44.785c-0.762,0.001-1.435,0.412-1.815,1.006c-0.161,0.273-0.276,0.568-0.311,0.884
			c-0.002,0.015-0.004,0.031-0.005,0.048c-0.04,0.367-0.064,0.803-0.064,1.286c0,0.485,0.024,0.918,0.064,1.29
			c0.001,0.015,0.002,0.029,0.005,0.043c0.035,0.316,0.15,0.611,0.311,0.885c0.378,0.596,1.053,1.004,1.815,1.006l0,0l0,0h0.005
			c0.001,0,0.002,0,0.002,0h2.798v-6.447H22.847z"/>
		<path d="M37.275,46.677c-0.038-0.317-0.147-0.613-0.311-0.886c-0.378-0.594-1.051-1.005-1.817-1.006l0,0h-4.493
			c0.004,0.441,0.027,0.836,0.065,1.179c0.002,0.014,0.003,0.029,0.005,0.043c0.038,0.317,0.146,0.611,0.308,0.884
			c0.378,0.595,1.052,1.006,1.818,1.007l0,0h0.002c0.002,0,0.003,0,0.003,0h4.486c-0.004-0.442-0.026-0.837-0.064-1.176
			C37.278,46.706,37.276,46.69,37.275,46.677z"/>
	</g>
	<g>
		<path class="st0" d="M86.339,55.457h6.626v-2.625c-2.858-0.493-4.937-2.26-4.937-4.885c0-3.066,2.858-5.015,6.496-5.015
			c3.742,0,6.523,1.949,6.523,5.015c0,2.677-2.105,4.496-5.119,4.912v2.572c3.456-0.13,5.457-0.494,7.12-0.832v2.053
			c0,0.286-0.234,0.442-0.52,0.52c-2.235,0.701-6.808,0.728-10.55,0.728h-5.639V55.457z M101.983,42.464H86.911v-2.52h6.055v-2.728
			h2.988v2.728h6.029V42.464z M94.525,50.598c2.261,0,3.742-0.988,3.742-2.651c0-1.663-1.481-2.65-3.742-2.65
			c-2.157,0-3.664,0.987-3.664,2.65C90.861,49.61,92.368,50.598,94.525,50.598z M110.428,49.402h-3.326v12.343
			c0,0.286-0.234,0.52-0.52,0.52h-2.469V37.527h2.988v9.407h3.326V49.402z"/>
		<path class="st0" d="M134.338,49.09v1.923c0,0.286-0.234,0.52-0.52,0.52h-22.894V49.09H134.338z M124.177,39.502
			c0,2.807,5.665,5.041,8.341,5.769l-1.663,2.001c-2.599-0.676-6.392-2.52-8.185-4.6c-1.793,2.287-5.197,3.664-8.16,4.652
			l-1.715-2.001c3.04-0.832,8.419-3.144,8.419-5.821v-2.209h2.962V39.502z M122.722,53.092c5.197,0,8.523,1.559,8.523,4.964
			c0,3.118-3.274,4.729-8.523,4.729c-5.041,0-8.679-1.299-8.679-4.729C114.043,54.651,117.681,53.092,122.722,53.092z
			 M122.722,60.342c3.404,0,5.509-0.728,5.509-2.287c0-1.663-2.079-2.495-5.483-2.495c-3.56,0-5.691,0.832-5.691,2.495
			C117.057,59.589,119.188,60.342,122.722,60.342z"/>
		<path class="st0" d="M147.514,55.379c-3.3,0.468-7.666,0.91-9.615,0.78c-1.013-0.078-1.585-0.701-1.585-1.559V38.358h2.962v15.02
			c0,0.182,0.078,0.26,0.26,0.26c2.391,0.078,5.041-0.312,7.978-0.806V55.379z M151.854,61.148c0,0.286-0.234,0.52-0.52,0.52h-2.417
			V47.194h-5.509v-2.547h5.509v-7.146h2.936V61.148z M157.155,61.745c0,0.286-0.234,0.52-0.52,0.52h-2.443V37.501h2.962V61.745z"/>
		<path class="st0" d="M159.288,58.757v-2.495h23.387v1.975c-0.026,0.442-0.39,0.52-0.52,0.52H159.288z M163.836,52.339
			c-0.91,0-1.585-0.702-1.585-1.56v-10.42c0-0.909,0.676-1.559,1.585-1.559h15.695v2.495h-13.954c-0.182,0-0.26,0.078-0.26,0.26
			v2.728h13.824V46.7h-13.824v2.858c0,0.182,0.078,0.26,0.26,0.26h14.188v2.521H163.836z"/>
		<path class="st0" d="M184.237,47.298h8.341c3.248,0,6.237-0.364,8.289-0.858v1.923c0,0.234-0.13,0.39-0.364,0.468
			c-1.923,0.702-5.743,0.91-8.497,0.91v4.079c0,0.286-0.234,0.52-0.52,0.52h-2.469v-4.6h-4.782V47.298z M191.955,37.553
			c3.664,0,6.496,1.455,6.496,4.366c0,2.78-2.884,4.183-6.496,4.183c-3.664,0-6.549-1.325-6.549-4.235
			C185.406,39.034,188.291,37.553,191.955,37.553z M205.026,61.745c0,0.286-0.234,0.52-0.52,0.52h-2.469v-4.236
			c0-0.182-0.078-0.259-0.26-0.259h-14.058v-2.443h15.721c0.858,0,1.585,0.65,1.585,1.56V61.745z M191.955,43.867
			c2.209,0,3.664-0.78,3.664-1.949c0-1.325-1.377-2.053-3.664-2.053c-2.131,0-3.716,0.78-3.716,2.001
			C188.239,43.088,189.772,43.867,191.955,43.867z M201.985,37.527h2.988v16.189c0,0.286-0.234,0.52-0.52,0.52h-2.469v-1.144h-7.172
			v-2.391h7.172V37.527z"/>
		<path class="st0" d="M231.014,56.289v1.975c0,0.286-0.234,0.52-0.52,0.52h-22.868v-2.495H231.014z M217.891,38.592h2.962v4.158
			c0.312,3.014,6.367,6.522,9.485,7.458l-1.871,2.131c-2.599-0.676-7.432-3.534-9.095-5.821c-1.819,2.312-6.185,5.171-9.121,6.08
			l-1.949-2.079c3.118-0.936,9.589-4.496,9.589-8.082V38.592z"/>
	</g>
</g>
</svg>
