<?xml version="1.0" encoding="utf-8"?>
<!-- Generator: Adobe Illustrator 25.0.1, SVG Export Plug-In . SVG Version: 6.00 Build 0)  -->
<!DOCTYPE svg PUBLIC "-//W3C//DTD SVG 1.1//EN" "http://www.w3.org/Graphics/SVG/1.1/DTD/svg11.dtd" [
	<!ENTITY ns_extend "http://ns.adobe.com/Extensibility/1.0/">
	<!ENTITY ns_ai "http://ns.adobe.com/AdobeIllustrator/10.0/">
	<!ENTITY ns_graphs "http://ns.adobe.com/Graphs/1.0/">
	<!ENTITY ns_vars "http://ns.adobe.com/Variables/1.0/">
	<!ENTITY ns_imrep "http://ns.adobe.com/ImageReplacement/1.0/">
	<!ENTITY ns_sfw "http://ns.adobe.com/SaveForWeb/1.0/">
	<!ENTITY ns_custom "http://ns.adobe.com/GenericCustomNamespace/1.0/">
	<!ENTITY ns_adobe_xpath "http://ns.adobe.com/XPath/1.0/">
]>
<svg version="1.1" id="Layer_1" xmlns:x="&ns_extend;" xmlns:i="&ns_ai;" xmlns:graph="&ns_graphs;"
	 xmlns="http://www.w3.org/2000/svg" xmlns:xlink="http://www.w3.org/1999/xlink" x="0px" y="0px" viewBox="0 0 250 100"
	 style="enable-background:new 0 0 250 100;" xml:space="preserve">
<style type="text/css">
	.st0{fill:#271D67;}
	.st1{fill:#EF7D00;}
</style>
<metadata>
	<sfw  xmlns="&ns_sfw;">
		<slices></slices>
		<sliceSourceBounds  bottomLeftOrigin="true" height="28" width="218.315" x="15.843" y="581.275"></sliceSourceBounds>
	</sfw>
</metadata>
<g>
	<g>
		<polygon class="st0" points="217.557,59.352 221.5,59.333 221.474,53.478 230.24,53.44 230.232,51.261 208.844,51.354 
			208.852,53.535 217.53,53.496 		"/>
		<polygon class="st0" points="214.373,49.774 219.54,43.003 226.307,49.746 229.418,49.746 222.554,42.971 228.714,42.945 
			228.704,40.762 210.389,40.843 210.399,43.023 214.984,43.005 209.733,49.793 		"/>
		<rect x="204.87" y="40.821" transform="matrix(1 -0.0038 0.0038 1 -0.1864 0.7745)" class="st0" width="1.805" height="18.199"/>
		<polygon class="st0" points="234.078,40.698 232.274,40.704 232.356,58.901 234.158,58.896 		"/>
		<path class="st0" d="M133.228,47.424c0.01,1.866,2.17,3.395,4.93,3.567c0,0,2.237,0.287,4.339-0.056
			c2.575-0.306,4.529-1.789,4.521-3.571c-0.005-1.628-1.649-2.995-3.896-3.434l4.097-0.017l-0.009-2.049l-4.753,0.02l-0.005-1.515
			l-4.341,0.019l0.007,1.513l-5.065,0.022l0.01,2.047l4.036-0.013C134.853,44.418,133.224,45.798,133.228,47.424z M140.003,45.577
			h0.225c1.309-0.008,2.372,0.752,2.376,1.691c0.005,0.944-1.055,1.71-2.359,1.717l-0.228,0.003
			c-1.308,0.004-2.367-0.755-2.372-1.697C137.64,46.352,138.696,45.583,140.003,45.577z"/>
		<path class="st0" d="M89.896,58.83c0.048,0.325,0.178,0.707,0.656,0.863l16.162-0.073l-0.006-2.179l-12.876,0.056l-0.021-4.705
			l-3.941,0.014L89.896,58.83z"/>
		<path class="st0" d="M160.164,58.296c0.003,0.629,0.321,1.055,0.964,1.055l15.87-0.073l-0.012-2.179l-12.874,0.058l-0.019-4.706
			l-3.943,0.017L160.164,58.296z"/>
		<path class="st0" d="M183.495,54.029l12.789-0.065v-0.818l-12.808,0.056l-0.009-2.184l16.827-0.062l0.021,5.169l-12.869,0.059
			l0.005,0.802l12.871-0.056l0.009,2.18L184.6,59.18c-0.67,0.005-1.084-0.571-1.089-1.237L183.495,54.029z"/>
		<polygon class="st0" points="196.352,44.016 192.892,44.03 192.899,46.207 196.359,46.194 196.377,50.56 200.324,50.544 
			200.28,40.916 196.336,40.933 		"/>
		<path class="st0" d="M187.789,43.494l3.551,6.213l2.831-0.033l-4.55-8.112c-0.318-0.496-1.111-0.609-1.111-0.609l-3.758,0.017
			l-4.878,8.761l4.518-0.017L187.789,43.494z"/>
		<path class="st0" d="M140.525,53.624l-0.009-1.669l-3.943,0.018l0.031,6.203c0.003,0.678,0.483,1.273,1.105,1.269l15.749-0.066
			l-0.034-7.245l-4.018,0.016l0.003,1.433L140.525,53.624z M140.533,55.805l8.885-0.039l0.005,1.45l-8.883,0.039L140.533,55.805z"/>
		<polygon class="st0" points="167.99,44.877 167.997,47.058 172.919,47.039 172.935,50.679 176.953,50.661 176.914,41.024 
			172.895,41.04 172.911,44.854 		"/>
		<path class="st0" d="M90.53,50.957l3.614-3.612l3.59,3.277l3.582-0.04l-5.578-4.834l2.843-2.844
			c0.212-0.255,0.263-0.682,0.011-1.064c-0.313-0.492-1.006-0.462-1.006-0.462L95.38,41.39l-0.005,0.005l-8.997,0.037l0.01,2.185
			l6.806-0.031l-7.34,7.405L90.53,50.957z"/>
		<path class="st0" d="M160.845,50.589l8.053-8.058c0.17-0.341,0.269-0.512,0.01-1.064c-0.316-0.494-1.006-0.465-1.006-0.465
			l-11.207,0.032l0.01,2.244l6.769-0.031l-7.306,7.335L160.845,50.589z"/>
		<polygon class="st0" points="114.886,48.179 119.137,43.464 121.027,43.455 125.786,47.935 129.127,47.899 124.463,43.44 
			129.018,43.422 129.007,41.237 110.345,41.319 110.352,43.502 114.52,43.483 110.207,48.179 		"/>
		<rect x="102.666" y="41.339" transform="matrix(1 -0.0042 0.0042 1 -0.1939 0.4422)" class="st0" width="4.021" height="9.638"/>
		<polygon class="st0" points="153.4,47.123 155.363,47.116 155.354,44.931 153.39,44.939 153.373,41.127 149.353,41.146 
			149.394,50.781 153.413,50.766 		"/>
		<rect x="79.527" y="41.339" transform="matrix(1 -0.0042 0.0042 1 -0.2123 0.3448)" class="st0" width="4.019" height="18.227"/>
		<polygon class="st0" points="130.661,49.217 122.091,49.251 122.077,46.143 118.059,46.161 118.072,49.271 108.862,49.31 
			108.872,51.493 130.671,51.398 		"/>
		<path class="st0" d="M124.042,52.163l-8.169,0.037c-2.789,0.014-5.043,1.673-5.033,3.712c0.009,2.036,2.274,3.678,5.064,3.664
			l8.17-0.037c2.786-0.009,5.039-1.672,5.028-3.708C129.098,53.795,126.827,52.15,124.042,52.163z M122.702,57.224l-5.448,0.025
			c-1.137,0.005-2.065-0.629-2.066-1.417c-0.004-0.783,0.916-1.428,2.055-1.433l5.447-0.024c1.139-0.007,2.064,0.631,2.067,1.416
			C124.76,56.578,123.841,57.219,122.702,57.224z"/>
		<path class="st0" d="M70.234,41.24h-0.239c-3.448,0.016-6.231,2.801-6.217,6.221l0.02,4.508c0.015,3.425,2.822,6.182,6.271,6.166
			h0.238c3.449-0.014,6.231-2.797,6.217-6.222l-0.02-4.508C76.49,43.987,73.681,41.222,70.234,41.24z M72.388,53.756
			c0.004,0.968-0.987,1.753-2.211,1.759c-1.224,0.005-2.223-0.772-2.226-1.736l-0.036-8.157c-0.005-0.969,0.986-1.754,2.21-1.76
			c1.223-0.003,2.221,0.772,2.226,1.741L72.388,53.756z"/>
		<polygon class="st0" points="217.557,59.352 221.5,59.333 221.474,53.478 230.24,53.44 230.232,51.261 208.844,51.354 
			208.852,53.535 217.53,53.496 		"/>
		<polygon class="st0" points="214.373,49.774 219.54,43.003 226.307,49.746 229.418,49.746 222.554,42.971 228.714,42.945 
			228.704,40.762 210.389,40.843 210.399,43.023 214.984,43.005 209.733,49.793 		"/>
		<rect x="204.87" y="40.821" transform="matrix(1 -0.0038 0.0038 1 -0.1864 0.7745)" class="st0" width="1.805" height="18.199"/>
		<polygon class="st0" points="234.078,40.698 232.274,40.704 232.356,58.901 234.158,58.896 		"/>
		<path class="st0" d="M133.228,47.424c0.01,1.866,2.17,3.395,4.93,3.567c0,0,2.237,0.287,4.339-0.056
			c2.575-0.306,4.529-1.789,4.521-3.571c-0.005-1.628-1.649-2.995-3.896-3.434l4.097-0.017l-0.009-2.049l-4.753,0.02l-0.005-1.515
			l-4.341,0.019l0.007,1.513l-5.065,0.022l0.01,2.047l4.036-0.013C134.853,44.418,133.224,45.798,133.228,47.424z M140.003,45.577
			h0.225c1.309-0.008,2.372,0.752,2.376,1.691c0.005,0.944-1.055,1.71-2.359,1.717l-0.228,0.003
			c-1.308,0.004-2.367-0.755-2.372-1.697C137.64,46.352,138.696,45.583,140.003,45.577z"/>
		<path class="st0" d="M89.896,58.83c0.048,0.325,0.178,0.707,0.656,0.863l16.162-0.073l-0.006-2.179l-12.876,0.056l-0.021-4.705
			l-3.941,0.014L89.896,58.83z"/>
		<path class="st0" d="M160.164,58.296c0.003,0.629,0.321,1.055,0.964,1.055l15.87-0.073l-0.012-2.179l-12.874,0.058l-0.019-4.706
			l-3.943,0.017L160.164,58.296z"/>
		<path class="st0" d="M183.495,54.029l12.789-0.065v-0.818l-12.808,0.056l-0.009-2.184l16.827-0.062l0.021,5.169l-12.869,0.059
			l0.005,0.802l12.871-0.056l0.009,2.18L184.6,59.18c-0.67,0.005-1.084-0.571-1.089-1.237L183.495,54.029z"/>
		<polygon class="st0" points="196.352,44.016 192.892,44.03 192.899,46.207 196.359,46.194 196.377,50.56 200.324,50.544 
			200.28,40.916 196.336,40.933 		"/>
		<path class="st0" d="M187.789,43.494l3.551,6.213l2.831-0.033l-4.55-8.112c-0.318-0.496-1.111-0.609-1.111-0.609l-3.758,0.017
			l-4.878,8.761l4.518-0.017L187.789,43.494z"/>
		<path class="st0" d="M140.525,53.624l-0.009-1.669l-3.943,0.018l0.031,6.203c0.003,0.678,0.483,1.273,1.105,1.269l15.749-0.066
			l-0.034-7.245l-4.018,0.016l0.003,1.433L140.525,53.624z M140.533,55.805l8.885-0.039l0.005,1.45l-8.883,0.039L140.533,55.805z"/>
		<polygon class="st0" points="167.99,44.877 167.997,47.058 172.919,47.039 172.935,50.679 176.953,50.661 176.914,41.024 
			172.895,41.04 172.911,44.854 		"/>
		<path class="st0" d="M90.53,50.957l3.614-3.612l3.59,3.277l3.582-0.04l-5.578-4.834l2.843-2.844
			c0.212-0.255,0.263-0.682,0.011-1.064c-0.313-0.492-1.006-0.462-1.006-0.462L95.38,41.39l-0.005,0.005l-8.997,0.037l0.01,2.185
			l6.806-0.031l-7.34,7.405L90.53,50.957z"/>
		<path class="st0" d="M160.845,50.589l8.053-8.058c0.17-0.341,0.269-0.512,0.01-1.064c-0.316-0.494-1.006-0.465-1.006-0.465
			l-11.207,0.032l0.01,2.244l6.769-0.031l-7.306,7.335L160.845,50.589z"/>
		<polygon class="st0" points="114.886,48.179 119.137,43.464 121.027,43.455 125.786,47.935 129.127,47.899 124.463,43.44 
			129.018,43.422 129.007,41.237 110.345,41.319 110.352,43.502 114.52,43.483 110.207,48.179 		"/>
		<rect x="102.666" y="41.339" transform="matrix(1 -0.0042 0.0042 1 -0.1939 0.4422)" class="st0" width="4.021" height="9.638"/>
		<polygon class="st0" points="153.4,47.123 155.363,47.116 155.354,44.931 153.39,44.939 153.373,41.127 149.353,41.146 
			149.394,50.781 153.413,50.766 		"/>
		<rect x="79.527" y="41.339" transform="matrix(1 -0.0042 0.0042 1 -0.2123 0.3448)" class="st0" width="4.019" height="18.227"/>
		<polygon class="st0" points="130.661,49.217 122.091,49.251 122.077,46.143 118.059,46.161 118.072,49.271 108.862,49.31 
			108.872,51.493 130.671,51.398 		"/>
		<path class="st0" d="M124.042,52.163l-8.169,0.037c-2.789,0.014-5.043,1.673-5.033,3.712c0.009,2.036,2.274,3.678,5.064,3.664
			l8.17-0.037c2.786-0.009,5.039-1.672,5.028-3.708C129.098,53.795,126.827,52.15,124.042,52.163z M122.702,57.224l-5.448,0.025
			c-1.137,0.005-2.065-0.629-2.066-1.417c-0.004-0.783,0.916-1.428,2.055-1.433l5.447-0.024c1.139-0.007,2.064,0.631,2.067,1.416
			C124.76,56.578,123.841,57.219,122.702,57.224z"/>
		<path class="st0" d="M70.234,41.24h-0.239c-3.448,0.016-6.231,2.801-6.217,6.221l0.02,4.508c0.015,3.425,2.822,6.182,6.271,6.166
			h0.238c3.449-0.014,6.231-2.797,6.217-6.222l-0.02-4.508C76.49,43.987,73.681,41.222,70.234,41.24z M72.388,53.756
			c0.004,0.968-0.987,1.753-2.211,1.759c-1.224,0.005-2.223-0.772-2.226-1.736l-0.036-8.157c-0.005-0.969,0.986-1.754,2.21-1.76
			c1.223-0.003,2.221,0.772,2.226,1.741L72.388,53.756z"/>
	</g>
	<g>
		<path class="st0" d="M47.119,49.444v7.33c-0.05,1.458-0.842,2.865-2.758,2.865h-3.002c-0.305,0-0.769-0.121-1.035-0.267
			l-7.312-3.724c-0.264-0.15-0.233-0.272,0.07-0.272h4.23c0.65,0,1.098-0.328,1.103-1.103v-6.252
			c-0.892-0.053-1.803-0.085-2.734-0.085c-0.988-0.004-1.96,0.026-2.912,0.08c0.043,0.105,0.068,0.211,0.066,0.311l-0.033,11.279
			c-0.001,0.304-0.218,0.43-0.484,0.282l-7.753-3.69c-0.263-0.148-0.478-0.517-0.478-0.823l0.007-5.955
			c-4.986,1.444-8.24,3.807-8.252,6.49c-0.018,4.436,8.832,8.059,19.77,8.088c10.937,0.027,19.819-3.544,19.838-7.978
			C55.463,53.315,52.17,50.915,47.119,49.444z"/>
		<g>
			<path class="st1" d="M46.708,40.892l-7.795-3.802c-0.265-0.15-0.483-0.022-0.483,0.283l-0.007,7.349
				c0,0.305,0.216,0.673,0.479,0.823l7.773,3.8c0.266,0.147,0.483,0.022,0.485-0.279l0.028-7.355
				C47.188,41.409,46.973,41.04,46.708,40.892z"/>
			<path class="st1" d="M32.381,39.752l-7.785-3.69c-0.263-0.149-0.48-0.021-0.48,0.283l-0.008,7.129
				c-0.002,0.302,0.215,0.67,0.48,0.818l7.774,3.695c0.264,0.148,0.482,0.022,0.482-0.282l0.018-7.129
				C32.861,40.272,32.646,39.903,32.381,39.752z"/>
		</g>
	</g>
</g>
</svg>
