<?xml version="1.0" encoding="utf-8"?>
<!-- Generator: Adobe Illustrator 25.0.1, SVG Export Plug-In . SVG Version: 6.00 Build 0)  -->
<!DOCTYPE svg PUBLIC "-//W3C//DTD SVG 1.1//EN" "http://www.w3.org/Graphics/SVG/1.1/DTD/svg11.dtd" [
	<!ENTITY ns_extend "http://ns.adobe.com/Extensibility/1.0/">
	<!ENTITY ns_ai "http://ns.adobe.com/AdobeIllustrator/10.0/">
	<!ENTITY ns_graphs "http://ns.adobe.com/Graphs/1.0/">
	<!ENTITY ns_vars "http://ns.adobe.com/Variables/1.0/">
	<!ENTITY ns_imrep "http://ns.adobe.com/ImageReplacement/1.0/">
	<!ENTITY ns_sfw "http://ns.adobe.com/SaveForWeb/1.0/">
	<!ENTITY ns_custom "http://ns.adobe.com/GenericCustomNamespace/1.0/">
	<!ENTITY ns_adobe_xpath "http://ns.adobe.com/XPath/1.0/">
]>
<svg version="1.1" id="Layer_1" xmlns:x="&ns_extend;" xmlns:i="&ns_ai;" xmlns:graph="&ns_graphs;"
	 xmlns="http://www.w3.org/2000/svg" xmlns:xlink="http://www.w3.org/1999/xlink" x="0px" y="0px" viewBox="0 0 250 100"
	 style="enable-background:new 0 0 250 100;" xml:space="preserve">
<style type="text/css">
	.st0{fill-rule:evenodd;clip-rule:evenodd;fill:#005AA9;}
	.st1{fill-rule:evenodd;clip-rule:evenodd;fill:#EC1C24;}
	.st2{fill:#231F20;}
</style>
<metadata>
	<sfw  xmlns="&ns_sfw;">
		<slices></slices>
		<sliceSourceBounds  bottomLeftOrigin="true" height="24.242" width="174.444" x="37.778" y="-61.121"></sliceSourceBounds>
	</sfw>
</metadata>
<g>
	<path class="st0" d="M39.219,54.227c0,0,9.676-12.579,20.555-12.116c4.762,0.203,11.826,3.191,6.052,12.138h14.86
		c0,0,5.66-11.883-9.608-16.569c-6.366-1.954-21.382-1.645-33.3,16.548H39.219z"/>
	<polygon class="st1" points="63.896,47.578 61.235,43.922 55.674,54.041 60.241,54.041 	"/>
	<polygon class="st1" points="57.308,49.059 54.647,45.405 49.9,54.041 54.467,54.041 	"/>
	<polygon class="st1" points="50.721,50.471 48.059,46.819 44.05,54.102 48.619,54.102 	"/>
	<polygon class="st2" points="44.102,60.521 44.102,55.872 47.007,55.872 47.007,56.659 44.901,56.659 44.901,57.684 46.853,57.684 
		46.853,58.469 44.901,58.469 44.901,59.734 47.081,59.734 47.081,60.521 	"/>
	<path class="st2" d="M49.887,55.872h0.799v2.533c0,0.401,0.011,0.664,0.031,0.781c0.033,0.193,0.114,0.347,0.239,0.463
		c0.129,0.116,0.301,0.174,0.522,0.174c0.224,0,0.393-0.054,0.505-0.165c0.114-0.108,0.182-0.244,0.206-0.403
		c0.022-0.161,0.033-0.425,0.033-0.794v-2.589h0.799v2.446c0,0.56-0.02,0.953-0.062,1.186c-0.044,0.23-0.123,0.423-0.239,0.582
		c-0.116,0.159-0.27,0.286-0.463,0.38c-0.193,0.094-0.443,0.141-0.755,0.141c-0.377,0-0.66-0.051-0.856-0.152
		c-0.193-0.105-0.347-0.237-0.458-0.401c-0.112-0.165-0.186-0.336-0.224-0.517c-0.051-0.268-0.077-0.658-0.077-1.181V55.872z"/>
	<polygon class="st2" points="55.977,60.521 55.977,55.872 56.749,55.872 58.359,58.977 58.359,55.872 59.096,55.872 59.096,60.521 
		58.298,60.521 56.714,57.462 56.714,60.521 	"/>
	<path class="st2" d="M61.849,59.024l0.753-0.089c0.048,0.302,0.143,0.522,0.287,0.664c0.143,0.141,0.336,0.213,0.579,0.213
		c0.257,0,0.452-0.065,0.581-0.192c0.132-0.127,0.197-0.273,0.197-0.443c0-0.108-0.029-0.201-0.083-0.277
		c-0.053-0.078-0.147-0.141-0.281-0.201c-0.092-0.038-0.303-0.107-0.632-0.208c-0.421-0.125-0.717-0.28-0.888-0.463
		c-0.239-0.257-0.357-0.571-0.357-0.94c0-0.239,0.055-0.461,0.169-0.667c0.114-0.21,0.277-0.365,0.489-0.474
		c0.213-0.11,0.469-0.165,0.772-0.165c0.491,0,0.862,0.128,1.11,0.383c0.25,0.257,0.38,0.595,0.393,1.021l-0.801,0.04
		c-0.031-0.241-0.105-0.41-0.215-0.515c-0.112-0.105-0.281-0.157-0.5-0.157c-0.232,0-0.41,0.058-0.54,0.17
		c-0.086,0.071-0.125,0.168-0.125,0.288c0,0.112,0.037,0.206,0.116,0.284c0.101,0.099,0.342,0.204,0.728,0.315
		c0.384,0.108,0.669,0.223,0.853,0.338c0.186,0.116,0.329,0.275,0.432,0.474c0.105,0.203,0.158,0.45,0.158,0.743
		c0,0.266-0.062,0.519-0.189,0.752c-0.125,0.233-0.303,0.405-0.531,0.519c-0.228,0.114-0.514,0.17-0.853,0.17
		c-0.498,0-0.88-0.134-1.145-0.405C62.062,59.933,61.902,59.543,61.849,59.024"/>
	<path class="st2" d="M71.179,60.519h-0.86l-0.338-1.051H68.41l-0.322,1.051h-0.856l1.512-4.647h0.86L71.179,60.519z M69.729,58.684
		l-0.555-1.723l-0.527,1.723H69.729z"/>
	<polygon class="st2" points="73.531,60.521 73.531,55.872 74.303,55.872 75.913,58.977 75.913,55.872 76.65,55.872 76.65,60.521 
		75.854,60.521 74.268,57.462 74.268,60.521 	"/>
	<path class="st2" d="M86.614,49.065h16.348v3.007H86.614V49.065z M99.616,39.062c1.152,0.967,1.729,2.148,1.729,3.544
		c0,1.378-0.577,2.553-1.729,3.529c-1.152,0.978-2.762,1.465-4.828,1.465c-2.058,0-3.664-0.483-4.822-1.45
		c-1.158-0.969-1.735-2.159-1.735-3.569c0-1.325,0.577-2.486,1.735-3.481c1.158-0.993,2.764-1.49,4.822-1.49
		C96.854,37.61,98.464,38.095,99.616,39.062 M88.601,60.257v-6.799h2.582v3.792h10.271v3.007H88.601z M92.028,44.071
		c0.676,0.436,1.595,0.653,2.76,0.653c1.136,0,2.051-0.217,2.738-0.653c0.689-0.436,1.031-0.924,1.031-1.465
		c0-0.593-0.342-1.107-1.031-1.544c-0.687-0.434-1.601-0.653-2.738-0.653c-1.128,0-2.038,0.213-2.733,0.64
		c-0.691,0.429-1.038,0.92-1.038,1.477C91.016,43.12,91.352,43.635,92.028,44.071"/>
	<path class="st2" d="M112.839,51.104c-0.691-0.418-1.404-0.996-2.134-1.739c-0.731-0.739-1.351-1.616-1.858-2.627
		c-0.397,1.011-0.937,1.935-1.625,2.772c-0.687,0.837-1.413,1.542-2.18,2.117l-1.786-2.379c1.093-0.662,2.075-1.687,2.953-3.072
		c0.882-1.385,1.321-3.003,1.321-4.851v-3.007h2.654v3.007c0,1.848,0.452,3.405,1.349,4.669c0.897,1.264,1.834,2.114,2.814,2.549
		L112.839,51.104z M106.414,60.257v-7.216h2.507v4.209h9.751v3.007H106.414z M118.135,47.522V54.4h-2.49V37.768h2.49v6.721h2.154
		v3.034H118.135z"/>
	<path class="st2" d="M120.234,43.416h8.525v2.904h-8.525V43.416z M127.357,56.06c-0.763,0.88-1.713,1.32-2.852,1.32
		c-1.016,0-1.933-0.43-2.749-1.293c-0.816-0.864-1.226-2.079-1.226-3.649c0-1.499,0.406-2.69,1.215-3.569
		c0.812-0.881,1.731-1.322,2.76-1.322c1.125,0,2.075,0.445,2.843,1.334c0.766,0.89,1.152,2.076,1.152,3.557
		C128.5,53.974,128.116,55.18,127.357,56.06 M122.11,39.207h4.716v2.799h-4.716V39.207z M123.371,54.061
		c0.323,0.349,0.7,0.522,1.134,0.522c0.472,0,0.858-0.179,1.16-0.535c0.303-0.358,0.456-0.886,0.456-1.584
		c0-0.678-0.149-1.202-0.447-1.57c-0.296-0.365-0.687-0.548-1.169-0.548c-0.445,0-0.827,0.183-1.143,0.548
		c-0.316,0.367-0.474,0.9-0.474,1.597C122.889,53.189,123.051,53.712,123.371,54.061 M133.273,60.781V49.98h-1.321v9.755h-2.378
		V38.29h2.378v7.976h1.321v-8.498h2.376v23.014H133.273z"/>
	<path class="st2" d="M146.385,51.994v4.054h-2.582v-4.054h-7.04V48.96h16.345v3.034H146.385z M149.766,39.05
		c1.152,0.976,1.729,2.153,1.729,3.531c0,1.376-0.577,2.557-1.729,3.542c-1.152,0.985-2.762,1.477-4.828,1.477
		c-2.055,0-3.661-0.486-4.822-1.465c-1.156-0.976-1.735-2.161-1.735-3.555c0-1.325,0.579-2.49,1.735-3.493
		c1.16-1.002,2.766-1.503,4.822-1.503C147.004,37.585,148.614,38.073,149.766,39.05 M138.734,60.257v-6.564h2.58v3.557h10.308v3.007
		H138.734z M142.189,44.044c0.68,0.436,1.597,0.655,2.749,0.655c1.138,0,2.049-0.219,2.731-0.655c0.68-0.436,1.02-0.924,1.02-1.463
		c0-0.593-0.34-1.103-1.02-1.532c-0.682-0.427-1.593-0.64-2.731-0.64c-1.125,0-2.038,0.213-2.731,0.64
		c-0.693,0.429-1.04,0.911-1.04,1.452C141.166,43.094,141.507,43.608,142.189,44.044"/>
	<path class="st2" d="M153.87,41.114h10.365v2.537H153.87V41.114z M162.507,50.49c-0.853,0.691-2.005,1.034-3.453,1.034
		c-1.349,0-2.483-0.349-3.398-1.047c-0.919-0.696-1.375-1.551-1.375-2.562c0-1.029,0.452-1.873,1.364-2.537
		c0.91-0.664,2.06-0.994,3.446-0.994c1.437,0,2.58,0.327,3.427,0.982c0.849,0.653,1.272,1.493,1.272,2.524
		C163.79,48.934,163.362,49.802,162.507,50.49 M166.613,59.854c-1.114,0.844-2.674,1.268-4.681,1.268
		c-1.944,0-3.49-0.445-4.633-1.334c-1.147-0.89-1.72-1.962-1.72-3.217c0-1.273,0.577-2.309,1.729-3.112
		c1.152-0.803,2.712-1.202,4.679-1.202c1.996,0,3.543,0.423,4.644,1.267c1.101,0.846,1.654,1.897,1.654,3.152
		C168.285,57.948,167.728,59.008,166.613,59.854 M156.268,37.56h5.555v2.508h-5.555V37.56z M160.624,47
		c-0.369-0.21-0.877-0.315-1.533-0.315c-0.669,0-1.198,0.108-1.588,0.325c-0.39,0.221-0.586,0.521-0.586,0.904
		c0,0.383,0.195,0.684,0.586,0.902c0.391,0.217,0.919,0.327,1.588,0.327c0.656,0,1.165-0.114,1.533-0.34
		c0.364-0.228,0.546-0.532,0.546-0.915C161.171,47.504,160.989,47.208,160.624,47 M164.413,55.315
		c-0.665-0.315-1.49-0.47-2.481-0.47c-1.027,0-1.875,0.152-2.545,0.456c-0.669,0.305-1.003,0.738-1.003,1.296
		c0,0.539,0.336,0.98,1.011,1.32c0.676,0.34,1.533,0.51,2.573,0.51c0.979,0,1.797-0.166,2.453-0.495
		c0.656-0.333,0.985-0.768,0.985-1.309C165.407,56.066,165.073,55.628,164.413,55.315 M167.932,46.45v5.386h-2.47V37.768h2.47v5.649
		h2.174v3.034H167.932z"/>
	<path class="st2" d="M170.195,50.347V47.34h5.816v-3.636h2.599v3.636h7.93v3.007H170.195z M183.292,59.709
		c-1.127,0.906-2.768,1.36-4.923,1.36c-2.143,0-3.78-0.454-4.914-1.36c-1.134-0.908-1.698-2.058-1.698-3.452
		c0-1.396,0.564-2.533,1.691-3.414c1.125-0.881,2.76-1.32,4.901-1.32c2.156,0,3.799,0.439,4.934,1.32
		c1.13,0.88,1.698,2.018,1.698,3.414C184.981,57.651,184.417,58.801,183.292,59.709 M184.507,43.391
		c-0.29,1.761-0.441,2.667-0.454,2.719h-2.49c0.011-0.069,0.094-0.611,0.252-1.62c0.153-1.012,0.268-2.023,0.342-3.034h-10.233
		v-3.009h13.02C184.944,39.983,184.799,41.63,184.507,43.391 M181.146,54.753c-0.673-0.34-1.601-0.51-2.777-0.51
		c-1.187,0-2.117,0.17-2.786,0.51c-0.669,0.34-1.003,0.832-1.003,1.477c0,0.732,0.333,1.264,1.003,1.595
		c0.669,0.333,1.599,0.497,2.786,0.497c1.176,0,2.104-0.164,2.777-0.497c0.673-0.331,1.011-0.862,1.011-1.595
		C182.158,55.585,181.82,55.093,181.146,54.753"/>
	<path class="st2" d="M191.637,60.638c-0.531-1.119-1.101-2.519-1.711-4.191c-0.612-1.674-0.915-3.676-0.915-6.008
		c0-2.316,0.303-4.314,0.915-5.996c0.61-1.682,1.18-3.074,1.711-4.18h1.465c-0.788,1.899-1.349,3.679-1.687,5.347
		c-0.34,1.665-0.511,3.276-0.511,4.829c0,1.555,0.171,3.166,0.511,4.831c0.338,1.667,0.899,3.455,1.687,5.368H191.637z"/>
	<path class="st2" d="M201.778,53.914v6.343h-2.15v-6.343h-5.938v-2.578h14.011v2.578H201.778z M205.63,49.924
		c-0.827-0.253-1.685-0.656-2.571-1.21c-0.886-0.553-1.667-1.329-2.347-2.331c-0.351,0.777-1.003,1.501-1.959,2.173
		c-0.954,0.673-1.944,1.136-2.961,1.39l-1.242-2.152c1.009-0.21,2.04-0.694,3.095-1.457c1.057-0.763,1.669-1.606,1.84-2.533h-4.236
		V41.25h10.889v2.555h-4.203c0.277,1.031,0.948,1.9,2.016,2.611c1.064,0.711,2.038,1.17,2.92,1.38L205.63,49.924z"/>
	<path class="st2" d="M209.833,55.27c0.34-1.665,0.509-3.276,0.509-4.831c0-1.553-0.169-3.162-0.509-4.829
		c-0.34-1.667-0.906-3.448-1.702-5.347h1.479c0.531,1.107,1.101,2.499,1.705,4.18c0.606,1.683,0.908,3.681,0.908,5.996
		c0,2.333-0.303,4.334-0.908,6.008c-0.603,1.673-1.173,3.072-1.705,4.191h-1.479C208.927,58.725,209.493,56.937,209.833,55.27"/>
</g>
</svg>
