<?xml version="1.0" encoding="utf-8"?>
<!-- Generator: Adobe Illustrator 25.0.1, SVG Export Plug-In . SVG Version: 6.00 Build 0)  -->
<!DOCTYPE svg PUBLIC "-//W3C//DTD SVG 1.1//EN" "http://www.w3.org/Graphics/SVG/1.1/DTD/svg11.dtd" [
	<!ENTITY ns_extend "http://ns.adobe.com/Extensibility/1.0/">
	<!ENTITY ns_ai "http://ns.adobe.com/AdobeIllustrator/10.0/">
	<!ENTITY ns_graphs "http://ns.adobe.com/Graphs/1.0/">
	<!ENTITY ns_vars "http://ns.adobe.com/Variables/1.0/">
	<!ENTITY ns_imrep "http://ns.adobe.com/ImageReplacement/1.0/">
	<!ENTITY ns_sfw "http://ns.adobe.com/SaveForWeb/1.0/">
	<!ENTITY ns_custom "http://ns.adobe.com/GenericCustomNamespace/1.0/">
	<!ENTITY ns_adobe_xpath "http://ns.adobe.com/XPath/1.0/">
]>
<svg version="1.1" id="Layer_1" xmlns:x="&ns_extend;" xmlns:i="&ns_ai;" xmlns:graph="&ns_graphs;"
	 xmlns="http://www.w3.org/2000/svg" xmlns:xlink="http://www.w3.org/1999/xlink" x="0px" y="0px" viewBox="0 0 250 100"
	 style="enable-background:new 0 0 250 100;" xml:space="preserve">
<style type="text/css">
	.st0{fill:#075A6F;}
	.st1{fill:url(#SVGID_1_);}
	.st2{fill:url(#SVGID_2_);}
	.st3{fill:#008639;}
</style>
<metadata>
	<sfw  xmlns="&ns_sfw;">
		<slices></slices>
		<sliceSourceBounds  bottomLeftOrigin="true" height="49.2" width="122.3" x="63.9" y="32.7"></sliceSourceBounds>
	</sfw>
</metadata>
<g>
	<g>
		<polygon class="st0" points="136.1,50.5 136.1,48 132.7,48 132.7,45.7 129.3,45.7 129.3,57.5 132.7,57.5 132.7,54.7 136.1,54.7 
			136.1,52.1 132.7,52.1 132.7,50.5 		"/>
		<path class="st0" d="M126.2,51.2c0-1.5-0.7-2.8-2-3.9c-1.3-1.1-2.9-1.6-5-1.6c-2.1,0-3.7,0.5-5,1.6c-1.3,1.1-2,2.4-2,3.9
			c0,1.5,0.7,2.8,2,3.9c1.3,1,2.9,1.6,5,1.6c2.1,0,3.7-0.5,5-1.6C125.5,54,126.2,52.7,126.2,51.2z M121.8,53.3
			c-0.7,0.6-1.6,0.9-2.5,0.9s-1.8-0.3-2.5-0.9c-0.7-0.6-1-1.3-1-2.1c0-0.8,0.3-1.5,1-2.1c0.7-0.6,1.5-0.9,2.5-0.9
			c1,0,1.8,0.3,2.5,0.9c0.7,0.6,1,1.3,1,2.1C122.8,52,122.5,52.7,121.8,53.3z"/>
		<path class="st0" d="M130.8,59c-1.6-0.9-3.9-1.4-6.8-1.4s-5.3,0.5-6.8,1.4c-1.6,0.9-2.4,2.1-2.4,3.5c0,1.4,0.8,2.6,2.4,3.5
			c1.6,0.9,3.9,1.3,6.8,1.3s5.3-0.4,6.8-1.3c1.6-0.9,2.4-2.1,2.4-3.5C133.2,61.1,132.4,59.9,130.8,59z M119.8,60.9
			c1.1-0.4,2.5-0.6,4.2-0.6c1.7,0,3.1,0.2,4.2,0.6c1,0.4,1.6,0.9,1.6,1.6s-0.5,1.2-1.6,1.6c-1.1,0.4-2.5,0.7-4.1,0.7
			c-1.7,0-3.1-0.2-4.1-0.7c-1-0.4-1.6-1-1.6-1.6S118.7,61.3,119.8,60.9z"/>
	</g>
	<g>
		<rect x="82.1" y="45.7" class="st0" width="3.4" height="13.4"/>
		<path class="st0" d="M80.3,55.7c-0.8-0.4-1.6-0.8-2.4-1.3c-0.9-0.6-1.6-1.2-2.2-1.8c-0.8-0.8-1.3-1.5-1.5-2.2
			c-0.2-0.8-0.4-1.6-0.4-2.5v-2.4h-1.7h-1.7v2.4c0,0.8-0.1,1.7-0.4,2.5c-0.2,0.6-0.7,1.3-1.5,2.2c-0.5,0.6-1.3,1.2-2.2,1.8
			c-0.7,0.5-1.5,0.9-2.4,1.3l-0.2,0.1l2.4,2.1l0.1,0c0.5-0.2,1.1-0.5,1.7-0.9c0.6-0.4,1.3-0.8,1.9-1.3c0.6-0.5,1.1-0.9,1.4-1.4
			c0.3-0.4,0.6-0.7,0.9-1.1c0.2,0.4,0.5,0.7,0.9,1.1c0.4,0.4,0.9,0.9,1.4,1.4c0.6,0.5,1.2,0.9,1.9,1.3c0.6,0.4,1.2,0.7,1.7,0.9
			l0.1,0l2.4-2.1L80.3,55.7z"/>
		<polygon class="st0" points="69.9,64.4 69.9,59.5 66.4,59.5 66.4,64.5 66.4,67 69.3,67 70.1,67 85.5,67 85.5,64.4 		"/>
	</g>
	<polygon class="st0" points="142.6,64.4 142.6,58.7 139.4,58.7 139.2,58.7 139.2,64.5 139.2,67 142,67 158.1,67 158.1,64.4 	"/>
	<g>
		<polygon class="st0" points="177.5,56.6 180.8,56.6 180.8,45.7 177.5,45.7 177.5,48.6 172.8,48.6 172.8,51.4 177.5,51.4 		"/>
		<path class="st0" d="M175.5,54.2c-0.8-0.4-1.6-0.8-2.3-1.2c-0.8-0.5-1.5-1.1-2.1-1.7c-0.8-0.8-1.3-1.5-1.4-2.1
			c-0.2-0.8-0.4-1.6-0.4-2.4v-1.1h-1.7H166v1.1c0,0.8-0.1,1.6-0.4,2.4c-0.2,0.6-0.7,1.3-1.4,2.1c-0.6,0.6-1.3,1.2-2.1,1.7
			c-0.7,0.5-1.5,0.9-2.3,1.2l-0.2,0.1l2.3,2.1l0.1,0c0.5-0.2,1-0.5,1.6-0.9c0.6-0.4,1.2-0.8,1.8-1.3c0.5-0.5,1-0.9,1.4-1.3
			c0.3-0.3,0.6-0.7,0.8-1c0.2,0.3,0.5,0.7,0.8,1c0.4,0.4,0.9,0.9,1.4,1.3c0.6,0.5,1.2,0.9,1.8,1.3c0.6,0.4,1.2,0.7,1.6,0.9l0.1,0
			l2.3-2.1L175.5,54.2z"/>
		<polygon class="st0" points="180.8,63.5 180.8,57.4 163.4,57.4 163.4,59.9 177.4,59.9 177.4,60.9 163.4,60.9 163.4,62.7 
			163.4,64.5 163.4,67 166.2,67 180.8,67 180.8,64.5 166.7,64.5 166.7,63.5 		"/>
	</g>
	<path class="st0" d="M106.3,45.7v6.5h-1.5v-6.5h-3.4v11.7c-0.1,0.1-0.2,0.2-0.4,0.3c-0.2,0.1-0.5,0.3-1,0.6c-0.4,0.2-1,0.4-1.7,0.6
		c-0.7,0.2-1.4,0.2-2.2,0.2h-3.8v-4.4v-2.3l2.4,2.3h4.6v-2.6h-7v-3.9h7v-2.6H89v13.4v2.5h7.1c0.7,0,1.4-0.1,2-0.2
		c0.6-0.1,1.2-0.2,1.5-0.4c0.4-0.2,0.7-0.3,1.1-0.5c0.3-0.2,0.5-0.3,0.7-0.5c0,0,0,0,0,0v7h3.4V54.9h1.5V67h3.4V45.7H106.3z"/>
	<polygon class="st0" points="154.7,45.7 154.7,50.2 149.6,50.2 149.6,45.7 146.7,45.7 137.7,45.7 137.7,45.7 137.7,48.2 
		146.2,48.2 146.2,57.9 149.6,57.9 149.6,50.5 152,52.9 154.7,52.9 154.7,58.7 158.1,58.7 158.1,45.7 	"/>
	<path class="st0" d="M186.1,34.4c-11.6,9.6-26.7,9.6-38.3,0c1.4-1.5,2.8-3,4.1-4.6c9.2,7.5,20.8,7.5,30,0
		C183.4,31.4,184.8,32.9,186.1,34.4z"/>
	
		<radialGradient id="SVGID_1_" cx="195.55" cy="-175.9439" r="877.0314" gradientTransform="matrix(0.8844 0 0 -0.912 375.5495 296.3617)" gradientUnits="userSpaceOnUse">
		<stop  offset="0.2151" style="stop-color:#ADD036"/>
		<stop  offset="0.9946" style="stop-color:#50B748"/>
	</radialGradient>
	<path class="st1" d="M147.9,25.3c11.6-9.6,26.7-9.6,38.3,0c-1.4,1.5-2.8,3-4.1,4.6c-9.2-7.5-20.8-7.5-30,0
		C150.6,28.3,149.3,26.8,147.9,25.3z"/>
	
		<radialGradient id="SVGID_2_" cx="195.5571" cy="-175.9673" r="877.0607" gradientTransform="matrix(0.8844 0 0 -0.912 375.5495 296.3617)" gradientUnits="userSpaceOnUse">
		<stop  offset="0.2151" style="stop-color:#ADD036"/>
		<stop  offset="0.9946" style="stop-color:#50B748"/>
	</radialGradient>
	<path class="st2" d="M177.4,20.1c-9.8-3.9-20.7-2.1-29.6,5.2c1.4,1.5,2.8,3,4.1,4.6c1.4-1.1,2.8-2.1,4.3-2.9
		C162.7,21.8,170.1,19.5,177.4,20.1z"/>
	<path class="st3" d="M176,26.2c2.1,0.9,4.1,2.1,6,3.7c0.6-0.7,1.2-1.3,1.8-1.9C181.3,26.9,178.6,26.3,176,26.2z"/>
	<g>
		<g>
			<path class="st0" d="M71.3,38.6c-0.2-0.1-0.4-0.3-0.6-0.4c-0.2-0.1-0.5-0.2-0.7-0.2l-0.7-0.2c-0.2-0.1-0.4-0.1-0.6-0.2
				c-0.2-0.1-0.3-0.2-0.4-0.3c-0.1-0.1-0.1-0.2-0.1-0.4c0-0.1,0-0.2,0.1-0.3c0.1-0.1,0.1-0.2,0.2-0.2c0.1-0.1,0.2-0.1,0.3-0.1
				c0.1,0,0.2,0,0.4,0c0.4,0,0.7,0.1,0.9,0.2c0.2,0.1,0.3,0.4,0.3,0.7l0,0.1h1.3v-0.1c0-0.4-0.1-0.7-0.2-0.9
				c-0.1-0.3-0.3-0.5-0.6-0.6c-0.2-0.2-0.5-0.3-0.8-0.4c-0.5-0.1-1.2-0.2-1.8,0c-0.3,0.1-0.5,0.2-0.7,0.4c-0.2,0.2-0.4,0.4-0.5,0.6
				c-0.1,0.3-0.2,0.6-0.2,0.9c0,0.3,0.1,0.6,0.2,0.8c0.1,0.2,0.3,0.4,0.5,0.5c0.2,0.1,0.4,0.3,0.7,0.3c0.3,0.1,0.5,0.2,0.9,0.2
				c0.2,0.1,0.4,0.1,0.6,0.2c0.2,0.1,0.3,0.1,0.5,0.2c0.1,0.1,0.2,0.2,0.3,0.3c0.1,0.1,0.1,0.2,0.1,0.4c0,0.2,0,0.3-0.1,0.4
				c-0.1,0.1-0.2,0.2-0.3,0.2c-0.1,0.1-0.3,0.1-0.4,0.1c-0.4,0.1-0.7,0-1,0c-0.2,0-0.3-0.1-0.4-0.2c-0.1-0.1-0.2-0.2-0.3-0.3
				c-0.1-0.1-0.1-0.3-0.1-0.5v-0.1h-1.3v0.1c0,0.4,0.1,0.7,0.2,1c0.1,0.3,0.3,0.5,0.6,0.7c0.2,0.2,0.5,0.3,0.8,0.4
				c0.3,0.1,0.7,0.1,1,0.1c0.4,0,0.7,0,1-0.1c0.3-0.1,0.6-0.2,0.8-0.4c0.2-0.2,0.4-0.4,0.6-0.7c0.1-0.3,0.2-0.6,0.2-1
				c0-0.3-0.1-0.5-0.2-0.7C71.6,39,71.4,38.8,71.3,38.6z"/>
			<rect x="79.3" y="35.3" class="st0" width="1.3" height="6.6"/>
			<polygon class="st0" points="86,39.7 83.4,35.3 82.1,35.3 82.1,41.8 83.3,41.8 83.3,37.4 86,41.8 87.3,41.8 87.3,35.3 86,35.3 
							"/>
			<polygon class="st0" points="88.3,36.5 90.1,36.5 90.1,41.8 91.5,41.8 91.5,36.5 93.3,36.5 93.3,35.3 88.3,35.3 			"/>
			<path class="st0" d="M96,35.3l-2.4,6.6h1.4l0.5-1.5h2.3l0.5,1.5h1.4l-2.3-6.6H96z M97.5,39.3H96l0.8-2.3L97.5,39.3z"/>
			<polygon class="st0" points="102,39 105,39 105,37.9 102,37.9 102,36.5 105.2,36.5 105.2,35.3 100.6,35.3 100.6,41.8 105.3,41.8 
				105.3,40.6 102,40.6 			"/>
			<polygon class="st0" points="109.1,37.9 107.6,35.3 106.1,35.3 108.4,39.3 108.4,41.8 109.7,41.8 109.7,39.3 112,35.3 
				110.5,35.3 			"/>
			<path class="st0" d="M114.3,35.3l-2.4,6.6h1.4l0.5-1.5h2.3l0.5,1.5h1.4l-2.3-6.6H114.3z M115.7,39.3h-1.5l0.8-2.3L115.7,39.3z"/>
			<polygon class="st0" points="122.8,39.7 120.2,35.3 118.9,35.3 118.9,41.8 120.1,41.8 120.1,37.4 122.8,41.8 124.1,41.8 
				124.1,35.3 122.8,35.3 			"/>
			<path class="st0" d="M128.4,38.3v1.1h1.4v0c0,0.4-0.2,0.8-0.4,1c-0.3,0.2-0.6,0.4-1.1,0.4c-0.3,0-0.6-0.1-0.8-0.2
				c-0.2-0.1-0.4-0.3-0.5-0.5c-0.1-0.2-0.2-0.4-0.3-0.7c-0.1-0.3-0.1-0.5-0.1-0.8c0-0.3,0-0.6,0.1-0.9c0.1-0.3,0.2-0.5,0.3-0.7
				c0.1-0.2,0.3-0.4,0.5-0.5c0.2-0.1,0.5-0.2,0.8-0.2c0.4,0,0.7,0.1,0.9,0.3c0.2,0.2,0.4,0.4,0.4,0.7l0,0.1h1.3l0-0.1
				c0-0.3-0.1-0.6-0.3-0.9c-0.2-0.3-0.3-0.5-0.6-0.7s-0.5-0.4-0.8-0.5c-0.3-0.1-0.6-0.2-0.9-0.2c-0.5,0-0.9,0.1-1.3,0.3
				s-0.7,0.4-1,0.7c-0.3,0.3-0.5,0.7-0.6,1.1c-0.1,0.4-0.2,0.9-0.2,1.4c0,0.5,0.1,0.9,0.2,1.3c0.1,0.4,0.3,0.8,0.6,1.1
				c0.3,0.3,0.6,0.6,1,0.7s0.8,0.3,1.3,0.3c0.7,0,1.4-0.2,1.9-0.7c0.5-0.5,0.8-1.2,0.8-2.1v-1L128.4,38.3L128.4,38.3z"/>
		</g>
		<polygon class="st0" points="76.6,35.3 76.6,37.8 73.9,37.8 73.9,35.3 72.6,35.3 72.6,41.8 73.9,41.8 73.9,39 76.6,39 76.6,41.8 
			77.9,41.8 77.9,35.3 		"/>
	</g>
</g>
</svg>
