<?xml version="1.0" encoding="utf-8"?>
<!-- Generator: Adobe Illustrator 25.0.1, SVG Export Plug-In . SVG Version: 6.00 Build 0)  -->
<!DOCTYPE svg PUBLIC "-//W3C//DTD SVG 1.1//EN" "http://www.w3.org/Graphics/SVG/1.1/DTD/svg11.dtd" [
	<!ENTITY ns_extend "http://ns.adobe.com/Extensibility/1.0/">
	<!ENTITY ns_ai "http://ns.adobe.com/AdobeIllustrator/10.0/">
	<!ENTITY ns_graphs "http://ns.adobe.com/Graphs/1.0/">
	<!ENTITY ns_vars "http://ns.adobe.com/Variables/1.0/">
	<!ENTITY ns_imrep "http://ns.adobe.com/ImageReplacement/1.0/">
	<!ENTITY ns_sfw "http://ns.adobe.com/SaveForWeb/1.0/">
	<!ENTITY ns_custom "http://ns.adobe.com/GenericCustomNamespace/1.0/">
	<!ENTITY ns_adobe_xpath "http://ns.adobe.com/XPath/1.0/">
]>
<svg version="1.1" id="Layer_1" xmlns:x="&ns_extend;" xmlns:i="&ns_ai;" xmlns:graph="&ns_graphs;"
	 xmlns="http://www.w3.org/2000/svg" xmlns:xlink="http://www.w3.org/1999/xlink" x="0px" y="0px" viewBox="0 0 250 100"
	 style="enable-background:new 0 0 250 100;" xml:space="preserve">
<style type="text/css">
	.st0{fill:url(#SVGID_1_);}
	.st1{fill:url(#SVGID_2_);}
	.st2{fill:url(#SVGID_3_);}
	.st3{fill:url(#SVGID_4_);}
	.st4{fill:url(#SVGID_5_);}
	.st5{fill:#575253;}
</style>
<metadata>
	<sfw  xmlns="&ns_sfw;">
		<slices></slices>
		<sliceSourceBounds  bottomLeftOrigin="true" height="42" width="164.6" x="42.7" y="30.5"></sliceSourceBounds>
	</sfw>
</metadata>
<g>
	<g>
		<g>
			<g>
				<g>
					<linearGradient id="SVGID_1_" gradientUnits="userSpaceOnUse" x1="43.8829" y1="73.1676" x2="85.315" y2="62.7372">
						<stop  offset="0.25" style="stop-color:#0086CB"/>
						<stop  offset="0.8" style="stop-color:#662482"/>
					</linearGradient>
					<polygon class="st0" points="42.7,69.5 74.2,69.5 84.7,59 					"/>
					<g>
						<linearGradient id="SVGID_2_" gradientUnits="userSpaceOnUse" x1="41.1888" y1="33.2487" x2="72.654" y2="22.8762">
							<stop  offset="0.2" style="stop-color:#E5007E"/>
							<stop  offset="0.5326" style="stop-color:#A71280"/>
							<stop  offset="0.9" style="stop-color:#662482"/>
						</linearGradient>
						<polygon class="st1" points="42.7,27.5 42.7,38 74.2,27.5 						"/>
						<g>
							<linearGradient id="SVGID_3_" gradientUnits="userSpaceOnUse" x1="42.9" y1="39.75" x2="84.6797" y2="39.75">
								<stop  offset="0.1" style="stop-color:#EC6EA5"/>
								<stop  offset="0.2052" style="stop-color:#EB5C9F"/>
								<stop  offset="0.6097" style="stop-color:#E71A87"/>
								<stop  offset="0.8" style="stop-color:#E5007E"/>
							</linearGradient>
							<polygon class="st2" points="70.7,52 84.7,38 74.2,27.5 42.7,38 70.7,52 							"/>
							<linearGradient id="SVGID_4_" gradientUnits="userSpaceOnUse" x1="39.3123" y1="63.6294" x2="67.2427" y2="46.3033">
								<stop  offset="0" style="stop-color:#662482"/>
								<stop  offset="0.5" style="stop-color:#E5007E"/>
								<stop  offset="0.5796" style="stop-color:#E50680"/>
								<stop  offset="0.6854" style="stop-color:#E61786"/>
								<stop  offset="0.8061" style="stop-color:#E83290"/>
								<stop  offset="0.9368" style="stop-color:#EB599D"/>
								<stop  offset="1" style="stop-color:#EC6EA5"/>
							</linearGradient>
							<polygon class="st3" points="42.7,38 42.7,69.5 84.7,59 							"/>
						</g>
					</g>
				</g>
			</g>
			<linearGradient id="SVGID_5_" gradientUnits="userSpaceOnUse" x1="58.9778" y1="54.409" x2="62.188" y2="43.2576">
				<stop  offset="0.15" style="stop-color:#868686"/>
				<stop  offset="1" style="stop-color:#868686;stop-opacity:0"/>
			</linearGradient>
			<polygon class="st4" points="74.2,27.5 42.7,38 70.7,52 84.7,38 			"/>
		</g>
		<g>
			<g>
				<path class="st5" d="M110.4,47.6V35.9h-2.9v3.6H97.2v-3.6h-2.9V46l1.7,1.7H110.4z M97.2,42h10.3v3H97.2V42z"/>
				<polygon class="st5" points="90.8,52.3 100.9,52.3 100.9,58.9 103.8,58.9 103.8,52.3 113.8,52.3 113.8,49.8 90.8,49.8 				"/>
				<polygon class="st5" points="134.4,35.9 131.5,35.9 131.5,53.1 134.4,53.1 134.4,44.4 137.8,44.4 137.8,41.9 134.4,41.9 				"/>
				<polygon class="st5" points="121.7,50.9 118.8,50.9 118.8,57.2 120.4,58.9 135,58.9 135,56.3 121.7,56.3 				"/>
				<polygon class="st5" points="159.3,35.9 156.4,35.9 156.4,46 147.7,46 147.7,41.5 144.7,41.5 144.7,46 139.5,46 139.5,48.5 
					156.4,48.5 156.4,49.8 159.3,49.8 159.3,43.9 162.7,43.9 162.7,41.3 159.3,41.3 				"/>
				<polygon class="st5" points="167.5,50.6 167.5,53.2 181.5,53.2 181.5,58.9 184.5,58.9 184.5,52.3 182.8,50.6 				"/>
				<rect x="204.4" y="35.9" class="st5" width="2.9" height="23"/>
				<polygon class="st5" points="150.9,44.9 153.8,44.9 153.8,38.4 152.2,36.7 141,36.7 141,39.3 150.9,39.3 				"/>
				<path class="st5" d="M151.1,49.9c-5.4,0-8.7,1.6-8.7,4.7c0,3.1,3.3,4.7,8.7,4.7c5.4,0,8.7-1.6,8.7-4.7
					C159.8,51.6,156.5,49.9,151.1,49.9z M151.1,56.9c-3.6,0-5.7-0.8-5.7-2.2c0-1.4,2.2-2.2,5.8-2.2c3.6,0,5.7,0.8,5.7,2.2
					C156.8,56.1,154.7,56.9,151.1,56.9z"/>
				<path class="st5" d="M176.3,46.4h5.3v3.5h2.9v-14h-2.9v2.7h-5.4c-1.1-1.4-2.9-2.3-5.1-2.3c-3.7,0-6.4,2.6-6.4,6.3
					c0,3.6,2.7,6.3,6.4,6.3C173.3,48.8,175.1,47.9,176.3,46.4z M181.5,41.1v2.8h-4.2c0.1-0.4,0.1-0.9,0.1-1.4c0-0.5-0.1-1-0.2-1.5
					H181.5z M167.6,42.6c0-2.1,1.5-3.6,3.5-3.6c2,0,3.5,1.5,3.5,3.6s-1.5,3.6-3.5,3.6C169.1,46.2,167.6,44.7,167.6,42.6z"/>
				<polygon class="st5" points="196.3,36.4 193.2,36.4 193.2,45.6 186.7,52.8 188.9,54.8 194.7,48.3 200.5,54.8 202.7,52.8 
					196.3,45.6 				"/>
				<polygon class="st5" points="128.8,49.4 130.7,47.2 124.2,41.6 124.2,36.4 121.1,36.4 121.1,41.6 114.6,47.2 116.5,49.4 
					122.6,44.2 				"/>
			</g>
		</g>
	</g>
	<g>
		<path class="st5" d="M93.1,63.6h3.7l0.8,0.8v1.7l-0.3,0.3l0.6,0.6v1.5L97,69.5h-3.9V63.6z M96.2,66.1l0.3-0.3v-0.9l-0.3-0.3h-2
			v1.5H96.2z M96.4,68.5l0.4-0.4v-0.8L96.4,67h-2.2v1.5H96.4z"/>
		<path class="st5" d="M98.8,68.5v-4.9h1.1v4.5l0.4,0.4h1.7l0.4-0.4v-4.5h1.1v4.9l-1,1h-2.8L98.8,68.5z"/>
		<path class="st5" d="M104.7,68.6v-0.8h1.1v0.5l0.3,0.3h1.7l0.3-0.3v-1l-0.3-0.3h-2.2l-0.9-0.9v-1.6l0.9-0.9h2.7l0.9,0.9v0.9H108
			v-0.5l-0.3-0.3h-1.7l-0.3,0.3v0.9l0.3,0.3h2.2l0.9,0.9v1.7l-0.9,0.9h-2.7L104.7,68.6z"/>
		<path class="st5" d="M111.7,63.6h1l2.2,5.9h-1.2l-0.5-1.3h-2.1l-0.5,1.3h-1.2L111.7,63.6z M113,67.2l-0.8-2.2h0l-0.8,2.2H113z"/>
		<path class="st5" d="M115.6,63.6h1l2.6,4h0v-4h1.1v5.9h-1l-2.6-4h0v4h-1.1V63.6z"/>
		<path class="st5" d="M123.9,63.6h1.1l1.8,3.8h0l1.8-3.8h1.1v5.9h-1.1v-3.6h0l-1.4,2.8h-0.7l-1.3-2.8h0v3.6h-1.1V63.6z"/>
		<path class="st5" d="M130.8,63.6h4.3v1h-3.1v1.5h2.9v1h-2.9v1.5h3.1v1h-4.3V63.6z"/>
		<path class="st5" d="M137.3,64.6h-1.8v-1h4.7v1h-1.8v4.9h-1.1V64.6z"/>
		<path class="st5" d="M145.6,67.5v2h-1.1v-1.7l-0.5-0.6h-1.8v2.3h-1.1v-5.9h3.7l0.9,0.9v1.8l-0.6,0.6L145.6,67.5z M142.1,66.3h2
			l0.3-0.3v-1.1l-0.3-0.3h-2V66.3z"/>
		<path class="st5" d="M146.6,68.5v-4l1-1h3l1,1v4l-1,1h-3L146.6,68.5z M150,68.5l0.4-0.4V65l-0.4-0.4h-1.8l-0.4,0.4v3.1l0.4,0.4
			H150z"/>
		<path class="st5" d="M152.7,63.6h3.7l0.9,0.9v2.1l-0.9,0.9h-2.5v2h-1.1V63.6z M155.9,66.5l0.3-0.3v-1.4l-0.3-0.3h-2v2H155.9z"/>
		<path class="st5" d="M158.1,68.5v-4l1-1h3l1,1v4l-1,1h-3L158.1,68.5z M161.5,68.5l0.4-0.4V65l-0.4-0.4h-1.8l-0.4,0.4v3.1l0.4,0.4
			H161.5z"/>
		<path class="st5" d="M164.2,63.6h1.1v4.9h2.9v1h-4.1V63.6z"/>
		<path class="st5" d="M169,63.6h1.1v5.9H169V63.6z"/>
		<path class="st5" d="M172.7,64.6H171v-1h4.7v1h-1.8v4.9h-1.1V64.6z"/>
		<path class="st5" d="M177.3,63.6h1l2.2,5.9h-1.2l-0.5-1.3h-2.1l-0.5,1.3h-1.2L177.3,63.6z M178.6,67.2l-0.8-2.2h0l-0.8,2.2H178.6z
			"/>
		<path class="st5" d="M181.2,63.6h1l2.6,4h0v-4h1.1v5.9h-1l-2.6-4h0v4h-1.1V63.6z"/>
		<path class="st5" d="M189.4,68.5v-4l1-1h2.9l1,1v0.9h-1.1V65l-0.4-0.4H191l-0.4,0.4v3.1l0.4,0.4h1.7l0.4-0.4v-0.5h1.1v0.9l-1,1
			h-2.9L189.4,68.5z"/>
		<path class="st5" d="M195.1,63.6h1.1v5.9h-1.1V63.6z"/>
		<path class="st5" d="M198.8,64.6h-1.8v-1h4.7v1H200v4.9h-1.1V64.6z"/>
		<path class="st5" d="M204.1,67.1l-2.1-3.5h1.3l1.4,2.4h0l1.4-2.4h1.3l-2.1,3.5v2.4h-1.1V67.1z"/>
	</g>
</g>
</svg>
