<?xml version="1.0" encoding="utf-8"?>
<!-- Generator: Adobe Illustrator 25.0.1, SVG Export Plug-In . SVG Version: 6.00 Build 0)  -->
<!DOCTYPE svg PUBLIC "-//W3C//DTD SVG 1.1//EN" "http://www.w3.org/Graphics/SVG/1.1/DTD/svg11.dtd" [
	<!ENTITY ns_extend "http://ns.adobe.com/Extensibility/1.0/">
	<!ENTITY ns_ai "http://ns.adobe.com/AdobeIllustrator/10.0/">
	<!ENTITY ns_graphs "http://ns.adobe.com/Graphs/1.0/">
	<!ENTITY ns_vars "http://ns.adobe.com/Variables/1.0/">
	<!ENTITY ns_imrep "http://ns.adobe.com/ImageReplacement/1.0/">
	<!ENTITY ns_sfw "http://ns.adobe.com/SaveForWeb/1.0/">
	<!ENTITY ns_custom "http://ns.adobe.com/GenericCustomNamespace/1.0/">
	<!ENTITY ns_adobe_xpath "http://ns.adobe.com/XPath/1.0/">
]>
<svg version="1.1" id="Layer_1" xmlns:x="&ns_extend;" xmlns:i="&ns_ai;" xmlns:graph="&ns_graphs;"
	 xmlns="http://www.w3.org/2000/svg" xmlns:xlink="http://www.w3.org/1999/xlink" x="0px" y="0px" viewBox="0 0 250 100"
	 style="enable-background:new 0 0 250 100;" xml:space="preserve">
<style type="text/css">
	.st0{fill:#C72222;}
	.st1{fill:#675C50;}
</style>
<metadata>
	<sfw  xmlns="&ns_sfw;">
		<slices></slices>
		<sliceSourceBounds  bottomLeftOrigin="true" height="28" width="206.717" x="21.642" y="581.275"></sliceSourceBounds>
	</sfw>
</metadata>
<g>
	<path class="st0" d="M106.277,42.105h2.32c0.152,0,0.272-0.113,0.272-0.255v-4.119c0-0.143-0.121-0.26-0.272-0.26h-3.26
		c-3.769,0-5.769,1.136-6.909,3.549L91.34,57.362c-0.431,0.976-1.052,1.438-2.273,1.438V37.731c0-0.143-0.123-0.26-0.276-0.26
		h-5.208c-0.151,0-0.277,0.117-0.277,0.26V62.98c0,0.251,0.22,0.456,0.488,0.456h5.841c3.769,0,5.492-1.137,6.634-3.542
		l6.996-16.141C103.826,42.609,104.633,42.105,106.277,42.105"/>
	<path class="st0" d="M42.613,50.456c2.088-0.816,3.823-2.658,3.823-5.698c0-4.536-4.137-7.287-9.121-7.287h-15.4
		c-0.15,0-0.274,0.117-0.274,0.26v4.121c0,0.14,0.123,0.254,0.274,0.254h14.333c2.316,0,3.878,1.332,3.878,2.969
		c0,1.641-1.562,2.971-3.878,2.971h-8.515v-3.06c0-0.142-0.123-0.257-0.274-0.257h-5.545c-0.15,0-0.274,0.115-0.274,0.257v18.192
		c0,0.144,0.123,0.26,0.274,0.26h15.179c5.673,0,9.734-2.491,9.734-7.568C46.828,53.375,45.265,51.31,42.613,50.456 M36.543,58.913
		h-8.81v-6.088h8.81c2.374,0,3.976,1.363,3.976,3.043C40.52,57.551,38.917,58.913,36.543,58.913"/>
	<path class="st0" d="M111.667,63.14l-8.928-10.752c-0.027-0.034-0.064-0.025-0.08,0.008l-2.406,5.534
		c-0.011,0.035-0.011,0.073,0.014,0.102l3.905,4.929c0.273,0.339,0.587,0.474,1.056,0.474h6.291
		C111.702,63.436,111.778,63.27,111.667,63.14"/>
	<path class="st0" d="M56.611,44.727h-5.216c-0.151,0-0.273,0.117-0.273,0.258v18.191c0,0.144,0.122,0.26,0.273,0.26h5.216
		c0.151,0,0.275-0.115,0.275-0.26V44.985C56.885,44.844,56.762,44.727,56.611,44.727"/>
	<path class="st0" d="M78.062,37.471h-5.213c-0.15,0-0.272,0.117-0.272,0.26V58.8c-1.222,0-1.839-0.462-2.269-1.438l-7.093-16.343
		c-1.14-2.413-3.139-3.548-6.909-3.548h-4.912c-0.152,0-0.273,0.117-0.273,0.26v4.121c0,0.14,0.121,0.254,0.273,0.254h3.973
		c1.645,0,2.45,0.503,3.014,1.649l6.996,16.139c1.142,2.405,2.863,3.542,6.632,3.542h5.843c0.267,0,0.481-0.204,0.481-0.456v-25.25
		C78.334,37.588,78.212,37.471,78.062,37.471"/>
	<path class="st1" d="M157.689,59.935v-5.787h-4.292v6.614c0.005,1.476,0.957,2.7,3.388,2.705h14.61v-3.022h-13.165
		C157.931,60.445,157.689,60.216,157.689,59.935 M217.474,45.896c0-1.719-0.784-3.259-2.133-4.277h2.414v-2.696h-4.428v-2.355
		h-4.125v2.355h-4.458v2.696h2.474c-1.351,1.018-2.138,2.558-2.138,4.277c0.005,3.068,2.722,5.538,6.195,5.546
		C214.697,51.434,217.474,48.964,217.474,45.896 M211.276,48.765c-1.73,0-2.884-1.297-2.888-2.928
		c0.004-1.63,1.158-2.925,2.888-2.928c1.738,0.002,2.891,1.298,2.899,2.928C214.168,47.468,213.015,48.765,211.276,48.765
		 M184.993,59.93v-4.468h-4.242v5.3c0.007,1.476,0.955,2.7,3.394,2.705h15.705v-3.022h-14.312
		C185.236,60.445,184.993,60.216,184.993,59.93 M176.616,53.359h26.034v-3.028h-26.034V53.359z M189.634,48.397
		c4.402-0.005,8.001-2.753,8.007-6.2c-0.006-3.445-3.606-6.194-8.007-6.198c-4.4,0.004-8.005,2.753-8.01,6.198
		C181.629,45.645,185.234,48.393,189.634,48.397 M189.634,38.979c2.257,0.002,4.049,1.458,4.056,3.219
		c-0.007,1.76-1.8,3.222-4.056,3.222c-2.259,0-4.056-1.461-4.061-3.222C185.578,40.437,187.375,38.982,189.634,38.979
		 M224.697,36.567v5.134h-1.794v-5.134h-3.66v13.743h2.08c0.998,0,1.58-0.676,1.58-1.558v-3.799h1.794v5.357h2.085
		c0.993,0,1.576-0.676,1.576-1.558V36.567H224.697z M220.117,51.467c-4.331,0.006-7.864,2.789-7.869,6.268
		c0.005,3.477,3.538,6.259,7.869,6.265c4.326-0.006,7.851-2.788,7.861-6.265C227.968,54.255,224.443,51.473,220.117,51.467
		 M220.117,60.986c-2.157,0-3.874-1.467-3.875-3.251c0.001-1.785,1.718-3.251,3.875-3.253c2.147,0.002,3.867,1.468,3.874,3.253
		C223.983,59.519,222.264,60.986,220.117,60.986 M170.775,36.573h-4.024v18.374h2.395c1.032-0.004,1.629-0.7,1.629-1.613v-8.088
		h3.663v-3.395h-3.663V36.573z M126.5,48.651h11.811c2.429-0.002,3.378-1.226,3.381-2.703v-9.38h-3.859v2.662h-10.867v-2.662h-3.853
		v9.38C123.117,47.425,124.068,48.649,126.5,48.651 M126.998,42.173h10.801v2.995c0,0.283-0.243,0.514-0.543,0.514h-9.719
		c-0.299,0-0.539-0.233-0.539-0.514V42.173z M118.182,54.443h11.957v8.684h2.623c1.118-0.004,1.76-0.763,1.76-1.86v-6.824h11.114
		v-3.069h-27.453V54.443z M162.407,51.47l0.103,0.052l1.796-2.366l-0.184-0.124c-3.356-2.242-5.962-5.407-5.96-9.29v-2.587h-4.358
		v2.587c0.004,4.052-3.174,7.825-6.025,9.63l-0.122,0.073l1.799,2.368l0.111-0.053c2.239-1.109,5.218-4.108,6.424-6.318
		C157.141,47.514,160.007,50.304,162.407,51.47"/>
</g>
</svg>
