<?xml version="1.0" encoding="utf-8"?>
<!-- Generator: Adobe Illustrator 25.0.1, SVG Export Plug-In . SVG Version: 6.00 Build 0)  -->
<!DOCTYPE svg PUBLIC "-//W3C//DTD SVG 1.1//EN" "http://www.w3.org/Graphics/SVG/1.1/DTD/svg11.dtd" [
	<!ENTITY ns_extend "http://ns.adobe.com/Extensibility/1.0/">
	<!ENTITY ns_ai "http://ns.adobe.com/AdobeIllustrator/10.0/">
	<!ENTITY ns_graphs "http://ns.adobe.com/Graphs/1.0/">
	<!ENTITY ns_vars "http://ns.adobe.com/Variables/1.0/">
	<!ENTITY ns_imrep "http://ns.adobe.com/ImageReplacement/1.0/">
	<!ENTITY ns_sfw "http://ns.adobe.com/SaveForWeb/1.0/">
	<!ENTITY ns_custom "http://ns.adobe.com/GenericCustomNamespace/1.0/">
	<!ENTITY ns_adobe_xpath "http://ns.adobe.com/XPath/1.0/">
]>
<svg version="1.1" id="Layer_1" xmlns:x="&ns_extend;" xmlns:i="&ns_ai;" xmlns:graph="&ns_graphs;"
	 xmlns="http://www.w3.org/2000/svg" xmlns:xlink="http://www.w3.org/1999/xlink" x="0px" y="0px" viewBox="0 0 250 100"
	 style="enable-background:new 0 0 250 100;" xml:space="preserve">
<style type="text/css">
	.st0{fill:#231F20;}
	.st1{fill:#D71249;}
	.st2{fill:#56C4CF;}
	.st3{fill:#F48245;}
	.st4{fill:#3C8376;}
	.st5{fill:#A5CD39;}
	.st6{fill:#FFFFFF;}
</style>
<metadata>
	<sfw  xmlns="&ns_sfw;">
		<slices></slices>
		<sliceSourceBounds  bottomLeftOrigin="true" height="27.911" width="205.259" x="22.37" y="-63.956"></sliceSourceBounds>
	</sfw>
</metadata>
<g>
	<g>
		<polygon class="st0" points="50.817,50.637 50.817,51.36 48.753,51.36 48.753,39.702 50.817,39.702 50.817,40.462 49.622,40.462 
			49.622,50.637 		"/>
		<path class="st0" d="M54.33,44.59c0.071-0.216,0.108-0.47,0.108-0.725c0.035-0.288,0.035-0.507,0.035-0.725v-1.376H53.17v1.376
			c0,0.871-0.216,1.559-0.582,2.101c-0.396,0.543-1.047,1.087-2.026,1.664l0.726,0.872c0.47-0.219,0.904-0.472,1.265-0.725
			c0.364-0.254,0.76-0.69,1.231-1.268l2.5,2.064l0.831-1.05L54.33,44.59L54.33,44.59z M62.581,44.229h-1.808
			c-0.364,0-0.615-0.075-0.76-0.254c-0.183-0.146-0.254-0.435-0.254-0.761v-2.496h-1.16v9.014h1.16V46.4
			c0-0.324,0.071-0.615,0.254-0.76c0.145-0.183,0.396-0.291,0.76-0.291h1.808V44.229z"/>
		<polygon class="st0" points="62.766,50.637 63.957,50.637 63.957,40.462 62.766,40.462 62.766,39.702 64.827,39.702 64.827,51.36 
			62.766,51.36 		"/>
		<g>
			<path class="st0" d="M218.398,53.459v-6.554c0.543,0,1.014-0.216,1.411-0.612c0.397-0.4,0.58-0.909,0.58-1.451
				c0-0.543-0.183-1.014-0.58-1.373c-0.397-0.364-0.868-0.545-1.411-0.545v-1.74c1.014,0,1.883,0.364,2.608,1.052
				c0.76,0.725,1.12,1.592,1.12,2.606c0,0.906-0.253,1.667-0.833,2.353c-0.543,0.725-1.265,1.16-2.101,1.34V50.2
				c0,0.508,0.145,0.869,0.399,1.125c0.291,0.251,0.653,0.396,1.158,0.396h2.752v1.738H218.398L218.398,53.459z M218.398,40.245
				v-4.201h0.831v2.573h3.332v1.629H218.398L218.398,40.245z M227.63,37.819h-1.74v12.346h1.74V37.819z M218.398,36.044v4.201
				h-4.236v-1.629h3.33v-2.573H218.398L218.398,36.044z M218.398,41.185v1.74c-0.036,0-0.036,0-0.073,0
				c-0.543,0-1.012,0.181-1.376,0.545c-0.362,0.396-0.543,0.829-0.543,1.373c0,0.578,0.181,1.05,0.543,1.486
				c0.364,0.397,0.833,0.577,1.376,0.577c0.037,0,0.037,0,0.073,0v6.554h-5.177v-1.738h2.752c0.505,0,0.904-0.145,1.157-0.396
				c0.253-0.256,0.4-0.616,0.4-1.125v-1.665c-0.833-0.18-1.522-0.615-2.066-1.303c-0.543-0.688-0.796-1.484-0.796-2.39
				c0-1.014,0.361-1.881,1.049-2.606c0.725-0.723,1.595-1.052,2.607-1.052C218.361,41.185,218.361,41.185,218.398,41.185
				L218.398,41.185z M201.962,50.455v-1.665h5.104v1.665H201.962L201.962,50.455z M201.962,46.905v-1.772
				c0.617,0,1.157-0.254,1.592-0.688c0.472-0.47,0.69-1.014,0.69-1.667c0-0.651-0.218-1.193-0.69-1.594
				c-0.435-0.432-0.976-0.65-1.592-0.65v-1.773c1.087,0.035,2.064,0.397,2.86,1.16c0.795,0.796,1.195,1.735,1.195,2.857
				c0,1.122-0.4,2.101-1.195,2.933C204.026,46.471,203.049,46.905,201.962,46.905L201.962,46.905z M211.265,38.253h-1.737v10.824
				h1.737V38.253z M201.962,38.761v1.773c-0.035,0-0.035,0-0.073,0c-0.615,0-1.16,0.218-1.595,0.65
				c-0.432,0.437-0.65,0.979-0.65,1.594c0,0.653,0.218,1.233,0.65,1.667c0.435,0.472,0.98,0.688,1.595,0.688
				c0.038,0,0.038,0,0.073,0v1.772c-0.035,0-0.035,0-0.073,0c-1.122,0-2.062-0.396-2.825-1.193
				c-0.794-0.833-1.193-1.811-1.193-2.933c0-1.122,0.399-2.061,1.193-2.857c0.763-0.763,1.703-1.16,2.825-1.16
				C201.927,38.761,201.927,38.761,201.962,38.761L201.962,38.761z M201.962,48.789v1.665h-5.177v-1.665H201.962L201.962,48.789z
				 M190.738,60.845V59.07h2.172v-2.641h-2.172v-1.775h2.172v-2.425h1.776v8.615H190.738L190.738,60.845z M190.738,47.521v-1.629
				h0.508c0.58,0,1.014-0.108,1.305-0.289c0.253-0.183,0.396-0.507,0.396-1.014c0-0.545-0.143-0.869-0.396-1.05
				c-0.291-0.181-0.725-0.254-1.305-0.254h-0.508v-1.664h0.508c0.617,0,1.049-0.073,1.305-0.218
				c0.288-0.183,0.396-0.615,0.396-1.303v-1.522h1.74v12.31h-1.74V49.04c0-0.685-0.143-1.12-0.396-1.263
				c-0.291-0.184-0.725-0.256-1.305-0.256H190.738z M190.738,41.622v1.664h-2.101v-1.664H190.738L190.738,41.622z M190.738,45.893
				v1.629h-2.101v-1.629H190.738L190.738,45.893z M190.738,54.654v1.775h-2.207v2.641h2.207v1.775h-3.979v-8.615h1.772v2.425
				H190.738L190.738,54.654z M183.171,49.369v-1.738c0.543,0,1.015-0.218,1.414-0.615c0.397-0.399,0.578-0.871,0.578-1.451
				c0-0.54-0.181-1.012-0.578-1.373c-0.399-0.364-0.871-0.543-1.414-0.543v-1.74c1.015,0,1.883,0.364,2.644,1.052
				c0.723,0.725,1.087,1.592,1.087,2.604c0,1.052-0.364,1.919-1.087,2.679C185.054,48.97,184.186,49.369,183.171,49.369
				L183.171,49.369z M183.171,40.968v-4.2h0.836v2.573h3.327v1.627H183.171z M80.069,38.108h-1.775v2.752h-2.174v1.775h2.174v2.461
				h-2.174v1.772h3.948V38.108L80.069,38.108z M183.171,36.769v4.2h-4.234v-1.627h3.329v-2.573H183.171L183.171,36.769z
				 M183.171,41.909v1.74c0,0-0.036,0-0.071,0c-0.543,0-1.014,0.18-1.378,0.543c-0.357,0.397-0.54,0.869-0.54,1.373
				c0,0.58,0.183,1.087,0.54,1.487c0.364,0.396,0.834,0.578,1.378,0.578c0.035,0,0.071,0,0.071,0v1.738c0,0-0.036,0-0.071,0
				c-1.014,0-1.883-0.364-2.606-1.125c-0.688-0.76-1.05-1.627-1.05-2.679c0-1.012,0.362-1.88,1.05-2.604
				c0.723-0.688,1.592-1.052,2.606-1.052C183.135,41.909,183.171,41.909,183.171,41.909L183.171,41.909z M76.121,54.001v-5.684
				h5.142v1.74h-2.749c-0.508,0-0.909,0.108-1.16,0.359c-0.291,0.292-0.399,0.653-0.399,1.16v2.425H76.121L76.121,54.001z
				 M88.284,44.482c0.111-0.327,0.184-0.725,0.184-1.123c0.037-0.397,0.037-0.761,0.037-1.049v-2.101h-1.956v2.101
				c0,1.303-0.291,2.315-0.869,3.148c-0.543,0.796-1.595,1.595-3.041,2.463l1.122,1.338c0.688-0.361,1.304-0.723,1.848-1.122
				c0.542-0.359,1.157-0.977,1.88-1.843l3.769,3.04l1.228-1.555L88.284,44.482L88.284,44.482z M96.432,57.549h-5.757V52.01h-1.775
				v7.279h7.532V57.549L96.432,57.549z M100.705,43.937h-2.754c-0.507,0-0.903-0.108-1.158-0.397
				c-0.253-0.254-0.361-0.615-0.361-1.158v-2.823h-1.74v11.655h1.74v-4.017c0-0.543,0.108-0.903,0.361-1.195
				c0.256-0.253,0.651-0.397,1.158-0.397h2.754V43.937z M76.121,40.86h-2.207v-2.752H72.14v8.76h3.98v-1.772h-2.207v-2.461h2.207
				V40.86L76.121,40.86z M76.121,48.317v5.684h-0.868v-2.425c0-0.507-0.108-0.868-0.362-1.16c-0.251-0.251-0.651-0.359-1.195-0.359
				h-2.715v-1.74H76.121z"/>
			<path class="st1" d="M171.915,60.519v-1.775c0.613,0,1.155-0.216,1.592-0.688c0.47-0.47,0.723-1.012,0.723-1.665
				c0-0.65-0.253-1.195-0.723-1.592c-0.437-0.399-0.979-0.615-1.592-0.651v-1.775c1.084,0.036,2.062,0.434,2.86,1.196
				c0.795,0.76,1.193,1.7,1.193,2.822c0,1.123-0.399,2.101-1.193,2.933C173.977,60.12,172.999,60.519,171.915,60.519L171.915,60.519
				z M176.005,43.578h-1.738v7.311h1.738V43.578z M107.04,41.874c0.108-0.326,0.179-0.725,0.216-1.122
				c0-0.399,0.037-0.761,0.037-1.05v-2.101H105.3v2.101c0,1.303-0.251,2.355-0.833,3.149c-0.578,0.798-1.592,1.63-3.04,2.461
				l1.123,1.339c0.686-0.359,1.301-0.723,1.845-1.12c0.545-0.364,1.158-0.979,1.848-1.846l3.764,3.075l1.268-1.592L107.04,41.874
				L107.04,41.874z M171.915,52.372v1.775c-0.037,0-0.037,0-0.073,0c-0.616,0-1.16,0.218-1.595,0.651
				c-0.432,0.434-0.65,0.976-0.65,1.592c0,0.653,0.218,1.231,0.65,1.702c0.435,0.435,0.979,0.688,1.595,0.688
				c0.037,0,0.037-0.036,0.073-0.036v1.775c-0.037,0-0.037,0-0.073,0c-1.123,0-2.066-0.399-2.823-1.195
				c-0.798-0.833-1.197-1.81-1.197-2.933c0-1.122,0.399-2.062,1.197-2.822c0.758-0.798,1.7-1.196,2.823-1.196
				C171.878,52.372,171.878,52.372,171.915,52.372L171.915,52.372z M111.456,48.789h-10.281v1.665h10.281V48.789L111.456,48.789z
				 M121.7,45.168h-6.116v-2.966h6.116v-1.63h-6.116v-2.642h6.116v-1.7h-7.892v10.606h7.892V45.168L121.7,45.168z M116.923,47.777
				V50.2c0,0.508-0.148,0.869-0.399,1.125c-0.253,0.251-0.653,0.396-1.197,0.396h-2.712v1.738h10.281v-1.738h-2.752
				c-0.508,0-0.904-0.145-1.158-0.396c-0.254-0.256-0.399-0.616-0.399-1.125v-2.423H116.923L116.923,47.777z M138.463,39.124h-1.738
				v11.765h1.738V39.124L138.463,39.124z M132.49,49.115h-4.888v-3.766h4.813v-6.226h-6.551v1.773h4.78v2.681h-4.78v7.311h6.626
				V49.115L132.49,49.115z M149.578,47.885h-6.119v-2.968h6.119v-1.632h-6.119v-2.642h6.119v-1.702h-7.892v10.608h7.892V47.885
				L149.578,47.885z M160.039,38.181h-1.74v12.707h1.74V38.181L160.039,38.181z M158.299,62.184h-4.813v-3.693h4.813v-6.262h-6.548
				v1.772h4.776v2.716h-4.776v7.239h6.548V62.184L158.299,62.184z M156.455,38.181h-1.735v3.548c0,0.543-0.111,0.941-0.362,1.195
				c-0.254,0.253-0.655,0.397-1.16,0.397h-2.752v1.665h2.752c0.505,0,0.906,0.11,1.16,0.397c0.251,0.256,0.362,0.653,0.362,1.16
				v4.344h1.735V38.181L156.455,38.181z M170.031,49.115h-4.853v-3.766h4.781v-6.226h-6.553v1.773h4.815v2.681h-4.815v7.311h6.624
				V49.115z"/>
		</g>
	</g>
	<g>
		<path class="st2" d="M32.692,47.798c0,0,13.568-5.593,8.949,1.406C36.985,56.17,32.692,47.798,32.692,47.798z"/>
		<path class="st3" d="M32.043,47.904c0,0-12.632,7.435-9.025-0.143C26.627,40.184,32.043,47.904,32.043,47.904z"/>
		<path class="st4" d="M32.401,48.122c0,0,6.57,13.101-0.756,8.985C24.318,52.994,32.401,48.122,32.401,48.122z"/>
		<path class="st5" d="M32.366,47.655c0,0-6.712-13.066,0.65-9.024C40.379,42.639,32.366,47.655,32.366,47.655z"/>
		<path class="st6" d="M32.654,38.56l-0.216,9.022C32.437,47.582,34.678,40.903,32.654,38.56z"/>
		<path class="st6" d="M32.221,57.325l0.216-9.022C32.437,48.303,30.235,54.94,32.221,57.325z"/>
		<path class="st6" d="M22.842,48.374l9.019-0.47C31.861,47.904,25.039,46.21,22.842,48.374z"/>
		<path class="st6" d="M42.326,47.439l-9.022,0.466C33.303,47.904,40.125,49.603,42.326,47.439z"/>
	</g>
</g>
</svg>
