<?xml version="1.0" encoding="utf-8"?>
<!-- Generator: Adobe Illustrator 25.0.1, SVG Export Plug-In . SVG Version: 6.00 Build 0)  -->
<!DOCTYPE svg PUBLIC "-//W3C//DTD SVG 1.1//EN" "http://www.w3.org/Graphics/SVG/1.1/DTD/svg11.dtd" [
	<!ENTITY ns_extend "http://ns.adobe.com/Extensibility/1.0/">
	<!ENTITY ns_ai "http://ns.adobe.com/AdobeIllustrator/10.0/">
	<!ENTITY ns_graphs "http://ns.adobe.com/Graphs/1.0/">
	<!ENTITY ns_vars "http://ns.adobe.com/Variables/1.0/">
	<!ENTITY ns_imrep "http://ns.adobe.com/ImageReplacement/1.0/">
	<!ENTITY ns_sfw "http://ns.adobe.com/SaveForWeb/1.0/">
	<!ENTITY ns_custom "http://ns.adobe.com/GenericCustomNamespace/1.0/">
	<!ENTITY ns_adobe_xpath "http://ns.adobe.com/XPath/1.0/">
]>
<svg version="1.1" id="Layer_1" xmlns:x="&ns_extend;" xmlns:i="&ns_ai;" xmlns:graph="&ns_graphs;"
	 xmlns="http://www.w3.org/2000/svg" xmlns:xlink="http://www.w3.org/1999/xlink" x="0px" y="0px" viewBox="0 0 250 100"
	 style="enable-background:new 0 0 250 100;" xml:space="preserve">
<style type="text/css">
	.st0{fill:#003466;}
	.st1{fill:#4BB5E8;}
</style>
<metadata>
	<sfw  xmlns="&ns_sfw;">
		<slices></slices>
		<sliceSourceBounds  bottomLeftOrigin="true" height="50" width="142.463" x="53.769" y="570.275"></sliceSourceBounds>
	</sfw>
</metadata>
<g>
	<g>
		<path class="st0" d="M63.577,42.2h5.642v6.89l5.906-6.89h7.492l-6.65,6.852l6.937,11.379h-6.937l-3.831-7.471l-2.916,3.047v4.424
			h-5.642V42.2z"/>
		<path class="st1" d="M80.423,25H53.769v50h37.939V36.287L80.423,25z M86.067,69.554H59.412V30.447l19.409-0.001v7.443h7.246
			V69.554z"/>
	</g>
	<g>
		<g>
			<g>
				<g>
					<path d="M195.04,50.927c0,0-20.608,0.016-20.824,0.016c-0.155,0-0.14,0.17-0.125,0.201c0.063,0.092,0.202,0.247,0.25,0.295
						c0,0,1.098,1.485,1.221,1.529c0.091,0.034,0.247,0.079,0.804,0.093c0,0,7.846,0,7.966,0c0,0.22,0,2.88,0,2.88
						c0,0.216,0.064,0.37,0.186,0.48c0.126,0.093,0.295,0.14,0.543,0.14l0,0h1.099l0,0c0.509,0,0.942-0.186,1.298-0.572
						c0.355-0.371,0.527-0.79,0.527-1.254c0,0,0-1.47,0-1.674c0.23,0,7.054,0,7.054,0c0.993,0,1.192-0.632,1.192-1.019
						C196.231,51.64,196.033,50.927,195.04,50.927L195.04,50.927L195.04,50.927z"/>
					<path d="M123.299,48.409c0,0-2.105,0-2.491,0c0.42-0.574,0.79-1.101,1.083-1.92c0.341-0.915,0.571-1.951,0.697-3.156
						c0.015-0.047,0.015-0.109,0.015-0.156c0-0.201-0.049-0.387-0.142-0.571c-0.139-0.249-0.384-0.389-0.773-0.406H104.67
						c-0.092,0-0.262-0.013-0.262,0.157c0,0.076,0.17,0.279,0.216,0.325c0,0.015,1.068,1.44,1.191,1.484
						c0.079,0.033,0.232,0.077,0.758,0.097c0,0,11.976,0,12.208,0c0,0.121,0,0.012,0,0.136c0,0.884-0.03,1.486-0.109,2.23
						c-0.076,0.832-0.186,1.313-0.292,1.78h-15.194c-0.155,0-0.185,0.152-0.091,0.243c0.029,0.08,0.152,0.205,0.198,0.249
						c0,0,1.099,1.425,1.224,1.485c0.077,0.032,0.244,0.078,0.802,0.093c0,0,6.484,0,6.513,0c0,0.31,0,2.582,0,2.895
						c-0.059,0-7.147,0-7.286,0c-0.155,0-0.185,0.122-0.139,0.201c0.03,0.077,0.17,0.233,0.216,0.277
						c0,0.015,1.068,1.408,1.191,1.453c0.079,0.033,0.232,0.079,0.758,0.094c0,0,12.503,0,12.594,0c0,0.203,0,4.363,0,4.363
						c0,0.218,0.078,0.371,0.217,0.479c0.139,0.094,0.324,0.141,0.557,0.141l0,0h0.758l0,0c0.603,0,1.114-0.248,1.47-0.713
						c0.372-0.447,0.557-1.035,0.557-1.747l0,0v-4.022l0,0c0-0.185-0.046-0.325-0.155-0.404c-0.091-0.09-0.232-0.122-0.448-0.122
						c0,0-6.451,0-6.685,0c0-0.312,0-2.585,0-2.895c0.652,0,1.054,0,7.861,0c0.975,0,1.16-0.632,1.16-1.019
						C124.46,49.055,124.274,48.409,123.299,48.409L123.299,48.409L123.299,48.409z"/>
					<path d="M157.552,48.963c0.388,0.435,1.193,1.13,2.011,1.87c0.899,0.807,1.655,1.378,2.243,1.69
						c0.496,0.278,0.991,0.416,1.441,0.402c0.481-0.017,0.836-0.156,1.068-0.402c0.155-0.171,0.23-0.387,0.23-0.619
						c0-0.201-0.03-0.528-0.139-0.775c-0.23-0.526-0.527-1.13-1.035-1.578c-0.341-0.294-0.62-0.463-0.821-0.526l0,0l-1.004-0.246
						l0,0c-0.42-0.127-0.868-0.312-1.363-0.559c-0.448-0.233-1.1-0.571-1.438-0.819c0.355-0.497,0.804-1.035,1.144-1.841
						c0.294-0.773,0.418-1.146,0.541-1.779c0-0.062,0.032-0.309,0.032-0.372c0-0.139-0.032-0.279-0.107-0.403
						c-0.109-0.185-0.403-0.292-0.681-0.309l0,0h-4.966h-0.327c-0.137,0-0.152,0.111-0.152,0.141
						c0.015,0.077,0.046,0.109,0.093,0.138c0.294,0.218,0.417,0.249,0.604,0.339c0.617,0.343,1.16,0.527,1.3,1.285
						c0.03,0.558-0.25,0.942-0.388,1.284c-0.356,0.756-0.836,1.484-1.422,2.321c-0.759,1.082-2.275,2.661-3.946,4.039
						c-0.294,0.199-0.387,0.631-0.263,0.816c0.153,0.344,0.696,0.297,1.206,0.14c0.712-0.199,1.872-0.789,2.969-1.591
						C155.433,50.85,156.687,49.905,157.552,48.963L157.552,48.963L157.552,48.963z"/>
					<path d="M136.836,51.61c-0.187-0.078-0.62-0.373-1.02-0.666c-0.371-0.247-0.573-0.433-0.897-0.896
						c-0.404-0.574-0.728-0.881-0.851-1.255c0.309-0.726,0.434-1.02,0.665-1.794c0.232-0.789,0.324-1.378,0.464-2.196h0.248h2.383
						l0,0c0.633,0,0.943-0.479,0.943-1.006c0-0.526-0.311-0.93-0.943-0.93c0,0-10.321,0-10.382,0c-0.154,0-0.171,0.156-0.142,0.201
						c0.063,0.076,0.157,0.202,0.202,0.247c0,0.018,0.927,1.348,1.037,1.394c0.078,0.03,0.23,0.077,0.743,0.094c0,0,1.453,0,2.257,0
						c-0.029,3.248-3.139,8.972-4.425,10.487c-0.216,0.235-0.324,0.62-0.091,0.821c0.231,0.201,0.541,0.154,0.942-0.107
						c0.978-0.62,1.858-1.332,2.631-2.183c0.789-0.863,1.81-2.241,2.398-3.249c0.388,0.573,0.883,1.565,1.516,2.554
						c0.636,0.992,1.317,1.933,1.919,2.399c0.37,0.278,0.805,0.417,1.239,0.447c0.433,0.049,0.774-0.062,1.006-0.324
						c0.292-0.263,0.4-0.805,0.138-1.486c-0.248-0.695-0.652-1.392-1.085-1.916C137.44,51.919,137.1,51.717,136.836,51.61z"/>
					<path d="M142.622,41.938h-3.016h-0.326c-0.061,0-0.139,0-0.168,0.092c-0.018,0.112,0.076,0.169,0.232,0.296
						c0.045,0.046,0.262,0.201,0.417,0.342c0.123,0.092,0.233,0.232,0.31,0.355c0.078,0.121,0.092,0.494,0.092,0.71l0,0l0,0l0,0l0,0
						l0,0v3.775l0,0c0,0-3.634,0-3.761,0c-0.169-0.014-0.169,0.156-0.121,0.217c0.075,0.076,0.216,0.279,0.263,0.326
						c0,0,1.019,1.331,1.159,1.393c0.11,0.094,0.294,0.139,0.48,0.152h1.98c0,0.219,0,10.196,0,10.196
						c0,0.219,0.063,0.373,0.186,0.48c0.123,0.092,0.31,0.139,0.542,0.139l0,0h0.571l0,0c0.529,0,0.943-0.171,1.268-0.542
						c0.311-0.34,0.48-0.759,0.48-1.222l0,0V42.465l-0.061-0.248l0,0C143.087,41.987,142.748,41.953,142.622,41.938L142.622,41.938
						L142.622,41.938z"/>
					<path d="M147.127,41.938h-3.036h-0.324c-0.077,0-0.139,0-0.17,0.092c-0.03,0.112,0.078,0.169,0.231,0.296
						c0.048,0.046,0.263,0.201,0.42,0.342c0.125,0.092,0.23,0.232,0.309,0.355c0.078,0.121,0.094,0.494,0.094,0.71l0,0l0,0l0,0l0,0
						l0,0c0,5.184,0,10.878,0,16.059c0,0.219,0.059,0.373,0.184,0.48c0.123,0.092,0.294,0.139,0.541,0.139l0,0h0.589l0,0
						c0.51,0,0.943-0.171,1.268-0.542c0.312-0.34,0.48-0.759,0.48-1.222l0,0V42.465l-0.064-0.248l0,0
						C147.589,41.987,147.233,41.953,147.127,41.938L147.127,41.938L147.127,41.938z"/>
					<path d="M170.516,41.938h-3.355h-0.326c-0.076,0-0.138,0-0.169,0.092c-0.032,0.126,0.077,0.186,0.232,0.296
						c0.047,0.046,0.263,0.215,0.419,0.342c0.122,0.092,0.232,0.232,0.307,0.355c0.079,0.121,0.094,0.494,0.094,0.727l0,0l0,0l0,0
						l0,0l0,0c0,5.167,0,6.653,0,11.851c0,0.2,0.062,0.369,0.187,0.462c0.124,0.093,0.293,0.154,0.526,0.154l0,0h0.943l0,0
						c0.512,0,0.929-0.184,1.253-0.541c0.311-0.353,0.48-0.77,0.48-1.222l0,0V42.479l-0.062-0.262l0,0
						C170.983,42.002,170.642,41.953,170.516,41.938L170.516,41.938L170.516,41.938z"/>
					<path d="M170.379,58.308h-9.608l0,0c-0.713,0-0.975-0.139-1.07-0.246c-0.139-0.187-0.216-0.343-0.23-0.79
						c0.014-0.076,0.014-0.171,0.014-0.265l0,0v-2.228l-0.014-0.107c0-0.03-0.017-0.079-0.032-0.122v-0.015l0,0
						c-0.075-0.233-0.417-0.385-0.526-0.403l0,0l0,0l-4.022-0.014h-0.324c-0.078,0-0.139,0.014-0.171,0.107
						c-0.03,0.108,0.062,0.169,0.218,0.28c0.062,0.046,0.292,0.218,0.464,0.324c0.155,0.109,0.417,0.264,0.678,0.726
						c0.109,0.172,0.217,0.666,0.217,0.868l0,0l0,0l0,0l0,0l0,0c0,5.198,0-3.388,0,1.796c0,0.029,0,0.046,0,0.075l0,0
						c0,0.838,0.309,1.393,0.915,1.673c0.586,0.247,1.113,0.385,1.561,0.385l0,0h11.929l0,0c0.895,0,1.083-0.634,1.083-1.005
						C171.462,58.986,171.275,58.308,170.379,58.308L170.379,58.308L170.379,58.308z"/>
					<path d="M193.308,58.325h-10.567l0,0c-0.711,0-0.975-0.139-1.068-0.249c-0.138-0.187-0.217-0.342-0.232-0.775
						c0.015-0.093,0.015-0.185,0.015-0.263l0,0v-1.854l-0.015-0.094c0-0.046-0.017-0.093-0.031-0.142v-0.013l0,0
						c-0.079-0.233-0.417-0.387-0.527-0.402l0,0l0,0h-4.021h-0.327c-0.075,0-0.138,0-0.168,0.091
						c-0.03,0.11,0.061,0.171,0.218,0.295c0.059,0.044,0.293,0.201,0.463,0.324c0.153,0.109,0.418,0.248,0.679,0.726
						c0.155,0.234,0.218,0.574,0.218,0.869c0,5.183,0-3.792,0,1.406c0,0.017,0,0.047,0,0.063l0,0c0,0.833,0.31,1.391,0.913,1.671
						c0.588,0.261,1.112,0.385,1.562,0.385l0,0h12.89l0,0c0.912,0,1.099-0.633,1.099-0.991
						C194.407,59.003,194.22,58.325,193.308,58.325L193.308,58.325L193.308,58.325z"/>
					<path d="M185.788,49.49h5.973l0,0c0.726,0,1.235-0.108,1.53-0.324c0.311-0.234,0.464-0.573,0.464-1.041l0,0v-5.15l0,0
						c0-0.185-0.047-0.326-0.141-0.401c-0.091-0.096-0.244-0.142-0.446-0.142l0,0h-7.38v1.829c2.151,0,4.301,0,4.425,0
						c0,0.201,0,2.907,0,2.907c0,0.186-0.046,0.325-0.123,0.401c-0.077,0.064-0.248,0.109-0.463,0.109l0,0h-3.838V49.49z
						 M177.851,48.125L177.851,48.125c0,0.449,0.154,0.792,0.481,1.023c0.308,0.233,0.819,0.341,1.591,0.341l0,0h5.864v-1.812
						h-3.822l0,0c-0.232,0-0.402-0.045-0.481-0.09c-0.091-0.08-0.137-0.204-0.137-0.404c0,0,0-2.721,0-2.922l0,0l0,0
						c0.123,0,2.273,0,4.44,0v-1.829h-9.175l0,0c-0.015,0-0.015,0-0.029,0h-0.142c-0.062,0-0.138,0-0.169,0.094
						c-0.031,0.122,0.076,0.186,0.231,0.293c0.047,0.047,0.294,0.203,0.465,0.324c0.139,0.111,0.404,0.25,0.664,0.728
						c0.109,0.174,0.203,0.653,0.203,0.853C177.836,45.932,177.851,46.921,177.851,48.125z"/>
				</g>
			</g>
		</g>
	</g>
</g>
</svg>
