<?xml version="1.0" encoding="utf-8"?>
<!-- Generator: Adobe Illustrator 25.0.1, SVG Export Plug-In . SVG Version: 6.00 Build 0)  -->
<svg version="1.1" id="Ñëîé_1" xmlns="http://www.w3.org/2000/svg" xmlns:xlink="http://www.w3.org/1999/xlink" x="0px" y="0px"
	 viewBox="0 0 65 79" style="enable-background:new 0 0 65 79;" xml:space="preserve">
<style type="text/css">
	.st0{fill:#3E4950;}
	.st1{fill:#579AE2;}
	.st2{fill:#61727F;}
	.st3{fill:#7EC2F5;}
	.st4{fill:#4376B9;}
	.st5{fill:#2E353A;}
	.st6{fill:#D9DDFD;}
	.st7{fill:#B0B5F1;}
	.st8{fill:#8A8DBD;}
</style>
<g>
	<g>
		<g>
			<path class="st0" d="M59.9,71.9c-3.2,1.3-8.6,5.6-10.7,6.3c-1.8,0.6-4.3,0.8-6.7,0.6c-1.6-0.1-3.2-0.4-4.5-0.9
				c-3.4-1.1-9.6-6.5-11.8-7.2c-2.2-0.7-13.8-1.4-17.7-3.8c-3.9-2.5-1.8-7.5-2.9-8.7c-0.7-0.8-3.3-3.4-4.8-5.5
				c-0.6-0.8-0.9-1.5-0.9-2c0-0.1,0-0.3,0.1-0.4c0.1-0.1,0.2-0.3,0.3-0.5c1.2-1.5,4.5-4.8,6.1-6.7L59.9,71.9z"/>
		</g>
		<g>
			<path class="st1" d="M42.6,78.8c-1.6-0.1-3.2-0.4-4.5-0.9c-3.4-1.1-9.6-6.5-11.8-7.2c-2.2-0.7-13.8-1.4-17.7-3.8
				c-3.9-2.5-1.8-7.6-2.9-8.7c-0.7-0.8-3.3-3.4-4.8-5.5c0.9-0.8,2-1.4,3.2-2.5c1.6-1.5,3.4-4.4,5.2-5.5l46.8,27c0,0,0,0,0,0
				C53.6,73.4,47.6,76.9,42.6,78.8z"/>
		</g>
		<g>
			<polygon class="st1" points="0.9,50.7 0.9,52.8 2.7,53.9 4,51.4 			"/>
		</g>
		<g>
			<polygon class="st0" points="42.6,76.7 42.6,78.8 48.3,77.3 50.2,73.7 			"/>
		</g>
	</g>
	<g>
		<path class="st2" d="M6.5,41.1c0,0,5.8-4.8,9.5-5.1c3.7-0.3,49.3,17.7,48.9,19.1c-0.4,1.4-4.9,6-4.6,7.9c0.3,1.8,0.7,2.3,0.6,5.1
			s-1.1,3.9-1.1,3.9s-43-21.4-43.8-21.6C15.2,50.1,6.5,41.1,6.5,41.1z"/>
	</g>
	<g>
		<path class="st3" d="M50.7,58.9c0.4,0.9,1.4,3.7,3.2,5.6c1.8,1.9,2.2,5.1,2.2,5.1S18.9,58.1,18.4,57.6S9.3,42.7,9.3,42.7
			s5-4.2,6.8-6.2C17.9,34.5,49.7,56.5,50.7,58.9z"/>
	</g>
	<g>
		<path class="st0" d="M65,26.6v28.5c0,0-5.1,1.5-7.4,2.7c-0.4,0.2-0.9,0.4-1.5,0.5c-1.6,0.4-3.6,0.7-5.4,0.7L42,44.7l-30.5-4.3
			c0-0.1,0-0.2,0-0.3V11.6c0,0.1,0,0.2,0,0.3c0.2,1.4,2.7,1.2,3.8,1.7c1,0.5-1.4,2.7-0.1,3.8c0,0.1,0.1,0.1,0.2,0.1
			c1.6,1.1,3.9,1.4,5.4,1.5c1.5,0.1,5.9-1.2,7.1-1.3c0.6,0,0.6,0.4,0.6,1c0,0,0,0,0,0c0,0.5-0.1,1,0.3,1.3c0.9,0.4,5.4,0.1,6.1,0.2
			c0.7,0.1-0.1,2.9,0.3,4.2c0,0.1,0.1,0.2,0.1,0.3c0.6,1.3,2.4,3.4,4.8,3.8c1.1,0.2,2.2,0,3.2-0.3c1.6-0.4,3-0.9,3.8-0.6
			c1.5,0.4-1.2,2.1,1,2.6c0.7,0.2,1.6,0.2,2.6,0.2c2.3,0,5.2-0.4,6.9-1.2C59.9,28.2,65,26.6,65,26.6z"/>
	</g>
	<g>
		<path class="st1" d="M50.7,30.5v28.5c-1,0-1.9-0.1-2.6-0.2c-0.5-0.1-0.7-0.3-0.8-0.5v0c-0.1-0.2-0.1-0.4,0-0.6
			c0.2-0.6,0.7-1.3-0.1-1.5c0,0-0.1,0-0.1,0c-0.9-0.1-2.2,0.3-3.7,0.7c-1,0.2-2.2,0.4-3.2,0.3c-0.6-0.1-1.2-0.3-1.7-0.5
			c-1.6-0.8-2.7-2.3-3.1-3.2c0-0.1-0.1-0.2-0.1-0.3c0-0.1,0-0.1,0-0.2c0,0,0,0,0,0c0-0.2,0-0.4-0.1-0.6c0-1.4,0.3-3.2-0.2-3.3
			c0,0,0,0,0,0c-0.2,0-0.9,0-1.7,0c-1.6,0-3.7,0.1-4.3-0.2c-0.4-0.2-0.4-0.8-0.3-1.3c0,0,0,0,0,0c0-0.5,0.1-1-0.6-1
			c-0.1,0-0.3,0-0.6,0.1c-1.7,0.3-5.3,1.3-6.6,1.2c-0.7,0-1.5-0.1-2.3-0.3c-1.1-0.2-2.2-0.6-3.1-1.2c-0.1,0-0.1-0.1-0.2-0.2
			c-0.8-0.7-0.1-1.9,0.2-2.7c0.2-0.5,0.3-0.9-0.1-1.1c-1.1-0.5-3.5-0.4-3.8-1.7V11.6l28.6,4.8L50.7,30.5z"/>
	</g>
	<g>
		<path class="st4" d="M19,13.2c0,0,0.3,22.2,0.9,18c0.6-4.2,0.8-10.7,2.6-10.6c1.9,0.1,0,10.7,2.3,11.1c2.3,0.4,1-6.6,2.4-10.3
			c1.4-3.6,4.6-8.9,1.2-10.5C25.2,9.4,19.5,11.4,19,13.2z"/>
	</g>
	<g>
		<path class="st4" d="M37.1,22.2c-0.1,0.3,0.1,12.6,0.7,11.6c0.7-1.1,0.7-7.8,1.7-7.2c1.1,0.5,0.5,8.2,1.2,9.4
			c0.7,1.2,0.6-5.8,1.9-6.1c1.3-0.3-0.4,5.2,1.1,7.4c1.5,2.2,1.7,14,2.7,10.5c1-3.5-1.1-13.6,0-15.2c1.1-1.6,3.9-6.6,1.4-9.2
			C45.4,20.8,38.7,17.5,37.1,22.2z"/>
	</g>
	<g>
		<g>
			<path class="st2" d="M65,26.6c0,0-5.1,1.5-7.4,2.7c-1.6,0.8-4.5,1.2-6.9,1.2c-1,0-1.9-0.1-2.6-0.2c-2.2-0.5,0.5-2.2-1-2.6
				c-0.9-0.2-2.3,0.3-3.8,0.6c-1,0.2-2.2,0.4-3.2,0.3c-2.4-0.4-4.3-2.5-4.8-3.8c0-0.1-0.1-0.2-0.1-0.3c-0.4-1.2,0.4-4-0.3-4.2
				c-0.7-0.1-5.2,0.2-6.1-0.2c-0.4-0.2-0.4-0.8-0.3-1.3c0,0,0,0,0,0c0-0.5,0.1-1-0.6-1c-1.2,0-5.6,1.4-7.1,1.3
				c-1.5-0.1-3.8-0.3-5.4-1.5c-0.1,0-0.1-0.1-0.2-0.1c-1.2-1.2,1.2-3.3,0.1-3.8c-1.1-0.5-3.5-0.4-3.8-1.7c0-0.1,0-0.2,0-0.3
				c0-0.9,0.7-1.6,1-2.1c0.1-0.2,0.2-0.4,0.1-0.5c-0.2-0.5,1.8-2.9,2.4-3.4c3.8-2.7,4-5.5,4-5.5L65,26.6z"/>
		</g>
		<g>
			<path class="st3" d="M62.6,25.3c-2,1.1-5,1.9-6.9,2.8c-1.2,0.6-3,1.5-5,2.4c-1,0-1.9-0.1-2.6-0.2c-2.2-0.5,0.5-2.2-1-2.6
				c-0.9-0.2-2.3,0.3-3.8,0.6c-1.1,0.2-2.2,0.4-3.2,0.3c-2.4-0.4-4.3-2.5-4.8-3.8c-0.1-0.1-0.1-0.2-0.1-0.3c-0.4-1.2,0.4-4-0.3-4.2
				c-0.7-0.1-5.2,0.2-6.1-0.3c-0.4-0.2-0.4-0.8-0.3-1.3c0,0,0,0,0,0c0-0.5,0.1-1-0.6-1c-1.2,0-5.6,1.4-7.1,1.3
				c-1.5-0.1-3.8-0.3-5.4-1.5c-0.1,0-0.1-0.1-0.2-0.2c-1.2-1.2,1.2-3.3,0.1-3.8c-1.1-0.5-3.5-0.4-3.8-1.7c-0.2-1,0.6-1.8,1-2.4
				c1.9-1.1,4-2.1,5.1-3c1.8-1.5,2.7-4.1,4-4.9L62.6,25.3z"/>
		</g>
		<g>
			<path class="st1" d="M19.1,12.1c-0.8-0.1,5.4-3.6,4.4-3.6c-1,0-7.3,2.5-7.5,1.8C16,9.7,20.2,8,21.4,7.3c0.8-0.5,2.6-2.4,4.1-3.5
				L29,5.9c-0.8,1.3-2.2,2.5-2.7,2.9C25.3,9.5,19.9,12.2,19.1,12.1z"/>
		</g>
		<g>
			<path class="st1" d="M28.4,18.7c0-0.5,0.1-1-0.6-1c-1.2,0-5.6,1.4-7.1,1.3c-1.5-0.1-3.8-0.3-5.4-1.5c-0.1,0-0.1-0.1-0.2-0.2
				c2.6-1.2,5.4-2.2,5.5-1.8c0.1,0.7,1.6,1.7,4.7,0c3.1-1.7,7.5-2.7,7.6-2.3c0.1,0.4-5.1,3-4.5,3.6C28.6,17.2,28.8,17.9,28.4,18.7z"
				/>
		</g>
		<g>
			<path class="st1" d="M47.8,16.7c-1,0-2-0.2-2.9-0.3c-2.1-0.3-4.9,1.1-5.6,0.1c-0.7-1.1,2.4-2.6,2.1-2.7c-0.3-0.2-4.8,0.8-5.2-0.1
				c-0.2-0.5,1.1-1.4,2.7-2L47.8,16.7z"/>
		</g>
		<g>
			<path class="st1" d="M33.3,16.5c1.2-0.6,4.3-0.4,4.3,0.8c0,1.1-1.1,2.4,0.4,3.1c1.5,0.7,6.2-1.5,6.6-0.7c0.4,0.8-1.3,1-2.4,1.4
				c-1.1,0.4,3.7,0.2,4.7,1.1c1,0.8,0,2.8-1.6,1.8c-1.6-1-2.4-2.1-4.1-1.7c-1.7,0.4-2.3,0-3.5-0.6c-1.1-0.6-1-2.3-2-3.1
				C34.9,17.6,31.8,17.2,33.3,16.5z"/>
		</g>
		<g>
			<path class="st1" d="M51.3,22.3c1.3-0.3,2.8,0.3,3.6,1c0.9,0.7,4.3,0.2,4.4,1.2c0.1,0.9-1.4-0.6-2.6-0.1
				c-1.1,0.4-2.2-0.3-3.8-0.5C51.4,23.7,48.8,22.9,51.3,22.3z"/>
		</g>
		<g>
			<path class="st1" d="M43.3,28.3c-1.1,0.2-2.2,0.4-3.2,0.3c-2.4-0.4-4.3-2.5-4.8-3.8c1.6-0.3,3.3-0.2,3.8,0.3
				c0.9,1.1,4.4-1.2,5.6-0.1c1.1,1.1-3.2,1.2-2.1,2.6C42.6,27.8,43,28,43.3,28.3z"/>
		</g>
		<g>
			<path class="st1" d="M30.2,9.5c-1.2,0.5-2.8,1.2-2.9,1.7c-0.1,0.5,2.9-1,3.6-0.8c0.6,0.2,1.7,1.2,2.4,0.4
				C33.9,9.9,33.8,8,30.2,9.5z"/>
		</g>
	</g>
	<g>
		<g>
			<path class="st0" d="M0.4,49.9c-0.2,0.2-0.3,0.4-0.3,0.5C0,50.5,0,50.6,0,50.7v-2.1C0,49,0.2,49.4,0.4,49.9z"/>
		</g>
		<g>
			<path class="st2" d="M59.9,71.9c-3.2,1.3-8.6,3.5-10.7,4.2c-1.8,0.6-4.3,0.8-6.7,0.6c-1.6-0.1-3.2-0.4-4.5-0.9
				c-3.4-1.1-9.6-6.5-11.8-7.2c-2.2-0.7-13.8-1.4-17.7-3.8c-3.9-2.5-1.8-7.5-2.9-8.7c-0.7-0.8-3.3-3.4-4.8-5.5
				c-0.2-0.3-0.3-0.5-0.5-0.8C0.2,49.4,0,49,0,48.6c0-0.1,0-0.3,0.1-0.4c0.6-1.1,4.6-5,6.5-7.2L59.9,71.9z"/>
		</g>
		<g>
			<path class="st3" d="M42.6,76.7c-1.6-0.1-3.2-0.4-4.5-0.9c-3.4-1.1-9.6-6.5-11.8-7.2c-2.2-0.7-13.8-1.4-17.7-3.8
				c-3.9-2.5-1.8-7.6-2.9-8.7c-0.7-0.8-3.3-3.4-4.8-5.5c0.9-0.8,2-1.4,3.2-2.5c1.6-1.5,3.4-4.4,5.2-5.5l46.8,27c0,0,0,0,0,0
				C53.6,71.3,47.6,74.8,42.6,76.7z"/>
		</g>
		<g>
			<path class="st1" d="M15.1,45.9c0,0-10.2,5.3-7.8,5.6s10-6.2,10.2-4.5c0.2,1.7-7.3,5.9-5,6.3c2.3,0.4,6.5-4.4,8.5-5.1
				c2-0.7-3.7,7.4-1.2,7.9c2.5,0.5,8.7-7.8,4.9-9.3C20.9,45.3,15.1,45.9,15.1,45.9z"/>
		</g>
		<g>
			<path class="st1" d="M18.1,62.8c0,0,8.6-7.8,8.7-5.8c0.2,2-4.1,4.4-2,4.7c2,0.3,7.3-6.5,7.9-5.9c0.6,0.6-5.6,6-3.6,6.6
				c1.9,0.5,6.3-3.6,5.3-1.8c-0.9,1.8-4.8,2-5.9,3.9c-1,1.9-1.7-1.1-3.1,0s-1.8-1.8-4.7-0.2C17.8,65.9,14.4,66,18.1,62.8z"/>
		</g>
		<g>
			<path class="st1" d="M41.5,59.7c-1.9,1.7-7.3,7.3-4.4,6.5c2.9-0.8,8.9-6.4,8.7-5.5c-0.3,0.8-5.6,8.2-3.2,7.6s6.8-6.9,6.6-8.5
				C49,58,42.6,58.7,41.5,59.7z"/>
		</g>
	</g>
	<g>
		<path class="st4" d="M34.8,48.7c-0.2,0-0.9,0-1.7,0c-0.1-4.6-0.2-11.9,0.7-11.7C34.5,37.1,34.5,43.1,34.8,48.7z"/>
	</g>
	<g>
		<path class="st4" d="M35,52.1c0,0.2,0,0.4,0.1,0.6C35.1,52.5,35,52.3,35,52.1z"/>
	</g>
	<g>
		<path class="st4" d="M44.3,50.3C45,51,46.4,53.5,47,56c-0.9-0.1-2.2,0.3-3.7,0.7c-1,0.2-2.2,0.4-3.2,0.3c-0.6-0.1-1.2-0.3-1.7-0.5
			c1-4.3,0-13.9,1.2-14.3c1.5-0.4,0.5,12,2.5,13.2C44,56.6,42.9,49,44.3,50.3z"/>
	</g>
	<g>
		<path class="st4" d="M47.3,58.2c-0.1-0.2-0.1-0.4,0-0.6C47.3,57.8,47.3,58,47.3,58.2z"/>
	</g>
	<g>
		<path class="st4" d="M27.3,46.3c-1.7,0.3-5.3,1.3-6.6,1.2c-0.7,0-1.5-0.1-2.3-0.3c0.2-3.7,0.5-8.3,0.6-7.4
			c0.2,1.5,0.8,5.8,1.9,4.7c1.1-1.1,0.2-9.1,0.9-9.9c0.7-0.8-0.1,5.7,1.5,6.6c1.6,0.8,1.5-6.9,2.5-7.9C26.9,32.2,27.9,41,27.3,46.3z
			"/>
	</g>
	<g>
		<path class="st4" d="M15.4,43.2c0.2-0.5,0.3-0.9-0.1-1.1c-1.1-0.5-3.5-0.4-3.8-1.7v-7c0.4-1.6,0.7-2.5,1-1.5
			c0.9,3,2.5,6.8,2.6,4.2c0.2-2.6,0.3-8,0.9-6.1C16.6,31.6,17.6,40.4,15.4,43.2z"/>
	</g>
	<g>
		<path class="st5" d="M65,34.6v20.4c0,0-5.1,1.5-7.4,2.7c-0.4,0.2-0.9,0.4-1.5,0.5c0.6-0.7,1.1-1.4,1.4-2.1
			c1.3-3.2-2.7-7.1-1.5-9.9c1.2-2.9,2.9-3.4,2.7-6.2C58.6,37.9,62.4,34.8,65,34.6z"/>
	</g>
	<g>
		<path class="st5" d="M57.5,32.6c-1.2,0.7-2.3,4-1.2,4.3c1.1,0.4,3.4-2.2,3.5-2.8C59.9,33.6,58.4,32,57.5,32.6z"/>
	</g>
	<g>
		<path class="st5" d="M53.4,42.2c-0.2,0.8,2.3,0.5,2.4-0.5C55.8,40.8,53.8,40.8,53.4,42.2z"/>
	</g>
	<g>
		<path class="st5" d="M53.1,48.4c0.1,0.9,2.2-1.3,1.5-2S52.8,46.2,53.1,48.4z"/>
	</g>
	<g>
		<path class="st6" d="M50.7,58.9c0,3.5-2.5,2.1-2.5,2.1c-1.6,1.6-3.4,0-3.4,0c-2.1,4.1-9,0-9,0c-5.7,2-4.2-5.2-4.2-5.2
			c-3.6-0.6-1.1-5.2-1.1-5.2s-1.5-0.2-2.6-1c-0.7-0.5-1.3-1.4-1-2.7c0.6-3.2,4.2-2.7,4.2-2.7c2.8-2.1,4.7,2.1,4.7,2.1
			c2.3-2.7,5.1,1.4,5.1,1.4c3.7-2.9,5.5,3.2,5.5,3.2c2.1-0.9,3.3,1.9,3.8,4.4C50.6,57.1,50.7,58.6,50.7,58.9z"/>
	</g>
	<g>
		<path class="st6" d="M24.8,47.8c0,0-0.6,2.8-4.2,1.4c0,0-3.2,2.3-4.9-0.7c0,0-1.8,2.2-2.9-1c0,0-1.7-0.2-1.3-2.6
			c0,0-3,0.1-1.9-1.6c0.4-0.7,0.8-1.3,1.2-1.7c0.5-0.7,0.8-1.1,0.8-1.1s2.5-4.2,3.6-1.6c0,0,3-5,4.2,1c0,0,3.6,0.1,3.6,3
			c0,0,0.5-0.1,1,0.4c0.2,0.2,0.4,0.5,0.6,1C25.2,45.9,26.7,47.4,24.8,47.8z"/>
	</g>
	<g>
		<path class="st7" d="M50.7,58.9c0,3.5-2.5,2.1-2.5,2.1c-1.6,1.6-3.4,0-3.4,0c-2.1,4.1-9,0-9,0c-5.7,2-4.2-5.2-4.2-5.2
			c-0.6-0.1-1-0.3-1.3-0.6c-1.5-1.4,0.3-4.6,0.3-4.6s-1.5-0.2-2.6-1c2.5-0.6,6.2-1.1,6,1.7c0,0,5.1-0.9,5.3,3.7c0,0,4.1-2.3,6.3,0
			c0,0,0.3-3.4,3.4-0.9c0.5,0.4,1,0.9,1.4,1.3C50.6,57.1,50.7,58.6,50.7,58.9z"/>
	</g>
	<g>
		<path class="st7" d="M24.8,47.8c0,0-0.6,2.8-4.2,1.4c0,0-3.2,2.3-4.9-0.7c0,0-1.8,2.2-2.9-1c0,0-1.7-0.2-1.3-2.6
			c0,0-2.3,0.1-2.1-1.1c0-0.2,0.1-0.3,0.2-0.5c0.4-0.7,0.8-1.3,1.2-1.7c1.7-0.1,3.7,0.2,4.1,1.7c0,0,2.5-0.6,2.7,2.2
			c0,0,2.6-1.1,3.2,2.5c0,0-0.4-4.3,1.7-2.7c0,0,0.6-1.3,1.5-1.9c0.2,0.2,0.4,0.5,0.6,1c0.1,0.3,0.3,0.6,0.4,0.8
			C25.6,46.4,26.3,47.4,24.8,47.8z"/>
	</g>
	<g>
		<path class="st8" d="M50.7,58.9c0,3.5-2.5,2.1-2.5,2.1c-1.6,1.6-3.4,0-3.4,0c-2.1,4.1-9,0-9,0c-5.7,2-4.2-5.2-4.2-5.2
			c-0.6-0.1-1-0.3-1.3-0.6c2,0.4,5.2,1.3,5.5,3.4c0,0,4.9-1.4,5.6,1.9c0,0,1.7-3.4,5.1-1.6C46.4,58.9,49.8,56.9,50.7,58.9z"/>
	</g>
	<g>
		<path class="st6" d="M27.7,53.3c0,0,0,0.1,0,0.3c0,0.8-0.3,2.9-2.9,2.4c0,0-2.3,0.6-3.7-0.8c0,0-4.3,0.7-2.8-1.9
			c0,0,0.1-0.1,0.3-0.4c0.6-0.8,2.3-2.7,3.8-1.9c0,0,2.6-3.2,3.8-1C26.3,50,28.8,51.3,27.7,53.3z"/>
	</g>
	<g>
		<path class="st7" d="M27.7,53.6c0,0.8-0.3,2.9-2.9,2.4c0,0-2.3,0.6-3.7-0.8c0,0-4.3,0.7-2.8-1.9c0,0,0.1-0.1,0.3-0.4
			c1.2-0.5,2.7-0.8,3.3,0.4c0,0,2.6-0.7,3.1,1.9C25,55.2,26.5,52.8,27.7,53.6z"/>
	</g>
	<g>
		<path class="st8" d="M24.8,47.8c0,0-0.6,2.8-4.2,1.4c0,0-3.2,2.3-4.9-0.7c0,0-1.8,2.2-2.9-1c0,0-1.7-0.2-1.3-2.6
			c0,0-2.3,0.1-2.1-1.1c1.6-0.1,4,0.1,4,2c0,0,2.2-0.8,2.4,1.7c0,0,2.2-1.9,3,1.3c0,0,3.5-1.2,4.2,0c0,0-0.2-2.8,1.1-1.9
			c0,0,0.4-1,0.9-1.7C25.6,46.4,26.3,47.4,24.8,47.8z"/>
	</g>
</g>
</svg>
