<?xml version="1.0" encoding="utf-8"?>
<!-- Generator: Adobe Illustrator 25.0.1, SVG Export Plug-In . SVG Version: 6.00 Build 0)  -->
<svg version="1.1" id="Layer_1" xmlns="http://www.w3.org/2000/svg" xmlns:xlink="http://www.w3.org/1999/xlink" x="0px" y="0px"
	 viewBox="0 0 80 50" style="enable-background:new 0 0 80 50;" xml:space="preserve">
<style type="text/css">
	.st0{fill:#61823C;}
	.st1{fill:#517826;}
	.st2{fill:#3E6618;}
	.st3{fill:#CFCF78;}
	.st4{fill:#C2C267;}
	.st5{fill:#B0AB51;}
	.st6{fill:#AD9B50;}
	.st7{fill:#A18743;}
	.st8{fill:#854A36;}
	.st9{fill:#7D432F;}
	.st10{fill:#96583E;}
	.st11{fill:#633327;}
	.st12{fill:#663528;}
	.st13{fill:#5C2D21;}
	.st14{fill:#6E8F49;}
	.st15{fill:#FFFFFF;}
	.st16{fill:#FFB04F;}
	.st17{fill:#D66B00;}
	.st18{fill:#D6EBFF;}
	.st19{fill:#4F6E2C;}
	.st20{fill:#90B369;}
	.st21{opacity:0.4;}
	.st22{fill:#547D28;}
	.st23{opacity:0.44;}
</style>
<g>
	<path class="st0" d="M47.9,29c0.9,3.3,2.7,8.5,9.7,12.9c7,4.4,12.4,3,12.5,2.3c0.1-0.7-3.1-9.5-11.7-14.4c-2-1.1-4.8-2.1-6.7-3.8
		C50.7,25,47.1,26.3,47.9,29z"/>
	<path class="st1" d="M51.7,26c1.8,1.7,4.7,2.7,6.7,3.8c0.4,0.2,0.9,0.5,1.3,0.8c-1.4,1.3-2.7,3.1-2.3,5.2c0.8,3.8,8.8,8.7,12.8,8.4
		c-0.1,0.7-5.6,2.1-12.5-2.3s-8.8-9.6-9.7-12.9C47.1,26.3,50.7,25,51.7,26z"/>
	<path class="st2" d="M65.2,20.8c-3-1.1-3.9,3.4-6.7,7.4c-3.4,4.1-9.1,10-30.2,8.6C16.4,36.1,6.2,29,7.4,21.6
		c1.2-3.3,29.2,0.8,31.7-0.7c3.5-2.2,10.5-10.6,13-10.2C54.6,11.1,68.8,22.2,65.2,20.8z"/>
	<path class="st1" d="M49.9,27.9c-3.9-1.8-5.4-6-1.7-9.8c2-2,8-2.1,11.8-2.4c1.8,1.4,3.5,2.7,4.5,3.7l0.2,1.3
		c-2.6-0.5-3.6,3.8-6.3,7.6c-0.5,0.6-0.8-1.2-1.5-0.5C55.5,29.3,51.8,28.8,49.9,27.9z"/>
	<path class="st3" d="M59.2,27.1c-0.2,0.3-1.9,3.5-6.3,3.9c-5.6,0.4-8.1-1.1-12.1,0.1c-5.8,1.8-7.6,5.7-11.9,5.3
		c-4.3-0.3-5.3-3.2-9.4-4.8c-4.1-1.6-4.6-0.2-7.5-2.4c-2.6-1.9-3.1-4.2-5.1-5.3c0,0,1,7.3,11.2,12c10.2,4.7,24.2,3.2,31.1,0.1
		C56,33,59.2,27.1,59.2,27.1z"/>
	<path class="st4" d="M47.9,36.6c-7.2,2.8-20.4,3.9-30-0.6c-3.8-1.8-6.3-3.9-8-5.8c1.3,0.6,2.8,1.1,4.3,1c1.7-0.2,3.7,0.1,5.6,0.7
		c3.7,1.6,4.8,4.2,8.9,4.6c4.3,0.3,6.1-3.5,11.9-5.3c4-1.3,6.5,0.3,12.1-0.1c0.1,0,0.3,0,0.4-0.1c0.3,0.2,0.4,0.4,0.2,0.6
		c-1.7,1.6-9.1,0.4-10.9,0.3c-1.8-0.1-6.3,3.3-4.2,5.1C39.9,38.2,45,37.3,47.9,36.6z"/>
	<g>
		<path class="st5" d="M51.3,35c-0.4,0.3-0.9,0.5-1.3,0.7c-2.3,0.1-5.3-0.4-8.4-2.4c-0.1-0.1-0.2-0.3-0.1-0.4
			c0.1-0.1,0.3-0.2,0.4-0.1C45.4,35.2,49.1,35.2,51.3,35z"/>
		<path class="st5" d="M38.4,34.7c1.3,1.5,3.2,2.6,4.9,3.3c-0.4,0.1-0.7,0.2-1.1,0.2c-1.6-0.7-3.2-1.7-4.3-3.1
			c-0.1-0.1-0.1-0.3,0-0.4C38,34.5,38.2,34.5,38.4,34.7z"/>
		<path class="st5" d="M35.9,38.9c-0.8-0.7-1.7-1.6-2.4-2.8c-0.1-0.1,0-0.3,0.1-0.4c0.1-0.1,0.3,0,0.4,0.1c0.8,1.4,1.8,2.4,2.8,3.1
			C36.6,38.9,36.2,38.9,35.9,38.9z"/>
		<path class="st5" d="M16.2,35.1c-0.8-2-0.6-3.4-0.6-3.5c0-0.2,0.2-0.3,0.3-0.3c0.2,0,0.3,0.2,0.3,0.3c0,0-0.1,1.6,0.9,3.9
			C16.8,35.4,16.5,35.2,16.2,35.1z"/>
		<path class="st5" d="M19.3,32c0.2,0,0.3,0.1,0.4,0.2c0.4,1.7,1.2,3.5,2.1,5.2c-0.3-0.1-0.6-0.2-0.8-0.3c-0.8-1.5-1.5-3.2-1.9-4.8
			C19,32.2,19.1,32,19.3,32z"/>
	</g>
	<g>
		<path class="st6" d="M30.3,38c2.9-0.2,5.4-2.3,7.5-4.1c0.8-0.7,1.5-1.3,2.2-1.8c2-1.4,5.7-0.9,9-0.4c1.9,0.3,3.6,0.5,5.2,0.5
			c4.4-0.2,6.7-3.3,7.4-4.4c1.1-2.1,0.8-3.5,0.2-3.8c-0.6-0.3-2.5,2.2-2.9,2.8c-0.1,0.1-1.5,2.7-4.8,2.8c-1.3,0.1-2.9-0.2-4.7-0.4
			c-3.8-0.5-8.1-1.2-10.9,0.9c-0.8,0.6-1.6,1.3-2.4,1.9c-3.2,2.7-5.3,4.3-8.2,3.1c-1.7-0.7-2.8-1.6-4-2.4c-1.9-1.5-3.7-2.8-7.2-2.3
			c-1.9,0.3-3.9-0.3-5.5-1.6c-1.5-1.3-2.5-3-2.5-4.8c0-0.7-0.6-1.3-1.4-1.3c-0.7,0-1.3,0.6-1.3,1.4c0.1,2.5,1.4,5,3.5,6.7
			c2.2,1.8,4.9,2.5,7.6,2.1c2.4-0.4,3.4,0.4,5.2,1.8c1.2,0.9,2.5,1.9,4.5,2.8C28.1,37.9,29.2,38.1,30.3,38z"/>
		<path class="st7" d="M7.3,22.7c0.7,0,1.3,0.5,1.4,1.3c0.1,1.7,0.9,3.3,2.3,4.6c0.3,1,0.8,2.2,1.6,2.6c2.5,1.3,4.4-0.2,6.7,0.2
			c2.4,0.4,6.8,5,9.9,5.7c3,0.7,8.3-5.5,11.7-6.7c3.2-1.2,10.8,0.9,12.7,0.5c0.7-0.1,0.9-0.7,1-1.4c2.9-0.4,4.1-2.6,4.2-2.8
			c0.2-0.3,0.6-1,1.2-1.6l2.2-0.5c0.2,0.7,0.1,1.8-0.7,3.2c-0.6,1.1-2.9,4.2-7.4,4.4c-1.5,0.1-3.3-0.2-5.2-0.5c-3.3-0.5-7.1-1-9,0.4
			c-0.7,0.5-1.5,1.1-2.2,1.8c-2.1,1.8-4.5,3.8-7.5,4.1c-1.1,0.1-2.2-0.1-3.4-0.6c-2-0.8-3.3-1.9-4.5-2.8c-1.8-1.3-2.8-2.2-5.2-1.8
			c-2.6,0.4-5.4-0.3-7.6-2.1c-2.1-1.7-3.4-4.2-3.5-6.7C6,23.3,6.6,22.7,7.3,22.7z"/>
	</g>
	<path class="st0" d="M34,30.6c-0.4,3.4-1.4,8.8-7.5,14.3c-6.2,5.5-11.8,4.9-12,4.3s1.6-9.9,9.3-16.1c1.8-1.4,4.4-2.8,6-4.8
		C30.6,27.1,34.3,27.9,34,30.6z"/>
	<path class="st1" d="M23.7,33.1c1.8-1.4,4.4-2.8,6-4.8c0.9-1.2,4.6-0.4,4.3,2.3c-0.1,0.7-0.2,1.5-0.4,2.4c0,0-1.8-1.3-4.7-0.9
		C26,32.6,16.1,43,15.1,49.5c-0.4-0.1-0.6-0.2-0.7-0.3C14.2,48.5,16,39.3,23.7,33.1z"/>
	<path class="st0" d="M16,27.1c0,0,0.1,2.3-3.2,5.8C9.5,36.3,1.4,37.8,0.2,37c-1.2-0.8,2.6-6.8,6.2-9.1C9.2,26,15.6,23.5,16,27.1z"
		/>
	<path class="st1" d="M6.4,27.8c2.9-1.9,9.2-4.3,9.6-0.8c0,0,0.1,1.6-1.7,4.1c0,0,0.3-2.8-3.5-2.3C6.9,29.4,0.5,34.9,0.2,37
		C-1,36.1,2.8,30.2,6.4,27.8z"/>
	<g>
		<path class="st8" d="M13,23.5c2.6,0.1,3.1,2.9,6.6,5.3c3.5,2.3,5.7-0.6,8.3-0.7c2.6-0.1,7.2,2,9.8,1.8c0.5,0,1-0.2,1.5-0.5
			c0.2-0.1,0.4-0.2,0.6-0.3c2.1-1.4,4.1-4.6,4.4-8.5c0.5-5.1,5.1-9.8,5.1-9.8s-2.1-3.1-7-5.5c-0.2-0.1-0.4-0.2-0.6-0.3
			c-2.5-1.1-5.7-2-9.5-2.1C27,2.7,22,4.7,17.9,7.3c-0.2,0.1-0.4,0.2-0.6,0.4c-5.3,3.6-9,8.2-9.5,10.8C6.9,23.1,10.4,23.5,13,23.5z"
			/>
		<path class="st8" d="M17.5,7.6c4.2-2.8,9.3-4.9,14.7-4.7c4.1,0.2,7.5,1.1,10,2.3c0,0-7.5,5.4-9.4,9.4c0,0-6.8-1.8-10.7-0.8
			C22.2,13.9,20.9,9.4,17.5,7.6z"/>
		<path class="st8" d="M17.5,7.6c3.4,1.8,4.6,6.3,4.6,6.3s-4.8,4.6-7,10.6c-0.6-0.6-1.3-0.9-2.2-0.9c-2.6-0.1-6.1-0.5-5.2-5
			C8.4,15.9,12.1,11.2,17.5,7.6z"/>
		<path class="st8" d="M42.2,5.3c5,2.3,7.1,5.5,7.1,5.5s-4.6,4.8-5.1,9.8c-0.4,4-2.5,7.2-4.6,9.1c-1-5.6-2.7-10.7-6.7-15.1
			C34.7,10.7,42.2,5.3,42.2,5.3z"/>
		<path class="st9" d="M45.5,13.2c0,0-2.7,4.9-4.6,6.3c-1.9,1.4-4.7-4.8-5.1-5.9c-0.4-1.1,0.6-3.4,0.6-3.4s-3.7,3.9-3.6,4.5
			c0.1,0.6,3.1,2.7,4.8,8c1.6,5.3,1.8,6.7,1.8,6.7L45.5,13.2z"/>
		<path class="st9" d="M8.8,16.2c-0.7,3.7,1,4.9,3.6,4.7c2.6-0.2,3.5,1.7,3.5,1.7c1.9-0.6,3.1,2.4,4.3,3.8c1.7,1.9,4.6,1.2,6.4-0.5
			c1.8-1.7,4.5-1.5,6.7,0.4c3.2,2.6,5,1.9,5,1.9l-0.4,1.7c-0.1,0-0.1,0-0.2,0c-2.7,0.2-7.2-1.8-9.8-1.8c-2.6,0.1-4.8,3-8.3,0.7
			c-3.5-2.3-4-5.2-6.6-5.3c-2.6-0.1-6.1-0.5-5.2-5C8,17.9,8.3,17.1,8.8,16.2z"/>
		<path class="st10" d="M17.7,7.5c0.1,0,0.1-0.1,0.2-0.1C22,4.7,27,2.7,32.2,2.9c3.9,0.2,7,1,9.5,2.1c0.2,0.1,0.4,0.2,0.6,0.3
			c4.9,2.3,7,5.5,7,5.5s-0.4,0.4-1,1.2l-0.2,0.2c0,0-6-5.5-14.2-6.7C24.6,4.1,18,7.6,18,7.6L17.7,7.5z"/>
		<path class="st9" d="M38.2,8c0.2-0.1-5.9,4.1-6.6,4c-0.7-0.1-6-0.7-7.1-0.7c-1.1,0-4.1-2.9-5.8-3.4c0,0,2.9,3.2,3.8,5.9
			c0,0,5.8-0.4,10.4,0.9C33,14.7,34.2,11.1,38.2,8z"/>
		<path class="st10" d="M16.1,8.6c0.4-0.3,0.9-0.7,1.4-1c0.5,0.3,0.9,0.6,1.3,0.9c1.5,1.4,2.4,3.3,2.7,3.9c0.4,0.8,0.7,1.5,0.2,2
			c-0.9,1-2.8,3.1-4.5,5.9c0,0,2.2-6.2,2.3-7.4c0.1-1.2-3.1-4.2-3.1-4.2L16.1,8.6z"/>
		<path class="st10" d="M38.6,26.8c0,0-5.7-9.1-7.1-9.6c-1.4-0.5-8.2-1.3-8.7-1.2c-0.5,0.1-6.2,5.2-6.2,5.2s4.8-7.2,6-7.6
			c1.2-0.4,9.8,0.6,10.3,1.3C33.5,15.7,37.8,21.2,38.6,26.8z"/>
		<g>
			<g>
				<path class="st11" d="M17.4,7.7c3,1.8,4.5,6.2,4.5,6.3l0.1,0.3l0.3-0.1c3.7-1,10.4,0.8,10.5,0.8l0.2-0.6
					c-0.3-0.1-6.6-1.8-10.6-0.9c-0.4-1-1.8-4.4-4.4-6.2C17.7,7.5,17.6,7.6,17.4,7.7z"/>
			</g>
			<g>
				<path class="st11" d="M15.5,24.6c2.2-5.9,6.9-10.5,6.9-10.5l-0.4-0.4c0,0-4.8,4.7-7.1,10.7L15.5,24.6z"/>
			</g>
			<g>
				<path class="st11" d="M32.5,14.9l0.1,0.2c3.4,3.7,5.4,8,6.6,14.6c0,0.1,0,0.2,0.1,0.3l0.6-0.1c0-0.2-0.1-0.4-0.1-0.6
					c-1.3-6.4-3.2-10.8-6.6-14.5c1.5-3,6.2-7.1,9.2-9.3c-0.2-0.1-0.4-0.2-0.6-0.3c-3.1,2.3-7.8,6.5-9.2,9.5L32.5,14.9z"/>
			</g>
		</g>
		<g>
			<path class="st12" d="M50,13c0,0-2.4,2.1-4.1,7.5c-1.6,5-1.9,9.2-6.7,10.5c-4.7,1.3-6.4-1.4-9.4-1.7c-2.9-0.3-5.1,3.9-9.1,3.1
				s-3.8-5.6-6.1-6.9c-2.3-1.3-4.7,1.2-7.2-0.3c-2.5-1.5-3-4-1.6-5.6c1.4-1.6,2-1.1,2-1.1s-0.5,4,2.1,4c2.6,0,5.6-1.7,7.7,1.9
				c2.2,4,4,5.1,6.7,4.3c2.4-0.8,3.1-2.8,5.9-2.5c2.5,0.3,4.7,3.2,8.2,2C42,26.9,42.7,9.4,51.5,9.4l0.7,3.3L50,13z"/>
			<path class="st13" d="M7.5,25.2c-2.5-1.5-3-4-1.6-5.6c1.4-1.6,2-1.1,2-1.1s-0.4,3.1,1.3,3.8c-1.1,2.7,3.1,1,5.5,1.4
				s3.8,5.2,5.8,6.7c2,1.5,5.3-1.3,7.4-2.3c2.2-1.1,3.4,0.1,6.9,1.6c3.6,1.5,6.6-1.6,7.6-3.9c1.1-2.4,1.9-4.6,2.3-7.3
				C45.2,15.9,45,14,45,14s0,0,0,0c1.5-2.6,3.6-4.6,6.5-4.6l0.7,3.3L50,13c0,0-2.4,2.1-4.1,7.5c-1.6,5-1.9,9.2-6.7,10.5
				c-4.7,1.3-6.4-1.4-9.4-1.7c-2.9-0.3-5.1,3.9-9.1,3.1c-4-0.9-3.8-5.6-6.1-6.9C12.4,24.2,9.9,26.7,7.5,25.2z"/>
		</g>
	</g>
	<g>
		<path class="st14" d="M78.8,11.9c2.7,7.6,0.8,12.1-7.2,15.8c-7.3,3.4-19.9,1.6-22.8-2.5c-3.2-4.5-2.7-13,0.9-18.1
			C53.5,1.7,60.1-0.8,67.5,1C73.8,2.5,77.6,8.5,78.8,11.9z"/>
		<g>
			<ellipse transform="matrix(0.1038 -0.9946 0.9946 0.1038 39.8483 72.2983)" class="st15" cx="60" cy="14" rx="5.4" ry="5.4"/>
			<g>
				<path class="st16" d="M57.5,13.8c-0.5,2,0.7,3.9,2.6,4.4c2,0.5,3.9-0.7,4.4-2.6s-0.7-3.9-2.6-4.4C59.9,10.6,58,11.8,57.5,13.8z"
					/>
				<path class="st17" d="M63.3,16.4c0.4-1.7-0.6-3.5-2.4-4c-1.4-0.4-2.8,0.3-3.6,1.4c0,0,0-0.1,0-0.1c0.5-2,2.5-3.1,4.4-2.6
					c2,0.5,3.1,2.5,2.6,4.4c-0.3,1.2-1.2,2.1-2.3,2.5C62.7,17.7,63.2,17.1,63.3,16.4z"/>
				<path d="M58.5,14c-0.4,1.4,0.5,2.8,1.9,3.1c1.4,0.4,2.8-0.5,3.1-1.9c0.4-1.4-0.5-2.8-1.9-3.1C60.3,11.8,58.8,12.7,58.5,14z"/>
				<path class="st15" d="M62.1,13.8c-0.1,0.5,0.2,1,0.6,1.1c0.5,0.1,1-0.2,1.1-0.6c0.1-0.5-0.2-1-0.6-1.1
					C62.8,13.1,62.3,13.4,62.1,13.8z"/>
				<path class="st15" d="M58.2,15.2c-0.1,0.4,0.1,0.7,0.5,0.8c0.4,0.1,0.7-0.1,0.8-0.5c0.1-0.4-0.1-0.7-0.5-0.8
					C58.7,14.6,58.3,14.8,58.2,15.2z"/>
			</g>
			<path class="st18" d="M55.3,13.5c0.7-2.7,3.4-4.3,6.1-3.6c2.6,0.7,4.2,3.2,3.7,5.8c0-0.1,0.1-0.2,0.1-0.3c0.7-2.9-1-5.8-3.9-6.5
				c-2.9-0.7-5.8,1-6.5,3.9c-0.4,1.7,0,3.5,1.1,4.7C55.2,16.3,54.9,14.9,55.3,13.5z"/>
			<path class="st19" d="M65.4,13.7c0-1.4-0.6-2.8-1.6-3.8c-1.1-1-2.6-1.6-4-1.5c-0.7,0-1.5,0.2-2.1,0.6c-0.7,0.3-1.3,0.8-1.7,1.3
				c-0.5,0.6-0.8,1.2-1,1.9c-0.2,0.7-0.3,1.4-0.2,2.1c0.1-1.4,0.7-2.7,1.6-3.7c0.9-0.9,2.2-1.5,3.5-1.6c1.3-0.1,2.6,0.4,3.7,1.2
				C64.4,11.1,65.2,12.3,65.4,13.7z"/>
		</g>
		<g>
			
				<ellipse transform="matrix(0.9968 -7.946153e-02 7.946153e-02 0.9968 -0.7568 5.9629)" class="st15" cx="74.5" cy="12.5" rx="3" ry="4.6"/>
			<g>
				<path class="st16" d="M73.1,12.2c-0.2,1.7,0.5,3.4,1.6,3.9c1.1,0.5,2.2-0.5,2.4-2.2c0.2-1.7-0.5-3.4-1.6-3.9
					C74.4,9.6,73.3,10.5,73.1,12.2z"/>
				<path class="st17" d="M76.4,14.6c0.2-1.5-0.4-3-1.4-3.5c-0.8-0.3-1.6,0.2-1.9,1.1c0,0,0,0,0-0.1c0.2-1.7,1.3-2.6,2.4-2.2
					c1.1,0.5,1.8,2.2,1.6,3.9c-0.1,1-0.6,1.8-1.2,2.1C76.1,15.7,76.4,15.2,76.4,14.6z"/>
				<path d="M73.7,12.4c-0.2,1.2,0.3,2.4,1.1,2.7c0.8,0.3,1.5-0.3,1.7-1.5c0.2-1.2-0.3-2.4-1.1-2.7C74.6,10.6,73.8,11.3,73.7,12.4z"
					/>
				<path class="st15" d="M75.7,12.4c-0.1,0.4,0.1,0.8,0.4,1c0.3,0.1,0.5-0.1,0.6-0.5c0.1-0.4-0.1-0.8-0.4-1
					C76,11.7,75.8,12,75.7,12.4z"/>
				<path class="st15" d="M73.5,13.4c0,0.3,0.1,0.6,0.3,0.7c0.2,0.1,0.4-0.1,0.5-0.4c0-0.3-0.1-0.6-0.3-0.7
					C73.8,12.9,73.6,13.1,73.5,13.4z"/>
			</g>
			<path class="st18" d="M71.9,12c0.3-2.3,1.8-3.6,3.3-3c1.5,0.6,2.4,2.9,2.2,5.1c0-0.1,0-0.2,0-0.3c0.3-2.5-0.7-5-2.3-5.7
				c-1.6-0.7-3.2,0.7-3.6,3.2c-0.2,1.5,0.1,3,0.7,4.1C71.9,14.3,71.7,13.1,71.9,12z"/>
			<path class="st19" d="M77.5,12.3c0-1.2-0.4-2.5-1-3.3c-0.6-0.9-1.5-1.4-2.3-1.4c-0.4,0-0.8,0.2-1.2,0.4c-0.4,0.3-0.7,0.6-0.9,1.1
				c-0.3,0.5-0.4,1-0.5,1.6c-0.1,0.6-0.1,1.2,0,1.8c0-1.2,0.3-2.3,0.8-3.1c0.5-0.8,1.2-1.3,1.9-1.3c0.7,0,1.5,0.4,2.1,1.1
				C76.9,10.1,77.4,11.1,77.5,12.3z"/>
		</g>
		<g>
			<path class="st19" d="M69.3,23.6c-2.2,0-2.9-3.3-3-3.5c0-0.2,0.1-0.3,0.2-0.3c0.2,0,0.3,0.1,0.3,0.2c0,0,0.7,3.2,2.5,3
				c1.9-0.1,2.4-3.2,2.4-3.3c0-0.2,0.2-0.3,0.3-0.2c0.2,0,0.3,0.2,0.2,0.3c0,0.1-0.6,3.6-2.9,3.7C69.5,23.6,69.4,23.6,69.3,23.6z"/>
		</g>
		<g>
			<path class="st14" d="M74.9,19.2c0.7-1.4-0.1-4.7-2.7-5.7c-2.3-0.9-5.5,0.4-6.2,2C66.9,18.7,72.4,20.3,74.9,19.2z"/>
			<g>
				<g>
					<path class="st19" d="M75.1,18.3c0-0.9-0.3-1.9-0.8-2.7c-0.5-0.8-1.1-1.5-2-1.8c-0.8-0.4-1.8-0.4-2.7-0.3
						c-0.9,0.1-1.8,0.5-2.6,1c0,0-0.1,0-0.1,0c0,0,0,0,0-0.1c0.7-0.6,1.7-1,2.6-1.2c1-0.2,2-0.1,2.9,0.3c0.9,0.4,1.7,1.2,2.1,2
						C75.1,16.3,75.3,17.3,75.1,18.3C75.2,18.3,75.2,18.3,75.1,18.3C75.1,18.3,75.1,18.3,75.1,18.3z"/>
				</g>
			</g>
			<path class="st20" d="M72.1,14.4c1.6,0.8,1.5,2.5-0.1,2.5c-1.7,0-3-1.6-2.7-2.2C69.5,14.1,70.8,13.8,72.1,14.4z"/>
		</g>
		<path class="st0" d="M48.8,25.2c-3.2-4.5-2.7-13,0.9-18.1c0.1-0.2,0.2-0.3,0.4-0.5c-0.8,2.6-0.4,17,11.4,18.8
			c13.2,1.9,17.8-4.9,18.2-5.5c-0.8,3.2-3.4,5.6-8.1,7.8C64.4,31.1,51.8,29.2,48.8,25.2z"/>
		<path class="st20" d="M69.8,3.5c2.3,1.8-0.1,3.9-3.5,2.8c-3.4-1.1-4.2-3-3.2-3.8C63.9,1.8,67.4,1.6,69.8,3.5z"/>
	</g>
	<g class="st21">
		<path class="st22" d="M28.4,35.1c0.3-0.6,0.8-1.3,1.5-1.4c0.4-0.1,0.8,0,1.1,0.2c1,0.7,0.5,2.2,0,3c-0.2,0.3-0.5,0.6-0.8,0.8
			c-0.4,0.2-0.9,0.3-1.4,0.1C27.7,37.2,27.9,35.9,28.4,35.1z"/>
		<path class="st22" d="M26.1,38.7c-0.1,0.2-0.3,0.3-0.5,0.4c-0.2,0.1-0.5,0.3-0.7,0.2c-0.6-0.2-0.5-1-0.4-1.5
			c0.1-0.6,0.4-1.2,1.1-1.4c0.5-0.2,1,0.1,1.1,0.7C26.8,37.7,26.5,38.3,26.1,38.7z"/>
		<path class="st22" d="M26.6,42.7C26.6,42.7,26.6,42.7,26.6,42.7c-0.5,0.2-1.1,0-1.1-0.5c0-0.3,0.1-0.5,0.2-0.8
			c0.2-0.4,0.4-0.8,0.8-1c0.8-0.4,1.6,0.2,1.3,1c-0.1,0.3-0.3,0.5-0.5,0.7C27.1,42.4,26.9,42.6,26.6,42.7z"/>
		<path class="st22" d="M22.1,42c0.4-0.5,1-1,1.4-0.4c0.4,0.6-0.1,1.4-0.5,1.7c-0.4,0.3-1,0.4-1.2-0.1c-0.1-0.2-0.1-0.4,0-0.6
			C21.8,42.5,21.9,42.2,22.1,42z"/>
		<path class="st22" d="M26.7,32.5c0-0.1,0.1-0.2,0.2-0.3c0.3-0.4,1-0.9,1.5-0.6c0.2,0.1,0.3,0.3,0.3,0.5c0,0.2,0,0.4-0.1,0.5
			c-0.2,0.5-1.1,1.2-1.7,0.8C26.6,33.2,26.6,32.8,26.7,32.5z"/>
		<path class="st22" d="M22.3,39.8c0,0-0.1,0-0.1,0c-0.3,0-0.4-0.4-0.3-0.7c0.1-0.2,0.2-0.3,0.4-0.3c0.1,0,0.2-0.1,0.3,0
			c0.1,0.1,0.2,0.2,0.2,0.3c0,0.2-0.1,0.4-0.3,0.6C22.5,39.8,22.4,39.8,22.3,39.8z"/>
		<path class="st22" d="M21.9,46.6c-0.1,0-0.2-0.1-0.3-0.2c-0.1-0.2-0.1-0.3,0-0.5c0.2-0.4,0.6-0.7,1.1-0.6c0.1,0,0.2,0.1,0.3,0.2
			c0.1,0.4-0.4,0.8-0.7,1C22.2,46.5,22,46.6,21.9,46.6z"/>
	</g>
	<g class="st21">
		<path class="st22" d="M13.1,30.5c-0.3,0.2-0.6,0.4-1,0.3c-0.9-0.1-1.1-1.2-0.8-1.9c0.2-0.5,0.7-1,1.2-1.3c0.4-0.2,0.8-0.3,1.2,0
			c0.6,0.5,0.2,1.7-0.2,2.2C13.5,30.1,13.3,30.3,13.1,30.5z"/>
		<path class="st22" d="M8.1,31c-0.4-0.3-0.3-1,0.2-1.4c0.4-0.3,1.4-0.8,1.6,0c0.2,0.6-0.5,1.3-1.1,1.4C8.5,31.1,8.3,31.1,8.1,31z"
			/>
		<path class="st22" d="M7.5,33.1c0.1-0.2,0.2-0.3,0.4-0.4c0.3-0.2,0.6-0.3,0.9-0.3c0.3,0,0.7,0.2,0.7,0.6c0,0.2-0.1,0.4-0.3,0.6
			c-0.3,0.3-0.6,0.4-1,0.4c-0.2,0-0.5-0.1-0.6-0.3C7.3,33.5,7.4,33.3,7.5,33.1z"/>
		<path class="st22" d="M5,33.1c-0.1,0-0.3,0-0.4,0c-0.3-0.1-0.4-0.4-0.4-0.7c0-0.6,0.6-1.3,1.2-1.4c0.4-0.1,0.8,0.1,0.9,0.6
			c0.1,0.3,0,0.6-0.2,0.9C6,32.6,5.5,33,5,33.1z"/>
		<path class="st22" d="M4,34.5c0.2-0.2,0.5-0.3,0.7-0.2c0.4,0,0.4,0.4,0.1,0.7c-0.1,0.1-0.3,0.2-0.5,0.2c-0.3,0-0.7,0-0.5-0.4
			C3.9,34.6,4,34.5,4,34.5z"/>
	</g>
	<g class="st21">
		<path class="st22" d="M63.2,35.5c0.1,0.2,0.1,0.5,0.1,0.7c-0.1,0.7-1,0.7-1.5,0.6c-0.7-0.2-1.2-0.8-1.5-1.4
			c-0.1-0.2-0.1-0.4-0.1-0.6c0-0.2,0.2-0.4,0.3-0.5c0.9-0.5,2,0.2,2.5,1C63.1,35.3,63.2,35.4,63.2,35.5z"/>
		<path class="st22" d="M58,36.6c-0.1,0-0.1,0-0.2,0c-0.7,0-1.6-0.5-1.7-1.3c-0.1-0.8,0.8-0.9,1.3-0.6c0.4,0.2,1.3,1,1,1.6
			C58.3,36.5,58.2,36.6,58,36.6z"/>
		<path class="st22" d="M63.2,40.4c-0.5,0.2-1.2-0.1-1.5-0.4c-0.5-0.5-0.3-1.2,0.4-1.2c0.5,0,1.2,0.3,1.4,0.8
			c0.1,0.3,0.1,0.6-0.1,0.8C63.2,40.4,63.2,40.4,63.2,40.4z"/>
		<path class="st22" d="M66.5,39.3c0,0.2,0,0.4-0.2,0.5c-0.2,0.1-0.5,0.1-0.7,0c-0.5-0.2-1.4-0.9-1.2-1.6c0.3-1.1,1.4-0.2,1.8,0.3
			C66.3,38.8,66.5,39,66.5,39.3z"/>
		<path class="st22" d="M66.2,41.9C66.2,41.9,66.2,41.9,66.2,41.9c-0.2,0.1-0.4,0.1-0.5,0c-0.2-0.1-0.5-0.3-0.6-0.5
			C64.9,41.2,65,41,65.3,41c0.3-0.1,0.7,0.1,0.9,0.3C66.3,41.5,66.4,41.7,66.2,41.9z"/>
	</g>
	<g class="st21">
		<path class="st22" d="M69.5,8.7c-0.5,0.3-1,0.3-1.6,0.1c-0.7-0.2-1.3-0.7-1.8-1.2c-0.2-0.3-0.4-0.6-0.5-0.9
			c-0.7-2.5,3.1-3.1,4.3-1.3C70.5,6.2,70.6,8,69.5,8.7z"/>
		<path class="st22" d="M62.3,6.7c-0.3-0.1-0.6-0.2-0.9-0.3c-0.3-0.1-0.6-0.3-0.8-0.5c-1.6-1.8,1.9-3.3,3.1-1.8
			c0.4,0.5,0.5,1.2,0.3,1.7c-0.1,0.3-0.3,0.6-0.7,0.8C63,6.8,62.7,6.8,62.3,6.7z"/>
		<path class="st22" d="M66.3,2c0,0,0,0.1,0,0.1c-0.1,0.7-1,0.8-1.5,0.6c-0.2-0.1-0.4-0.2-0.6-0.4C64.1,2.1,64,1.9,64,1.7
			c0.2-0.8,1.3-0.6,1.8-0.3C66.1,1.5,66.3,1.7,66.3,2z"/>
		<path class="st22" d="M56.2,6.7c0,0-0.1,0-0.1,0c-0.8,0-1.2-0.8-0.7-1.4c0.2-0.2,0.5-0.4,0.8-0.5c0.3-0.1,0.9-0.1,1.2,0.2
			c0.2,0.2,0.2,0.4,0.2,0.6c-0.1,0.2-0.2,0.4-0.3,0.6C56.8,6.4,56.5,6.6,56.2,6.7z"/>
		<path class="st22" d="M52.5,9.7c-0.3,0.3-0.8,0.6-1.3,0.5c-0.3-0.1-0.5-0.3-0.6-0.6c-0.1-0.3-0.1-0.6-0.1-0.9
			c0-0.5,0.2-1.1,0.6-1.5c0.4-0.4,0.9-0.6,1.5-0.5c0.5,0.1,0.7,0.5,0.8,1c0,0.3-0.1,0.6-0.2,1C52.9,9.1,52.8,9.4,52.5,9.7z"/>
		<path class="st22" d="M52.8,16.9c0,0.2,0,0.5-0.1,0.7c-0.4,1.3-1.9,1.4-2.9,0.6c-0.6-0.6-0.9-1.5-1.1-2.3
			c-0.2-0.8-0.2-1.8,0.7-2.3c1.5-0.8,2.7,0.7,3.1,1.9C52.7,16,52.8,16.5,52.8,16.9z"/>
		<path class="st22" d="M54.7,20.1c0,0,0-0.1,0.1-0.1c0.3-0.5,0.9-0.2,1.3,0.1c0.2,0.1,0.3,0.3,0.4,0.5c0.3,0.7-0.7,1.1-1.2,0.8
			C54.8,21.3,54.4,20.6,54.7,20.1z"/>
		<path class="st22" d="M53.1,21.6c0.3,0.4,0.5,0.9,0.4,1.4c0,0.3-0.2,0.7-0.5,0.8c-0.4,0.3-1,0.2-1.4,0c-0.6-0.3-1.2-0.9-1.5-1.4
			c-0.2-0.4-0.4-0.8-0.3-1.2c0.1-0.4,0.4-0.7,0.8-0.8c0.8-0.2,1.5,0.3,2,0.8C52.9,21.3,53,21.5,53.1,21.6z"/>
		<path class="st22" d="M58.7,24c0.1,0.1,0.1,0.1,0.1,0.2c0.2,0.3,0.4,0.6,0.4,0.9c0,0.8-1,0.8-1.5,0.6c-0.4-0.2-0.8-0.4-1.1-0.8
			c-0.2-0.2-0.3-0.4-0.4-0.6c-0.1-0.2,0-0.5,0.1-0.7C56.9,22.9,58.1,23.4,58.7,24z"/>
		<path class="st22" d="M54.1,2.9c2-1.3,4.4-2.1,7-2.4c0,0.4-0.3,0.9-0.4,1.1c-0.3,0.5-0.8,1-1.3,1.3C58.1,3.7,55.2,4.1,54.1,2.9z"
			/>
	</g>
	<g class="st23">
		<path class="st10" d="M43.9,11.9c-0.1,0-0.2,0-0.3,0c-0.8-0.2-3.8-1.7-3.6-3.1c0.1-0.7,0.6-1.6,1.5-2.1c0.5-0.2,1.2-0.4,2.2,0.1
			c2.2,1.1,3.3,2.3,2.9,3.2C46,10.9,44.9,11.9,43.9,11.9z M42.4,7c-0.3,0-0.5,0.1-0.7,0.2c-0.7,0.3-1.1,1.1-1.2,1.7
			c-0.1,0.9,2.3,2.3,3.2,2.5c0.7,0.2,1.8-0.6,2.3-1.6c0.2-0.5-0.6-1.5-2.6-2.5C43.1,7.1,42.7,7,42.4,7z"/>
	</g>
	<g class="st23">
		<path class="st10" d="M36.9,7.5c-0.2,0-0.4,0-0.6-0.1c0,0-0.2-0.1-0.4-0.1c-1.2-0.4-4.8-1.7-7.1-1.7c-2.5,0-2.5-0.6-2.6-0.8
			c0-0.3,0.2-0.8,2.3-1.3c5.8-1.4,10.3,0.9,10.8,1.3c0.4,0.3,0.4,0.8,0.2,1.3C39.1,6.9,38,7.5,36.9,7.5z M26.8,4.8
			c0.2,0.1,0.7,0.3,2,0.3c2.4,0,6.1,1.3,7.3,1.7c0.2,0.1,0.3,0.1,0.4,0.1c1.1,0.3,2.3-0.4,2.6-1.1c0.1-0.3,0.1-0.5,0-0.6
			c-0.4-0.3-4.7-2.4-10.3-1.1C27.3,4.5,26.9,4.7,26.8,4.8z"/>
	</g>
</g>
</svg>
