<?xml version="1.0" encoding="utf-8"?>
<!-- Generator: Adobe Illustrator 25.0.1, SVG Export Plug-In . SVG Version: 6.00 Build 0)  -->
<svg version="1.1" id="Isolation_Mode" xmlns="http://www.w3.org/2000/svg" xmlns:xlink="http://www.w3.org/1999/xlink" x="0px"
	 y="0px" viewBox="0 0 70 79" style="enable-background:new 0 0 70 79;" xml:space="preserve">
<style type="text/css">
	.st0{fill:#5B300C;}
	.st1{fill:#9FC900;}
	.st2{fill:#422309;}
	.st3{fill:#7D4210;}
	.st4{fill:#703B0F;}
	.st5{fill:#B8E550;}
	.st6{fill:#D0D0D0;}
	.st7{fill:#779114;}
	.st8{fill:#52830A;}
	.st9{fill:#81B715;}
	.st10{fill:#9BC91B;}
	.st11{fill:#6B390E;}
	.st12{fill:#6FA600;}
	.st13{fill:#75A0A5;}
	.st14{fill:#57777A;}
	.st15{fill:#51707C;}
	.st16{fill:#75938B;}
	.st17{fill:#496570;}
	.st18{fill:#4EC6F0;}
	.st19{fill:#53D3FF;}
	.st20{fill:#198EBA;}
	.st21{fill:#81EEFC;}
	.st22{fill:#4ABBE2;}
	.st23{fill:#31ACD6;}
	.st24{fill:#4AD0E2;}
	.st25{fill:#223A3D;}
</style>
<g id="XMLID_384_">
	<g id="XMLID_9_">
		<path id="XMLID_97_" class="st0" d="M68.8,38.1C68.8,38.1,68.8,38.1,68.8,38.1c-0.1,0.1-0.2,0.1-0.3,0.2c-1,0.6-2.1,1.1-3.2,1.5
			c-0.8,0.2-1.9,0.1-2.5,0.7c0,0-0.1,0.1-0.1,0.1c0,0,0,0,0,0c0,0,0,0.1-0.1,0.1c-0.1,0.3,0,0.6-0.2,0.9c-0.3,0.4-0.9,0.4-1.4,0.5
			c-1,0.3-1.8,0.8-2.5,1.5c-0.7,0.7-1.2,1.6-1.9,2.2c-0.8,0.6-1.9,1-2.6,0.3c-0.8-0.1-1.7-0.1-2.3,0.4c-0.3,0.3-0.5,0.7-0.8,1
			c-0.5,0.5-1.1,0.6-1.7,0.8c-2.3,0.7-4.4,1.6-6.4,2.9c-0.9,0.6-1.8,1.3-2.7,1.9c-0.4,0.3-0.7,0.7-0.9,1.1c-0.1,0.3,0,0.7-0.2,1
			c-0.1,0.3-0.4,0.5-0.7,0.7c-0.7,0.7-1.2,0.6-2.1,0.5c-0.3,0-0.5,0-0.8,0.1c-0.6,0.1-1.1-0.1-1.5-0.6c-0.4-0.5-1-0.9-1.6-1.3
			c-0.9-0.5-1.8-1.1-2.8-1.5c-0.2-0.1-0.5-0.1-0.7-0.2l0,0l0,0c-0.4-0.1-0.9-0.2-1.3-0.3c0,0,0,0,0,0c-0.1,0-0.2-0.1-0.3-0.1
			c0,0-0.1,0-0.1,0c-0.1,0-0.2-0.1-0.3-0.1c0,0-0.1,0-0.1,0c-0.1-0.1-0.2-0.1-0.3-0.2c-0.7-0.5-1.3-1.2-2.1-1.6
			c-0.2-0.1-0.4-0.2-0.6-0.3c0,0-0.1-0.1-0.1-0.1c0,0,0,0,0,0c0,0,0-0.1-0.1-0.1c0,0,0,0,0,0c0,0,0-0.1,0-0.1c0,0,0,0,0,0
			c0,0,0-0.1,0-0.1c0,0,0,0,0,0c0,0,0-0.1,0-0.1c0,0,0,0,0,0c0,0,0-0.1,0-0.1c0,0,0,0,0,0c0,0,0,0,0-0.1c0,0,0-0.1,0-0.1v0l0,0
			c0.1-0.2,0.1-0.4,0-0.6c-0.4-0.6-1.3-0.3-1.9-0.2c-0.8,0-1.5,0-2.2-0.2c-1.5-0.4-2.7-1.5-3.7-2.7c-0.5-0.6-1-1.3-1.6-1.9
			c-2.2-1.8-5.7-0.9-8.1-2.4c-1.3-0.9-2.2-2.4-3.7-3c-1.5-0.6-2.2-0.7-2.2-2.4c0,0,0.3,4.1,0.4,5.1c0,0.1,0.1,0.3,0.1,0.4
			c0.6,0.9,1.7,2.2,2.2,3c0.5,0.9,0.7,1.6,0.4,2.6c0,0.1-0.1,0.2,0,0.2c0,0.1,0.1,0.1,0.1,0.2c0.2,0.2,0.3,0.5,0.5,0.7
			c0,0,0.1,0.1,0.1,0.1c0,0,0.1,0,0.1,0c0.3,0,0.7-0.1,1,0c0.9,0.4,1.2,2.4,1.5,3.2C6.6,52,7.1,58.5,7,59.3c0.5,0.2,1,0.5,1.4,0.9
			c0.3-0.2,0.7-0.4,1.1-0.5c0.3-0.1-0.2,2.4-0.2,2.5c0,0.2,0.1,0.4,0.2,0.6c-0.1,0.1-0.1,0.2-0.1,0.3c0,1.4,0.5,1.5,1.6,1.9
			c1.1,0.4,1.7,1.6,2.7,2.2c1.8,1.1,4.3,0.4,5.9,1.8c0.5,0.4,0.8,0.9,1.2,1.4c0.7,0.9,1.6,1.7,2.7,2c0.5,0.2,1.1,0.2,1.6,0.2
			c0.4,0,1.1-0.3,1.4,0.2c0.3,0.4-0.3,0.8,0.1,1.2c0.1,0.1,0.3,0.2,0.4,0.3c0.6,0.3,1,0.9,1.5,1.2c0.7,0.5,1.6,0.5,2.4,0.8
			c0.7,0.3,1.4,0.7,2,1.1c0.4,0.3,0.8,0.5,1.1,0.9c0.3,0.4,0.6,0.5,1.1,0.5c0.2,0,0.4-0.1,0.6-0.1c0.7,0.1,1,0.1,1.5-0.4
			c0.2-0.2,0.4-0.3,0.5-0.5c0.1-0.2,0.1-0.5,0.2-0.8c0.1-0.3,0.3-0.6,0.6-0.8c0.7-0.5,1.3-1,2-1.4c1.4-0.9,3-1.7,4.7-2.1
			c0.5-0.1,0.9-0.3,1.3-0.6c0.2-0.2,0.4-0.5,0.6-0.7c0.5-0.4,1.1-0.4,1.7-0.3c0.5,0.5,1.3,0.2,1.9-0.2c0.6-0.5,0.9-1.1,1.4-1.6
			c0.5-0.5,1.2-0.9,1.9-1.1c0.3-0.1,0.8-0.1,1-0.4c0.2-0.3,0-0.6,0.3-0.8c0.1-0.1,0.2-0.1,0.3-0.2c0.4-0.2,0.9-0.2,1.3-0.3
			c0,0,0,0,0,0c0.1,0,0.1,0,0.2,0c0.8-0.3,1.6-0.6,2.4-1.1c0.3-0.2,0.7-0.5,0.9-0.8c0.2-0.4,0.2-0.9,0.2-1.3c0-0.5-0.1-3.3,0.2-3.8
			c0.2-0.4,0.5-6.1,0.8-6.5c0.9-0.9,1.5-1.8,2-2.8c0.5-1,0.9-2,1.3-3c1-2.3,2.3-4.3,3.5-6.5c0.4-0.8,1.1-1.9,1.1-2.9
			C69.3,37.7,69.1,37.9,68.8,38.1z"/>
		<path id="XMLID_96_" class="st1" d="M33.6,15.3c-0.1,0-0.2,0-0.3,0c-0.1,0-0.1,0-0.2,0c-0.1,0-0.1,0.1-0.2,0.2
			c-1.1,2-3.9,1.5-5.7,2.6c-1.2,0.7-1.9,1.9-3,2.7c-0.8,0.6-1.7,1-2.6,1.5c-1,0.5-1.9,1.1-2.8,1.8c-0.4,0.3-1,0.7-1.3,1.1
			c-0.2,0.3-0.3,0.8-0.4,1.2c-0.1,0.2-1.6,0.5-1.8,0.5c-0.7,0.3-1.5,0.6-2.2,0.9c-2.5,1.1-4.6,3.1-7.2,3.9c-0.6,0.2-1.2,0.3-1.7,0.6
			c-0.8,0.6-1.2,1.6-2.1,2.2c-0.5,0.3-1.1,0.5-1.7,0.5c-0.1,0-0.3,0-0.4,0.1C0,35.1,0,35.3,0,35.4c0,1.9,0.7,2,2.2,2.6
			c1.5,0.6,2.3,2.1,3.7,3c2.4,1.5,5.9,0.6,8.1,2.4c0.6,0.5,1.1,1.2,1.6,1.9c1,1.2,2.2,2.3,3.7,2.7c0.7,0.2,1.5,0.3,2.2,0.2
			c0.6,0,1.5-0.4,1.9,0.2c0.4,0.6-0.5,1.1,0.2,1.7c0.2,0.2,0.4,0.2,0.6,0.3c0.8,0.4,1.3,1.2,2.1,1.6c1,0.6,2.2,0.7,3.2,1.1
			c1,0.4,1.9,1,2.8,1.5c0.6,0.3,1.1,0.7,1.6,1.3c0.4,0.5,0.9,0.7,1.5,0.6c0.3,0,0.5-0.1,0.8-0.1c0.9,0.1,1.4,0.2,2.1-0.5
			c0.2-0.2,0.5-0.4,0.7-0.7c0.2-0.3,0.1-0.7,0.2-1c0.2-0.4,0.5-0.9,0.9-1.2c0.9-0.6,1.8-1.3,2.7-1.9c2-1.3,4.1-2.3,6.4-2.9
			c0.6-0.2,1.3-0.4,1.7-0.8c0.3-0.3,0.5-0.7,0.8-1c0.6-0.5,1.5-0.5,2.3-0.4c0.7,0.7,1.8,0.3,2.6-0.3c0.8-0.6,1.3-1.5,1.9-2.2
			c0.7-0.7,1.6-1.2,2.5-1.5c0.4-0.1,1.1-0.2,1.4-0.5c0.3-0.4,0-0.8,0.4-1.1c0.6-0.6,1.7-0.4,2.5-0.7c1.1-0.3,2.2-0.8,3.2-1.5
			c0.5-0.3,0.9-0.6,1.2-1.1c0.3-0.5,0.2-1.2,0.2-1.8c-1.9-1.1-3.8-2.1-5.7-3.2c-0.8-0.4-1.5-0.9-2.1-1.5c-0.6-0.7-0.9-1.6-1.4-2.4
			c-1.9-2.7-6.1-2.2-8.9-4c-0.9-0.6-1.6-1.4-2.5-2c-1.1-0.8-2.5-1.1-3.9-1.3c-0.4,0-3.5,0.1-3.4-0.4c0.1-0.9-0.1-1.7-0.8-2.4
			c-0.7-0.7-1.7-1-2.6-1.4c-0.8-0.3-1.7-0.5-2.3-1c-0.6-0.5-0.9-1-1.8-0.8C34.3,15,34,15.2,33.6,15.3z"/>
		<path id="XMLID_95_" class="st0" d="M57.2,66.3c0.8-0.3,1.6-0.6,2.4-1.1c0.3-0.2,0.7-0.5,0.9-0.8c0.1-0.1,0.1-0.3,0.1-0.4
			c0-0.3,0-0.6,0-0.9c0-0.5-0.1-3.3,0.2-3.8c0.2-0.4,0.5-6.1,0.8-6.5c0.9-0.9,1.5-1.8,2-2.8c0.5-1,0.9-2,1.3-3
			c1-2.3,2.3-4.3,3.5-6.5c0.4-0.8,1.1-1.9,1.1-2.9c-0.3,0.3-0.6,0.5-0.9,0.7c-1,0.6-2.1,1.1-3.2,1.5c-0.8,0.2-1.9,0.1-2.5,0.7
			c-0.4,0.4-0.1,0.8-0.4,1.1c-0.1,0.1-1.5,4.3-2.5,6.1c-0.5,0.8-1,1.6-1.2,2.5c-0.2,0.7-0.1,1.4-0.3,2c-0.2,1.1-0.8,7.5-1.4,8.5
			c-1,1.9-1.1,3.9-1.4,5.8C56.1,66.4,56.8,66.4,57.2,66.3z"/>
		<g id="XMLID_93_">
			<path id="XMLID_94_" class="st2" d="M52.5,68.8c0.2-1,0.4-2,0.6-3c0.2-1.1,0.4-2.3-0.4-3.1c-0.2-0.2-0.5-0.4-0.7-0.6
				c-0.2-0.2-0.2-0.5-0.3-0.8c-0.3-1.2-0.6-8,0.1-9.1c0.4-0.7,1.1-1.1,1.4-1.9c0.2-0.5,0.2-1.1,0.2-1.7c0-0.9,0.4-1.7,0.4-2.5
				c0,0,0.1,0,0.1,0c-0.8-0.1-1.7-0.1-2.3,0.4c-0.3,0.3-0.5,0.7-0.8,1c-0.1,0.1-0.3,0.2-0.5,0.3c-0.3,1.9-0.5,9.3-0.3,11.3
				c0.2,1.8,0.7,3.5,0.4,5.3c-0.2,1.6-1.1,3-1.7,4.6c-0.2,0.6-0.4,1.3-0.6,1.9c0.2,0,0.4,0,0.7,0c0.5,0.5,1.3,0.2,1.9-0.2
				c0.6-0.5,0.9-1.1,1.4-1.6C52.3,69,52.4,68.9,52.5,68.8L52.5,68.8z"/>
		</g>
		<g id="XMLID_91_">
			<path id="XMLID_92_" class="st3" d="M55.7,66.6c0.3-2,0.5-3.9,1.4-5.8c0.5-1,1.1-7.4,1.4-8.5c0.1-0.7,0.1-1.4,0.3-2
				c0.2-0.9,0.8-1.7,1.2-2.5c1-1.8,2.4-6,2.5-6.1c-0.3,0.4-0.9,0.4-1.4,0.5c-1,0.3-1.8,0.8-2.5,1.5c-0.7,0.7-1.2,1.6-1.9,2.2
				c-0.8,0.6-1.9,1-2.6,0.3c0,0-0.1,0-0.1,0c0,0.8-0.4,1.7-0.4,2.5c0,0.6,0,1.2-0.2,1.7c-0.3,0.7-1,1.2-1.4,1.9
				c-0.6,1.1-0.3,7.9-0.1,9.1c0.1,0.3,0.1,0.6,0.3,0.8c0.2,0.3,0.5,0.4,0.7,0.6c0.8,0.8,0.6,2,0.4,3.1c-0.2,1-0.4,2-0.6,3
				c0.5-0.4,1-0.7,1.6-0.8c0.3-0.1,0.8-0.1,1-0.4c0.2-0.3,0-0.6,0.3-0.8C55.5,66.7,55.6,66.6,55.7,66.6L55.7,66.6z"/>
		</g>
		<g id="XMLID_89_">
			<path id="XMLID_90_" class="st4" d="M48.3,70.9c0.1-0.7,0.3-1.3,0.6-1.9c0.6-1.5,1.5-3,1.7-4.6c0.3-1.8-0.2-3.5-0.4-5.3
				c-0.2-2,0-9.4,0.3-11.3c-0.4,0.2-0.8,0.3-1.3,0.5c-2.3,0.7-4.4,1.6-6.4,2.9c-0.9,0.6-1.8,1.3-2.7,1.9c-0.4,0.3-0.7,0.7-0.9,1.1
				c-0.1,0.3-0.1,0.7-0.2,1c0.1,0.7,0.3,1.4,0.7,2c0.7,1.1,2.1,7.4,2.3,8.7c0.1,0.7-0.1,1.3-0.3,2c-0.2,0.8-0.5,1.7-0.7,2.5
				c-0.1,0.4-0.3,0.9-0.4,1.3c-0.2,0.6-0.3,1.2-0.5,1.8c-0.2,0.7-0.4,1.3-0.6,2c0.4-0.3,0.9-0.6,1.3-0.9c1.4-0.9,3-1.7,4.7-2.1
				c0.5-0.1,0.9-0.3,1.3-0.6c0.2-0.2,0.4-0.5,0.6-0.7C47.5,71,47.9,70.9,48.3,70.9L48.3,70.9z"/>
		</g>
		<g id="XMLID_87_">
			<path id="XMLID_88_" class="st3" d="M39.4,75.6c0.2-0.7,0.4-1.3,0.6-2c0.2-0.6,0.3-1.2,0.5-1.8c0.1-0.4,0.3-0.9,0.4-1.3
				c0.2-0.8,0.5-1.7,0.7-2.5c0.2-0.6,0.4-1.3,0.3-2c-0.2-1.3-1.6-7.6-2.3-8.7c-0.4-0.6-0.6-1.2-0.7-2c0,0,0,0,0,0
				c-0.1,0.3-0.4,0.5-0.7,0.7c-0.7,0.7-1.2,1.2-2.1,1.1c-0.3,0-0.5-0.5-0.8-0.5c-0.6,0.1-1.1-0.1-1.5-0.6c-0.2-0.2-0.3-0.4-0.5-0.5
				c-0.1,0.3-0.1,0.6-0.2,0.8c-0.1,0.4-0.2,6.2-0.2,6.6c0,0.5,0.2,1,0.3,1.4c0.4,1.3,0.5,2.7,0.2,4.1c-0.1,0.4-0.2,0.8-0.2,1.1
				c0,0.7,0.6,1.5,1.4,1.5c0.4,0,0.8-0.2,1,0.1c0.2,0.2,0.1,0.5,0,0.7c-0.3,1.3-0.3,2.7,0,4c-0.7,0-1.5,0-2.2,0
				c0.1,0.5-0.1,1-0.4,1.4c0.4,0.2,0.7,0.5,1,0.8c0.3,0.4,0.6,0.5,1.1,0.5c0.2,0,0.4-0.1,0.6-0.1c0.7,0.1,1,0.1,1.5-0.4
				c0.2-0.2,0.4-0.3,0.5-0.5c0.1-0.2,0.1-0.5,0.2-0.8c0.1-0.3,0.3-0.6,0.6-0.8C38.9,75.9,39.1,75.7,39.4,75.6L39.4,75.6z"/>
		</g>
		<g id="XMLID_85_">
			<path id="XMLID_86_" class="st0" d="M33.5,75.9c0.7,0,1.5,0,2.2,0c-0.3-1.3-0.3-2.7,0-4c0.1-0.2,0.1-0.5,0-0.7
				c-0.2-0.3-0.7-0.1-1-0.1c-0.7,0-1.3-0.7-1.4-1.5c0-0.4,0.1-0.8,0.2-1.1c0.3-1.4,0.2-2.8-0.2-4.1c-0.1-0.5-0.3-0.9-0.3-1.4
				c0-0.4,0.1-6.2,0.2-6.6c0.1-0.3,0.2-0.5,0.2-0.8c-0.3-0.3-0.7-0.5-1-0.7c-0.9-0.5-1.8-1.1-2.8-1.5c-0.7-0.2-1.4-0.4-2.1-0.6
				c0,0.3,0,6.1,0,6.5c0,0.5,0,0.9,0.1,1.4c0.1,0.5,0.3,1,0.5,1.4c0.7,1.9,0.9,3.9,0.7,5.8c-0.1,0.7-0.2,1.4,0,2.1
				c0.2,0.5,0.6,1,1,1.4c0.6,0.9,0.9,2.1,0.7,3.2c-0.7,0-1.7,0.1-2.1,0.6c0.1,0.1,0.3,0.2,0.4,0.3c0.7,0.5,1.6,0.5,2.4,0.8
				c0.7,0.3,1.4,0.7,2,1.1c0,0,0.1,0.1,0.1,0.1C33.5,76.9,33.6,76.4,33.5,75.9z"/>
		</g>
		<g id="XMLID_83_">
			<path id="XMLID_84_" class="st4" d="M30.4,74.4c0.2-1.1-0.1-2.3-0.7-3.2c-0.3-0.5-0.8-0.9-1-1.4c-0.2-0.7-0.1-1.4,0-2.1
				c0.2-2,0-4-0.7-5.8c-0.2-0.5-0.4-0.9-0.5-1.4c-0.1-0.4-0.1-0.9-0.1-1.4c0-0.3,0-6.1,0-6.5c-0.4-0.1-0.8-0.3-1.1-0.5
				c-0.7-0.5-1.3-1.2-2.1-1.6c-0.2-0.1-0.4-0.2-0.6-0.3c-0.2-0.1-0.2-0.3-0.2-0.4c0,0,0,0,0,0c-0.1,0.5-0.1,0.9-0.1,1.4
				c0.1,2.5,0.6,10.4,1.2,12.8c0.5,1.7,1.1,3.3,1.3,5.1c0.1,1,0,2,0.3,3c0,0.1,0.1,0.3,0.1,0.4c0.1,0,0.2,0.1,0.3,0.2
				c0.3,0.4-0.3,0.8,0.1,1.2c0.1,0.1,0.3,0.2,0.4,0.3c0.4,0.2,0.8,0.6,1.1,0.9C28.7,74.5,29.6,74.4,30.4,74.4z"/>
		</g>
		<g id="XMLID_81_">
			<path id="XMLID_82_" class="st4" d="M26.3,72.4c0-0.1-0.1-0.3-0.1-0.4c-0.3-1-0.2-2-0.3-3c-0.2-1.7-0.8-3.4-1.3-5.1
				c-0.7-2.4-1.1-10.3-1.2-12.8c0-0.5,0-1,0.1-1.4c0,0,0,0,0,0c0,0,0,0,0,0c0,0,0,0,0,0c0,0,0-0.1,0-0.1c0,0,0,0,0,0
				c0,0,0-0.1,0-0.1c0,0,0,0,0,0c0,0,0-0.1,0-0.1c0,0,0,0,0,0c0,0,0,0,0-0.1c0,0,0-0.1,0-0.1v0c0.1-0.2,0.1-0.4,0-0.6
				c-0.4-0.6-1.3-0.3-1.9-0.2c-0.8,0-1.5,0-2.2-0.2c-1.5-0.4-2.7-1.5-3.7-2.7c-0.3-0.4-0.5-0.7-0.8-1.1c-0.2,2.6,1.3,6.9,1.7,8.2
				c0.4,1.2,0.9,7.9,1.2,9.2c0.4,1.7,0.4,3.4,1,5c0.3,0.9,0.9,1.8,1.2,2.7c0.3,0.3,0.6,0.7,0.9,1.1c0.7,0.9,1.6,1.7,2.7,2
				c0.5,0.2,1.1,0.2,1.6,0.2C25.5,72.5,26,72.3,26.3,72.4C26.3,72.4,26.3,72.4,26.3,72.4z"/>
		</g>
		<g id="XMLID_78_">
			<path id="XMLID_80_" class="st5" d="M70,35.3c0,0.5,0,0.9-0.2,1.3c-0.2,0.5-0.7,0.8-1.2,1.1c-1,0.6-2.1,1.1-3.2,1.4
				c-0.8,0.2-1.9,0.1-2.5,0.6c-0.4,0.3-0.1,0.7-0.4,1.1c-0.3,0.3-0.9,0.4-1.4,0.5c-1,0.2-1.8,0.7-2.5,1.4c-0.7,0.7-1.2,1.5-1.9,2.1
				c-0.8,0.6-1.9,0.9-2.6,0.3c-0.8-0.1-1.7-0.1-2.3,0.4c-0.3,0.3-0.5,0.6-0.8,0.9c-0.5,0.4-1.1,0.6-1.7,0.8
				c-2.3,0.6-4.4,1.5-6.4,2.7c-0.9,0.6-1.8,1.2-2.7,1.8c-0.4,0.3-0.7,0.7-0.9,1.1c-0.1,0.3,0,0.7-0.2,1c-0.1,0.2-0.4,0.4-0.7,0.6
				c-0.7,0.6-1.2,0.6-2.1,0.5c-0.3,0-0.5,0-0.8,0.1c-0.6,0.1-1.1-0.1-1.5-0.6c-0.4-0.5-1-0.9-1.6-1.2c-0.9-0.5-1.8-1.1-2.8-1.4
				c-1.1-0.4-2.3-0.4-3.2-1c-0.7-0.4-1.3-1.2-2.1-1.5C24,49,23.8,49,23.6,48.8c0,0-0.1-0.1-0.1-0.1c0,0.4-0.5,0.9,0.1,1.4
				c0.2,0.2,0.4,0.2,0.6,0.3c0.8,0.4,1.3,1.2,2.1,1.6c1,0.6,2.2,0.7,3.2,1.1c1,0.4,1.9,1,2.8,1.5c0.6,0.3,1.1,0.7,1.6,1.3
				c0.4,0.5,0.9,0.7,1.5,0.6c0.3,0,0.5-0.1,0.8-0.1c0.9,0.1,1.4,0.2,2.1-0.5c0.2-0.2,0.5-0.4,0.7-0.7c0.2-0.3,0.1-0.7,0.2-1
				c0.2-0.4,0.5-0.9,0.9-1.2c0.9-0.6,1.8-1.3,2.7-1.9c2-1.3,4.1-2.3,6.4-2.9c0.6-0.2,1.3-0.4,1.7-0.8c0.3-0.3,0.5-0.7,0.8-1
				c0.6-0.5,1.5-0.5,2.3-0.4c0.7,0.7,1.8,0.3,2.6-0.3c0.8-0.6,1.3-1.5,1.9-2.2c0.7-0.7,1.6-1.2,2.5-1.5c0.4-0.1,1.1-0.2,1.4-0.5
				c0.3-0.4,0-0.8,0.4-1.1c0.6-0.6,1.7-0.4,2.5-0.7c1.1-0.3,2.2-0.8,3.2-1.5c0.5-0.3,0.9-0.6,1.2-1.1C70,36.6,70,35.9,70,35.3z"/>
			<path id="XMLID_79_" class="st5" d="M23.5,47.3c-0.4-0.6-1.3-0.2-1.9-0.2c-0.8,0-1.5,0-2.2-0.2c-1.5-0.4-2.7-1.4-3.7-2.5
				c-0.5-0.6-1-1.3-1.6-1.7c-2.2-1.7-5.7-0.8-8.1-2.3c-1.3-0.8-2.2-2.3-3.7-2.8c-1.5-0.5-2.2-0.7-2.2-2.3c0,0.1,0,0.1,0,0.2
				c0,1.9,0.7,2,2.2,2.6c1.5,0.6,2.3,2.1,3.7,3c2.4,1.5,5.9,0.6,8.1,2.4c0.6,0.5,1.1,1.2,1.6,1.9c1,1.2,2.2,2.3,3.7,2.7
				c0.7,0.2,1.5,0.3,2.2,0.2c0.6,0,1.4-0.4,1.8,0.1C23.4,48,23.7,47.6,23.5,47.3z"/>
		</g>
		<g id="XMLID_74_">
			<path id="XMLID_77_" class="st0" d="M51.7,46.5C51.7,46.5,51.7,46.5,51.7,46.5L51.7,46.5C51.7,46.5,51.7,46.5,51.7,46.5z"/>
			<path id="XMLID_76_" class="st0" d="M50.6,70.9C50.6,70.9,50.6,70.9,50.6,70.9C50.6,70.9,50.6,70.9,50.6,70.9z"/>
			<path id="XMLID_75_" class="st0" d="M55.8,46.3c-0.6,0.3-1.3,0.3-1.8-0.2c0,0-0.1,0-0.1,0c0,0.8-0.4,1.7-0.4,2.5
				c0,0.6,0,1.2-0.2,1.7c-0.3,0.7-1,1.2-1.4,1.9c-0.6,1.1-0.3,7.9-0.1,9.1c0.1,0.3,0.1,0.6,0.3,0.8c0.2,0.3,0.5,0.4,0.7,0.6
				c0.8,0.8,0.6,2,0.4,3.1c-0.2,1-0.4,2-0.6,3l0,0c-0.1,0.1-0.2,0.2-0.3,0.3c0.2-0.2,0.5-0.5,0.8-0.6c0.2-1.3,0.5-2.5,0.7-3.8
				c0.1-0.5,0.2-0.9,0.1-1.4c-0.1-1.2-1.1-2.1-1.2-3.3c-0.1-1.2,0.8-7.6,1.4-8.6C55.1,49.8,55.5,48.1,55.8,46.3z"/>
		</g>
		<path id="XMLID_73_" class="st0" d="M25.8,69c-0.2-1.7-0.8-3.4-1.3-5.1c-0.7-2.4-1.1-10.3-1.2-12.8c0-0.5,0-1,0.1-1.4c0,0,0,0,0,0
			c0,0,0,0,0,0c0,0,0,0,0,0c0,0,0-0.1,0-0.1c0,0,0,0,0,0c0,0,0-0.1,0-0.1c0,0,0,0,0,0c0,0,0-0.1,0-0.1c0,0,0,0,0,0c0,0,0,0,0-0.1
			c0,0,0-0.1,0-0.1v0c0.1-0.2,0.1-0.4,0-0.6c-0.4-0.6-1.3-0.3-1.9-0.2c-0.8,0-1.5,0-2.2-0.2c0,0-0.1,0-0.1,0
			c0.1,0.8,0.3,1.7,0.4,2.4c0.2,1.5,0.4,8.6,1,10c0.5,1.2,1.3,2.4,1.8,3.6c0.6,1.5,0.6,3.3,0,4.8c-0.2,0.4-0.3,0.9-0.4,1.3
			c-0.1,0.5,0,1,0,1.4c0.4,0.3,0.9,0.6,1.4,0.7c0.5,0.2,1.1,0.2,1.6,0.2c0.1,0,0.3,0,0.5-0.1c0.1-0.3,0.3-0.6,0.4-0.9
			C25.9,70.7,25.9,69.8,25.8,69z"/>
		<g id="XMLID_65_">
			<path id="XMLID_72_" class="st2" d="M59.7,42.6c0.1,0,0.2-0.1,0.3-0.1C59.9,42.5,59.8,42.6,59.7,42.6z"/>
			<path id="XMLID_71_" class="st2" d="M60.1,42.4c0.1,0,0.1-0.1,0.2-0.1C60.2,42.4,60.2,42.4,60.1,42.4z"/>
			<path id="XMLID_70_" class="st2" d="M60.7,42.2c0.1,0,0.2-0.1,0.3-0.1C61,42.1,60.9,42.1,60.7,42.2z"/>
			<path id="XMLID_69_" class="st2" d="M60.4,42.3c0.1,0,0.1-0.1,0.2-0.1C60.6,42.2,60.5,42.3,60.4,42.3z"/>
			<path id="XMLID_68_" class="st2" d="M59.5,42.8c0,0,0.1,0,0.1-0.1C59.5,42.7,59.5,42.8,59.5,42.8z"/>
			<path id="XMLID_67_" class="st2" d="M62.8,40.4C62.8,40.4,62.8,40.4,62.8,40.4c-0.1,0.1-0.1,0.1-0.1,0.1c0,0,0,0.1-0.1,0.1
				c-0.1,0.3,0,0.6-0.2,0.9c-0.1,0.1-1.5,4.3-2.5,6.1c-0.5,0.8-1,1.6-1.2,2.5c-0.1,0.6-0.1,1.1-0.2,1.7c0.1-0.1,0.2-0.3,0.3-0.4
				c0.2-0.3,0.6-0.5,0.8-0.7c0.4-0.5,0.4-1.2,0.5-1.9c0.3-1.7,1.9-2.9,2.9-4.3c0.5-0.7,1.3-2.8,1.7-4.7C64,39.9,63.3,40,62.8,40.4z"
				/>
			<path id="XMLID_66_" class="st2" d="M59.2,43C59.2,42.9,59.3,42.9,59.2,43C59.3,42.9,59.2,42.9,59.2,43z"/>
		</g>
		<path id="XMLID_64_" class="st2" d="M26.1,72c-0.3-1-0.2-2-0.3-3c-0.2-1.7-0.8-3.4-1.3-5.1c-0.7-2.4-1.1-10.3-1.2-12.8
			c0-0.5,0-1,0.1-1.4c0,0,0,0,0,0c0,0,0,0,0,0c0,0,0,0,0,0c0,0,0-0.1,0-0.1c0,0,0,0,0,0c0,0,0-0.1,0-0.1c0,0,0,0,0,0
			c0,0,0-0.1,0-0.1c0,0,0,0,0,0c0,0,0,0,0-0.1c0,0,0-0.1,0-0.1v0c0.1-0.2,0.1-0.4,0-0.6c-0.4-0.6-1.3-0.3-1.9-0.2
			c-0.2,0-0.3,0-0.5,0c0,0.5,0,1,0,1.6c0,0.6-0.1,1.1,0,1.6c0.1,0.5,0.3,0.9,0.5,1.3c1.4,3,2.5,11.6,3.2,14.8
			c0.2,0.8,0.3,1.6,0.3,2.4c0,0.9-0.2,1.8-0.6,2.6c0.2,0,0.3,0,0.5,0c0.3,0,0.8-0.2,1.1,0c0,0,0,0,0,0C26.2,72.3,26.2,72.1,26.1,72z
			"/>
		<path id="XMLID_63_" class="st4" d="M39.6,68.1c-0.4-0.7-0.7-1.5-1.1-2.2C38.2,66,38,66.5,38,67c0,0.4,0.2,0.9,0.1,1.3
			c-0.1,0.9-0.8,1.7-0.6,2.6c0.1,0.2,0.2,0.4,0.2,0.6c0,0.2-0.1,0.5-0.2,0.7c-0.4,0.8-0.6,1.7-0.7,2.7c-0.1,0.9-0.1,1.9-0.7,2.5
			c-0.5,0.6-1.4,0.7-2.2,0.8c0,0,0,0,0,0c0.3,0.4,0.6,0.5,1.1,0.5c0.2,0,0.4-0.1,0.6-0.1c0.7,0.1,1,0.1,1.5-0.4
			c0.2-0.2,0.4-0.3,0.5-0.5c0.1-0.2,0.1-0.5,0.2-0.8c0.1-0.3,0.3-0.5,0.5-0.7c0-0.4,0-0.7,0-1.1c0-0.6,0-1.1,0.1-1.7
			c0.1-0.6,0.3-1.3,0.5-1.9c0.2-0.8,0.4-1.6,0.6-2.4c0-0.2,0.1-0.4,0.1-0.6C39.8,68.4,39.7,68.2,39.6,68.1z"/>
		<path id="XMLID_62_" class="st0" d="M48.2,50.4c-0.2,0-0.2,0.3-0.3,0.4c-0.1,0.7-0.9,1-1.3,1.5c-0.4,0.7,0,7.1-0.2,7.8
			c-0.2,0.8-1,1.2-1.7,1.7c-0.8,0.7-1.3,1.7-1.4,2.8c-0.1,1,0.1,2.1-0.1,3.1c-0.1,0.5-0.4,1-0.6,1.5c-0.6,1.5-0.9,3.1-1,4.7
			c0.5-0.3,1-0.5,1.5-0.8c0.1-0.3,0.1-0.6,0.2-1c0.2-1.3,0.6-2.9,1.8-3.5c-0.3-1.2-0.4-2.4-0.1-3.6c0.4,0.1,0.5,0.6,0.4,1
			c-0.1,0.4-0.2,0.8-0.1,1.1c0.1,0.4,0.4,0.7,0.5,1c0.1,0.3,0.1,0.6,0,0.9c-0.1,1.1-0.2,2.1-0.3,3.2c0.4-0.1,0.8-0.2,1.1-0.5
			c0.2-0.2,0.4-0.5,0.6-0.7c0.2-0.1,0.3-0.2,0.6-0.3c0.2-1,0.4-1.9,0.6-2.9c0-0.2,0.1-0.5,0-0.7c-0.1-0.1-0.2-0.2-0.3-0.4
			c-0.1-0.2-0.1-0.4,0-0.7c0.4-1.7,0.2-3.4-0.1-5.1c-0.1-0.6,0.1-0.9,0.2-1.5c0.1-0.8-0.2-6.7,0.2-7.4C48.7,51.8,48.6,51,48.2,50.4z
			"/>
		<path id="XMLID_61_" class="st2" d="M31.9,56.4c0.2-0.6,0.3-1.1,0.4-1.7c-0.9-0.5-1.7-1.1-2.7-1.4c-0.4-0.1-0.9-0.2-1.3-0.4
			c0,0.8,0.3,7.3,0.5,7.8c0.1,0.4,0.3,0.7,0.4,1.1c-1.2-4.8,0-4.5,0.2,1.5c0,1.3,0.1,2.5,0.1,3.8c0,1.2,0.1,2.5,1,3.2
			c0.3,0,0.3-0.5,0.2-0.8c-0.5-2-0.4-4.2,0.5-6.1C31.4,62.8,31.7,56.9,31.9,56.4z"/>
		<path id="XMLID_60_" class="st4" d="M14.3,65.5c-0.5-0.4-0.8-1-1.4-1.4c-0.7-0.5-1.4-1-2-1.6c-0.1-0.1-0.1-0.1-0.2-0.2
			c-0.1-0.2-0.1-0.3-0.1-0.5c0-0.8,0-1.5-0.2-2.3c0-0.1-0.1-0.3,0-0.4c0-0.1,0.2-0.2,0.3-0.2c0.2-0.1,0.4-5.7,0.6-5.7
			c0.5-0.2,0.8-0.9,0.5-1.4c-0.6-1.6-1.5-3.1-2-4.7c-0.1-0.2-0.1-0.5-0.3-0.7c-0.2-0.2-0.4-0.2-0.7-0.3c-0.5-0.1-1-0.2-1.6-0.4
			C5.8,45.3,6,41.5,6,41.1c0,0,0,0,0-0.1c0,0,0,0,0,0c0,0,0,0,0,0c-1.3-0.9-2.2-2.4-3.7-3C2.1,38,2,37.9,1.8,37.9
			C2,38.9,2.4,40,2.8,41c0.8,1.9,1.9,3.9,3.4,5.3c0.1,0.2,0.3,0.3,0.5,0.4C7.1,47,7.6,46.9,8,47.1c0.5,0.2,0.7,0.8,0.9,1.3
			c0.2,0.7,0.5,1.5,0.7,2.2c0.1,0.2,0.2,0.5,0.1,0.7c0,0.4-0.4,0.8-0.4,1.2c0,0.3,0,6,0.1,6.3c0,0.3,0.1,0.6,0,0.9
			c0.3,0-0.2,2.4-0.2,2.5c0,0.2,0.1,0.4,0.2,0.6c-0.1,0.1-0.1,0.2-0.1,0.3c0,1.4,0.5,1.5,1.6,1.9c1.1,0.4,1.7,1.6,2.7,2.2
			c1.1,0.7,2.6,0.7,4,1c0-0.1,0-0.2,0-0.3C17.1,66.2,15.5,66.4,14.3,65.5z"/>
		<g id="XMLID_54_">
			<path id="XMLID_59_" class="st2" d="M17.7,61.6c-0.3-1.3-0.8-7.9-1.2-9.2c-0.5-1.3-1.9-5.6-1.7-8.2c0.2,0.2-0.3-0.4-0.8-0.8
				c-0.5-0.4-1.1-0.7-1.7-0.9c0.6,2.3,1.4,4.6,2,6.8c0.2,0.8,0.5,1.6,0.8,2.4c0.4,0.8,0.8,7,1.2,7.7c0.5,1,0.9,2,1.2,3.1
				c0.2,0.6,0.4,1.2,0.6,1.8C18.1,63.5,18,62.5,17.7,61.6z"/>
		</g>
		<path id="XMLID_52_" class="st4" d="M9.8,50.8c-0.3-0.8-0.5-1.7-0.7-2.5c-0.2-0.6-0.4-1.2-0.9-1.4c-0.4-0.2-0.6-0.1-1-0.3
			c-0.2-0.1-1.1-0.7-1.3-0.9c-1.2-1.9-2.1-3.3-2.8-5.9c-0.2-0.6-0.5-1.1-0.5-1.7c-0.1,0-0.7-0.3-0.8-0.3c0.2,1.2,1,2,1.1,3.2
			c0.1,1,1.9,3.9,3.4,5.3c0.1,0.2,0.3,0.3,0.5,0.4C7.1,47,7.6,46.9,8,47.1c0.5,0.2,0.7,0.8,0.9,1.3c0.2,0.7,0.5,1.5,0.7,2.2
			c0.1,0.2,0.2,0.5,0.1,0.7C9.8,51,9.9,51,9.8,50.8z"/>
		<path id="XMLID_49_" class="st6" d="M45.4,72.5c0.5-0.1,0.9-0.3,1.3-0.6c0.2-0.2,0.4-0.5,0.6-0.7c0.5-0.4,1.1-0.4,1.7-0.3
			c0.5,0.5,1.3,0.2,1.9-0.2c0.6-0.5,0.9-1.1,1.4-1.6c0.5-0.5,1.2-0.9,1.9-1.1c0.3-0.1,0.8-0.1,1-0.4c0.2-0.3,0-0.6,0.3-0.8
			c0.1-0.1,0.2-0.1,0.3-0.2c0.4-0.2,0.9-0.2,1.3-0.3c0,0,0,0,0,0c0.1,0,0.1,0,0.2,0c0.8-0.3,1.6-0.6,2.4-1.1
			c0.3-0.2,0.7-0.5,0.9-0.8c0.2-0.4,0.2-0.9,0.2-1.3c0-0.4,0-2.1,0-3.1c-0.9,0.3-2.3,0.5-3.1-0.1c-0.8,2-2.5,2.1-4.4,2.2
			c-0.7,0.1-1.4,0.1-2.1,0.2c-0.4,0.8-0.9,1.6-1.5,2.2c-0.2,0.2-0.5,0.5-0.8,0.6c-0.4,0.1-0.8,0-1.2,0c-1.4,0-2.4,1.3-3.6,2.1
			c-1.2,0.8-2.7,1-4,1.7c-1,0.5-1.9,1.3-2.9,1.9c-1,0.6-2.2,1-3.3,0.6c-1.7-0.6-2.6-2.8-4.4-3.1c-0.9-0.2-1.9,0.2-2.8,0
			c-1.4-0.4-2-2.1-3.3-2.7c-1-0.5-2.1-0.3-3.2-0.4c-1.1-0.1-2.3-0.6-2.5-1.6c-0.8-4.2-6.7-11-10.9-11.7c0,0-0.1,0-0.1,0
			c0.2,0.7,0.5,6.9,0.4,7.5c0.5,0.2,1,0.5,1.4,0.9c0.3-0.2,0.7-0.4,1.1-0.5c0.3-0.1-0.2,2.4-0.2,2.5c0,0.2,0.1,0.4,0.2,0.6
			c-0.1,0.1-0.1,0.2-0.1,0.3c0,1.4,0.5,1.5,1.6,1.9c1.1,0.4,1.7,1.6,2.7,2.2c1.8,1.1,4.3,0.4,5.9,1.8c0.5,0.4,0.8,0.9,1.2,1.4
			c0.7,0.9,1.6,1.7,2.7,2c0.5,0.2,1.1,0.2,1.6,0.2c0.4,0,1.1-0.3,1.4,0.2c0.3,0.4-0.3,0.8,0.1,1.2c0.1,0.1,0.3,0.2,0.4,0.3
			c0.6,0.3,1,0.9,1.5,1.2c0.7,0.5,1.6,0.5,2.4,0.8c0.7,0.3,1.4,0.7,2,1.1c0.4,0.3,0.8,0.5,1.1,0.9c0.3,0.4,0.6,0.5,1.1,0.5
			c0.2,0,0.4-0.1,0.6-0.1c0.7,0.1,1,0.1,1.5-0.4c0.2-0.2,0.4-0.3,0.5-0.5c0.1-0.2,0.1-0.5,0.2-0.8c0.1-0.3,0.3-0.6,0.6-0.8
			c0.7-0.5,1.3-1,2-1.4C42.1,73.7,43.7,73,45.4,72.5z"/>
		<g id="XMLID_29_">
			<path id="XMLID_48_" class="st4" d="M24.7,64c-0.4-2.1-0.8-9.9-0.6-11.7c0.1-0.5-0.2-1.2-0.2-1.7c0-0.1,0-0.2,0-0.3
				c-0.1-0.1-0.2-0.1-0.3-0.2c-0.2-0.1-0.2-0.3-0.2-0.4c0,0,0,0,0,0c-0.1,0.5-0.1,0.9-0.1,1.4c0.1,2.5,0.6,10.4,1.2,12.8
				c0.1,0.5,0.3,0.9,0.4,1.4C24.9,64.9,24.8,64.4,24.7,64z"/>
		</g>
		<path id="XMLID_18_" class="st4" d="M61.1,42.1C61,42.1,61,42.1,61.1,42.1c-0.1,0.8-0.1,1.6-0.5,2.1c-0.2,0.3-0.6,0.4-0.8,0.6
			c-0.4,0.3,0.2,1,0.1,1.4c-0.3,1.3-1.3,2.4-1.5,3.7c-0.1,1-0.2,2-0.2,3c0.1-0.3,0.2-0.5,0.2-0.8c0.1-0.7,0.1-1.4,0.3-2
			c0.2-0.9,0.8-1.7,1.2-2.5c1-1.8,2.4-6,2.5-6.1C62.1,41.9,61.5,42,61.1,42.1z"/>
		<path id="XMLID_396_" class="st7" d="M20.1,33.1c-0.8,0-1.7-0.3-2.5-0.2c-0.8,0-1.5,0.5-2.2,0.8c-0.9,0.5-2.1,0.5-2.9,1.3
			c-0.6,0.6-0.8,1.3-0.1,1.9c0.7,0.6,2.3,0.6,3.2,0.6c1.4,0,2.9-0.5,4.2-0.3c0.7,0.1,1.5,0.3,2.2,0.4c1.2,0.1,2.4,0,3.5-0.1
			c1.2-0.2,2.4-0.7,3.6-0.8c0.5-0.1,1-0.1,1.5-0.1c0.7,0.1,1.3,0.2,1.9,0.3c1.3,0.2,2.5,0.1,3.8,0c1.9-0.2,4.4-1.3,3.7-3.5
			c-0.3-1,0-1.8,0.6-2.6c0.3-0.4,0.2-0.7,0.4-1.1c0.3-0.5,0.7-1,1.1-1.5c0.7-0.9,1.7-1.4,2.5-2.1c0.5-0.5,1.2-1.5,1-2.2
			c-0.3-1-1.5-1.3-2.4-1.4c-0.7-0.1-1.4,0-2,0.1c-0.5,0.1-1.2,0.4-1.7,0.2c-0.2-0.1-0.4-0.4-0.6-0.5c-0.4-0.2-0.8-0.5-1.2-0.6
			c-1-0.3-1.9,0-2.8,0.4c-0.7,0.4-1.3,1-2.1,1.2c-0.8,0.2-1.7,0-2.5-0.1c-1.8-0.2-3.4,0.3-4.6,1.6c-0.8,0.9-1.5,1.9-2.5,2.7
			c-0.8,0.7-1.7,1.2-2.4,1.9c-0.5,0.6-0.7,1.2-0.7,2C20.5,32.3,20.5,32.4,20.1,33.1z"/>
		<path id="XMLID_599_" class="st7" d="M56.2,38c2.7,0,5.2-0.6,7.7-1.6c0.8-0.3,1.8-0.7,2.1-1.6c0.3-0.7-0.4-1.2-1-1.6
			c-0.8-0.5-1.5-1.1-2.3-1.5c-0.7-0.4-1.2-1-1.8-1.4c-0.9-0.7-2-0.8-3-0.7c-1.5,0.1-3.2,0.5-4.6,1c-0.9,0.3-1.9,0.7-1.4,1.8
			c0.7,1.4,2.3,2.4,3.5,3.5c0.3,0.3,0.9,0.7,1,1c0.1,0.3-0.1,0.3-0.1,0.5C56.2,37.7,56,38,56.2,38z"/>
		<path id="XMLID_600_" class="st7" d="M36.7,49.5c0.1,0.1,0.4,0,0.5,0c0.3,0,0.6-0.1,0.8-0.2c0.6-0.1,1.2-0.3,1.7-0.6
			c0.8-0.4,2.4-1.2,1.8-2.3c-0.4-0.7-1.2-1-1.9-1.1c-0.8-0.1-1.8,0.1-2.5,0.4c-0.6,0.3-0.9,0.9-1.1,1.5c-0.1,0.5-0.1,0.9,0.1,1.4
			C36.2,48.9,36.4,49.2,36.7,49.5z"/>
	</g>
	<g id="XMLID_337_">
		<g id="XMLID_268_">
			<path id="XMLID_278_" class="st0" d="M41.1,3.1c-0.2,1.1,0,2.5-0.9,3.3c-0.4,0.3-0.7,0.6-1,1c-0.4,0.5-1,0.9-1.3,1.5
				c0.2,0.1,0.5,0.4,0.6,0.4c0.2,0,0.3-0.4,0.4-0.5c0.3-0.4,0.7-0.7,1-1c0.5-0.4,0.8-0.5,1.4-0.6C42,7,42.7,6.9,43.2,6.9
				c0.2-0.5,0.6-0.9,0.7-1.4c-0.1,0.2-0.4,0.2-0.5,0.3C43.2,6,43,6.4,42.9,6.7c-0.6-0.1-1.5-0.1-2.1,0c0.2-0.5,0.8-1.5,0.8-2
				C41.5,4.3,41.1,3.7,41.1,3.1z"/>
			<path id="XMLID_277_" class="st0" d="M30.9,7.7c0.1,0.5,0.5,1.2,1,1.3c0.3,0.1,1.9-0.1,1.7,0.5c-0.4,0-0.7-0.1-1.1-0.1
				c-0.3,0-0.9,0.1-1.1,0C31,9.1,30.7,8.3,30.9,7.7z"/>
			<path id="XMLID_276_" class="st0" d="M37.3,20.7c0.1,0.5,0.1,1.1,0.1,1.6c0,0.6,0,1.1,0.2,1.6c0.1,0.3,0.3,0.7,0.4,1
				c0.2,0.3,0.3,0.6,0.4,1c0.1,0.2,0.1,0.5,0.2,0.7c0,0.3,0.1,0.5,0.1,0.8c0,0.1,0.1,0.3,0.1,0.4c0,0.1,0.1,0.3,0.1,0.4
				c0,0.3,0,0.4-0.2,0.5c-0.1,0.1-0.3,0.1-0.6,0.2c-0.4,0.1-0.8,0.2-1.3,0.3c-0.4,0.1-0.8,0.1-1.3,0c-0.2,0-0.6-0.1-0.9-0.2
				c-0.3-0.1-0.6-0.2-0.6-0.4c-0.1-0.7,0-1.3,0.1-2c0.1-0.6,0.3-1.3,0.6-1.9c0.2-0.5,0.3-1,0.3-1.5c0-0.5,0-1-0.1-1.5
				c0-0.3,0-0.4,0-0.6c0-0.2-0.1-0.3-0.3-0.5c-0.1-0.1-0.3-0.3-0.3-0.4c-0.1-0.1-0.2-0.3-0.2-0.4c0-0.1,0-0.3-0.1-0.4
				s-0.1-0.2-0.2-0.3c-0.1-0.1-0.3-0.2-0.5-0.3c-0.2-0.1-0.4-0.1-0.6-0.1c-0.4,0-0.7,0-1.1,0c-0.4,0-0.7-0.1-1-0.3
				c-0.2-0.2-0.3-0.3-0.3-0.5c0-0.2,0-0.4-0.2-0.6c-0.2,0-0.4,0-0.5-0.1c-0.2,0-0.4,0-0.5,0c-0.2,0-0.4-0.1-0.5-0.1
				c-0.2-0.1-0.3-0.1-0.5-0.2c-0.1,0-0.2,0-0.3,0c-0.1,0-0.3,0-0.3-0.1c-0.1-0.1-0.1-0.3-0.1-0.5c0-0.2,0-0.4,0-0.6
				c0-0.1-0.1-0.2-0.1-0.3c-0.1-0.1-0.1-0.1-0.2-0.2c-0.2-0.2-0.4-0.3-0.5-0.4c-0.1-0.1-0.2-0.3-0.3-0.5c-0.1-0.4-0.1-0.3,0.1-0.2
				c0.1,0.2,0.3,0.4,0.4,0.5c0.1,0.1,0.3,0.2,0.4,0.2c0.1,0.1,0.3,0.1,0.5,0.2c0.1,0.1,0.1,0.1,0.2,0.1c0,0,0,0.1,0.1,0.2
				c0,0.1,0.1,0.1,0.1,0.2c0,0.1,0.1,0.1,0.1,0.2c0.1-0.1,0.2-0.3,0.3-0.5c0.1-0.2,0.2-0.3,0.3-0.5c0.1-0.1,0.2-0.2,0.3-0.2
				c0.1-0.1,0.2-0.2,0.3-0.3c0-0.1,0-0.1,0.1-0.2c0-0.1,0-0.2,0.1-0.2c0.2-0.2,0.4-0.3,0.7-0.4c0.3-0.1,0.6-0.1,0.8-0.2
				c0.1,0,0.2-0.4,0.4-0.6c0.1-0.2,0.2-0.3,0.1,0.2c0,0.1,0,0.2,0,0.4c0,0.1,0,0.3-0.1,0.4c0,0.1-0.2,0.2-0.3,0.2
				c-0.1,0.1-0.3,0.1-0.4,0.2c-0.2,0.1-0.3,0.2-0.4,0.3C30,14.6,30,14.8,29.9,15c-0.1,0.2-0.2,0.4-0.4,0.5c-0.2,0.1-0.3,0.2-0.6,0.3
				c0,0.1,0,0.2,0,0.3c0,0.1,0,0.2,0.1,0.3c0.1,0.1,0.2,0.1,0.3,0.1c0.1,0,0.3,0,0.4,0c0.1,0,0.3,0,0.4,0c0.1,0,0.3,0,0.4,0
				c0.1,0,0.2,0.1,0.3,0.1c0.1,0.1,0.1,0.2,0.3,0.3c0.3,0.3,0.8,0.3,1.2,0.3c0.5-0.1,0.9-0.2,1.4-0.1c0.3,0.1,0.6,0.3,0.8,0.5
				c0.3,0.2,0.5,0.4,0.8,0.6c0.2-0.1,0.2-0.4,0.2-0.7c0-0.3-0.1-0.6-0.1-0.8c0-0.3,0-0.5,0-0.8s0.1-0.5,0.3-0.7
				c0.2-0.3,0.5-0.5,0.7-0.8c0.2-0.3,0.4-0.6,0.5-0.9c0-0.2,0-0.4,0-0.7c0-0.3,0-0.5-0.1-0.7c-0.1-0.3-0.3-0.5-0.5-0.7
				c-0.2-0.2-0.5-0.4-0.6-0.6c-0.1-0.2-0.1-0.3-0.2-0.4s-0.2-0.2-0.3-0.3C35.1,10.1,35,10,34.9,10s-0.1-0.2,0-0.3
				c0.2,0.1,0.3,0.2,0.5,0.4c0.1,0.2,0.3,0.3,0.4,0.5c0,0.1,0.1,0.1,0.1,0.2c0,0.1,0.1,0.1,0.1,0.2c0.1,0.1,0.3,0.2,0.5,0.3
				c0.2,0.1,0.4,0.2,0.6,0.3c0.4,0.3,0.4,0.7,0.4,1.1c0,0.5-0.2,1-0.1,1.3c0.3,0,0.7,0,1.1,0c0.4,0,0.7,0,1-0.1c0.4,0,0.7-0.2,1-0.4
				c0.3-0.2,0.7-0.4,1.1-0.4c0.2,0,0.4,0,0.6,0c0.2,0,0.4,0,0.6-0.1c0.1-0.1,0.2-0.3,0.3-0.5c0.1-0.2,0.2-0.3,0.4-0.2
				c-0.1,0.1-0.2,0.3-0.3,0.5c-0.1,0.2-0.1,0.4-0.2,0.6c0.1,0,0.2,0.1,0.2,0.1c0.1,0,0.2,0.1,0.3,0.1c0.4,0.1,0.8,0.1,1.2,0
				c0.4-0.1,0.8-0.2,1.3-0.3c0.1,0,0.3,0,0.4,0c0.2,0,0.3,0,0.5,0c0.1,0,0.2-0.1,0.3-0.1c0.1,0,0.2-0.1,0.3,0c0,0,0,0.1,0,0.1
				c0,0.1,0,0.1,0,0.1c-0.2,0-0.4,0-0.6,0c-0.2,0-0.4,0.1-0.6,0.1c-0.2,0-0.4,0-0.6,0.1c-0.2,0-0.4,0.1-0.6,0.1
				c-0.4,0.1-0.7,0.3-1.1,0.4c-0.3,0.1-0.7,0.2-1.1,0.1c-0.5-0.1-0.9-0.1-1.2,0c-0.3,0.1-0.6,0.3-1.1,0.6c-0.2,0.1-0.4,0.2-0.7,0.2
				c-0.2,0-0.6,0-0.9,0c-0.5,0.1-1.6-0.1-1.9,0.3c-0.3,0.3-1.1,2.5,0.6,1.8c0.3-0.2,0.5-0.3,0.8-0.5c0.3-0.2,0.6-0.3,0.9-0.5
				c0.3-0.1,0.6-0.2,0.9-0.2c0.3,0,0.7,0,1,0c0.2,0,0.5-0.1,0.7-0.1c0.3,0,0.5,0,0.7,0c0.2,0,0.4,0.1,0.6,0.3
				c0.2,0.1,0.4,0.3,0.6,0.3c0.3,0.1,0.5,0.2,0.8,0.3c0.3,0.1,0.6,0.1,0.9,0.1c0.3,0,0.5,0,0.8-0.1c0.3,0,0.5-0.1,0.8,0
				c0.2,0,0.5,0,0.7,0.1c0.2,0,0.5,0,0.7,0c0.5,0,0.9,0,1.4,0c0.5,0,0.9,0.1,1.4,0.1c0.3,0,0.6-0.1,1-0.3c0.3-0.1,0.6-0.3,1-0.2
				c0,0,0,0,0,0.1c0,0,0,0,0,0.1c-0.2,0-0.3,0-0.4,0c-0.1,0-0.2,0-0.3,0.1c-0.2,0.1-0.4,0.2-0.6,0.3c-0.2,0.1-0.4,0.2-0.6,0.3
				c-0.3,0.1-0.6,0-0.9,0c-0.2,0-0.5,0-0.7,0c-0.2,0-0.4,0.1-0.6,0.1c-0.2,0-0.6,0-0.8,0.1c-0.1,0.1-0.1,0.3-0.1,0.4
				c0,0.2,0.3,0.4,0.4,0.5c0.2,0.1,0.3,0.2,0.5,0.3c0.2,0.1,0.5,0.2,0.7,0.2c0.3,0,0.7-0.1,1,0c0,0.1,0,0.2,0,0.2
				c-0.2,0-0.5,0-0.7,0c-0.2,0-0.3,0-0.5,0c-0.3,0-0.6-0.2-0.9-0.3c-0.3-0.2-0.6-0.4-0.8-0.6c-0.1-0.1-0.3-0.2-0.4-0.3
				c-0.1-0.1-0.3-0.2-0.4-0.2c-0.5-0.2-1.1-0.2-1.6-0.2c-0.6,0-1.1,0.1-1.6-0.1c-0.1,0-0.3-0.1-0.4-0.2c-0.2-0.1-0.4-0.1-0.6-0.2
				c-0.2,0-0.4-0.2-0.6-0.2c-0.4-0.1-0.8-0.3-1.1-0.2c-0.4,0.1-0.9,0.2-1.2,0.4c-0.3,0.2-0.6,0.6-0.8,0.9c-0.2,0.3-0.6,0.5-0.8,0.8
				c-0.1,0.2-0.3,0.4-0.4,0.6c-0.1,0.1-0.1,0.2,0,0.3c0,0.2,0,0.3,0.2,0.2c0.2-0.1,0.3-0.2,0.4-0.3c0.3-0.1,0.5-0.2,0.8-0.3
				c0.4-0.1,0.9-0.3,1.3-0.4c0.2-0.1,0.5-0.1,0.7-0.1c0,0.2,0.1,0.4-0.1,0.4c-0.4,0.1-0.7,0.2-1.1,0.4c-0.4,0.2-0.8,0.4-1.2,0.7
				c-0.2,0.1-0.3,0.3-0.5,0.4c-0.2,0.1-0.4,0.3-0.5,0.3c-0.1,0-0.2,0-0.3-0.1C37.5,20.8,37.4,20.8,37.3,20.7z"/>
			<path id="XMLID_275_" class="st8" d="M27.9,10.3c-0.9-0.8-2.9-1-3.8-0.5c-1.2,0.6-2,2.2-1.3,3.4c-2,1.5-1.7,4.9,0.9,5.5
				c1.1,0.2,2.4-0.2,3.2-1c0.6-0.7,1-1.8,1-2.7c0-0.5-0.2-1.2-0.1-1.6c0.2-0.8,0.7-1.2,0.6-2.2C28.3,10.8,28.1,10.5,27.9,10.3z"/>
			<path id="XMLID_274_" class="st8" d="M27.2,11.5c1.3-2,3.9-1.1,4.7,0.8c1.7-0.3,2.4,1.3,2.1,2.7c-0.4,1.9-2.6,1.9-4.2,1.8
				C27.5,16.6,26.4,14.1,27.2,11.5z"/>
			<path id="XMLID_273_" class="st8" d="M37.4,6.6c0.1-0.7-0.8-1.5-1.3-1.6c-0.8-0.1-1.5,0.3-2.1,0.8c-1.3,1.1-1.6,2.3-1,3.7
				c-1.5,0.4-2.1,1.9-1.5,3.2C32,13.8,33,14,34,14c0.7,0,2.8-0.2,2.9-1.1c1.1-0.1,2-0.3,2.6-1.3c0.7-1.1,0.6-2.3-0.1-3.3
				c-0.3-0.5-0.7-0.9-1.2-1.2C37.8,6.7,37.7,6.8,37.4,6.6z"/>
			<path id="XMLID_272_" class="st8" d="M42.2,13.9c-1.4,0.1-2.4-1.8-1.9-3.1c0.5-1.3,2.7-2.2,3.9-1.6c0.8-1.1,2.2-1.2,3.5-0.7
				c0.9,0.3,1.2,0.8,1.7,1.6c1.4-0.4,2.2,1.7,2.1,2.8c-0.2,1.3-1.5,2.4-2.8,2.5c-0.7,0-1.3-0.1-2-0.2c-0.5,0-0.5,0-1,0.1
				C44.7,15.5,42.5,15,42.2,13.9z"/>
			<path id="XMLID_271_" class="st8" d="M50.2,17.3c-2.1-2.2,4.6-4.1,4.7-1.7c1.1,0.2,1.5,1.6,0.6,2.3c-0.8,0.7-2,0.7-3,0.5
				C52.2,18.4,50.5,17.9,50.2,17.3z"/>
			<path id="XMLID_270_" class="st8" d="M41.3,5.7c-0.5,0.2-1.3-0.2-1.7-0.4c-1-0.4-2.3-1.2-2.1-2.5c0.4-2.1,2.9-1.9,4.3-2.2
				c1.3-0.3,2.5-0.3,3.5,0.8c0.6,0.6,0.8,1.3,0.9,2.1c0,0.3,0.2,0.8,0.1,1.1C46,6.4,42.7,6.7,41.3,5.7z"/>
			<path id="XMLID_269_" class="st8" d="M30.7,5.1c-1.5-0.6-4.2,2.2-2.3,3.1c-0.3,0.4,0,0.7,0.4,0.9c0.8,0.3,1.8,0,2.3-0.5
				c0.6-0.6,0.9-1.3,0.7-2.1C31.7,5.8,31.2,5.3,30.7,5.1z"/>
		</g>
		<path id="XMLID_300_" class="st9" d="M24.1,9.8c-1.2,0.6-2,2.2-1.3,3.4c-1.9,1.4-1.7,4.4,0.3,5.3c0.8-0.2,1.6-0.8,2.2-1.6
			c0.4-0.6,0.7-1.5,0.8-2.3c0.1-0.5-0.1-0.9-0.1-1.4c0.1-0.7,0.5-1.4,0.6-2.1c0.1-0.6,0.1-1.1-0.1-1.5C25.6,9.4,24.7,9.5,24.1,9.8z"
			/>
		<path id="XMLID_301_" class="st10" d="M22.7,13.2c-1.5,1.1-1.7,3.1-0.7,4.4c1.1-0.4,2-2,2.2-3.1c0.1-0.6,0-1.2-0.2-1.8
			c-0.3-0.6-0.2-0.5,0.1-1.1c0.3-0.6,0.3-1.3,0-1.9c0,0,0,0,0,0C22.9,10.4,22.1,12,22.7,13.2z"/>
		<path id="XMLID_330_" class="st9" d="M34.1,15.1c0.3-1.4-0.4-3-2.1-2.7c-0.8-1.9-3.4-2.8-4.7-0.8c-0.5,1.5-0.3,3,0.4,4
			c0.1,0,0.1,0.1,0.2,0.1c1.1,0.3,3,0.2,3.6-0.9c0.4,0.8,1.3,1.3,2.1,1.3C33.8,15.8,34,15.5,34.1,15.1z"/>
		<path id="XMLID_327_" class="st10" d="M29.2,10.9c-0.6,0.1-1.1,0.3-1.5,0.8c-0.3,0.4-0.5,0.9-0.3,1.4c0.4,1,1.7,1.3,2.5,0.8
			c0.3-0.2,0.4-0.2,0.7-0.1c0.6,0.2,1.1,0.5,1.7,0.4c0.5-0.1,0.8-0.3,0.5-0.8c-0.3-0.4-1-0.5-1.4-0.7c-0.5-0.2-0.8-0.7-1.1-1.2
			C30,11.1,29.8,10.8,29.2,10.9z"/>
		<path id="XMLID_332_" class="st9" d="M29.3,7.8c0.5-0.2,1-0.6,1.6-0.7c0.4-0.1,0.7,0,1-0.2c0,0,0.1-0.1,0.1-0.1c0-0.1,0-0.2,0-0.3
			c-0.2-0.6-0.7-1.2-1.2-1.3C29.3,4.6,26.9,7,28.1,8C28.5,8,29,7.9,29.3,7.8z"/>
		<path id="XMLID_328_" class="st10" d="M30,5.4c-0.5,0.2-2.4,1.4-1.5,2C29,7.8,29.6,7.3,30,7.1c0.3-0.2,0.5-0.3,0.8-0.4
			c0.3-0.1,0.9,0,0.9-0.5c0-0.4-0.6-0.8-0.9-0.8C30.4,5.3,30.1,5.5,30,5.4z"/>
		<path id="XMLID_334_" class="st9" d="M38.4,8.5c0.2,0.3,0.3-0.6,0.3-0.7c-0.2-1.1-1.5-2.5-2.6-2.7c-0.8-0.1-1.5,0.3-2.1,0.8
			c-1.3,1.1-1.6,2.3-1,3.7c-0.3,0.1-0.5,0.2-0.7,0.3c-0.1,0-0.2,0.1-0.3,0.2c-0.1,0.1-0.2,0.2-0.3,0.3c0,0.1-0.1,0.1-0.1,0.2
			c0,0-0.1,0.1-0.1,0.1c-0.3,0.5-0.2,1.1,0.4,1.3c0.8,0.3,2.5,0.2,2.9-0.7c0.3,0.8,1.8,1,2.5,0.7C38.3,11.3,39.2,9.6,38.4,8.5z"/>
		<path id="XMLID_329_" class="st10" d="M35.4,5.8c-0.8,0.2-1.4,1-1.7,1.7c-0.1,0.4-0.2,0.8-0.1,1.2c0,0.3,0.1,0.5,0.1,0.8
			C33.4,10,32.7,10.3,33,11c0.4,0.8,1.4-0.1,1.9-0.4c0.7,0.5,1.2,1.1,2.2,0.5c1.2-0.7,1-1.9,0.2-2.7c0.7-0.5,0-1.8-0.6-2
			C36.1,6.1,35.8,5.7,35.4,5.8z"/>
		<path id="XMLID_336_" class="st9" d="M46.3,3.4c0-0.8-0.3-1.5-0.9-2.1c-1-1.1-2.2-1.1-3.5-0.8c-0.6,0.1-1.5,0.2-2.3,0.3
			C39.3,1,39,1.2,38.8,1.5c-0.5,0.6-0.7,1.8,0,2.4c0.9,0.8,2,0.9,3.1,0.8c0.6,0,1.2-0.4,1.8-0.2C46,5.3,46.3,3.6,46.3,3.4z"/>
		<path id="XMLID_331_" class="st10" d="M43.1,0.7c-0.8-0.2-1.8,0.1-2.5,0.5c-0.6,0.3-1.3,0.4-1.3,1.2c0.1,1.3,2,1.4,2.9,1.1
			c0.5-0.2,0.8-0.2,1.2-0.1c0.6,0.2,1.3,0.3,1.8-0.2c0.5-0.6-0.1-1.4-0.6-1.9C44.2,0.7,43.5,0.8,43.1,0.7z"/>
		<path id="XMLID_338_" class="st9" d="M51.2,13.6c0.1-0.2,0.2-0.5,0.2-0.8c0.1-1.1-0.7-3.2-2.1-2.8c-0.4-0.7-0.8-1.3-1.7-1.6
			c-1.2-0.4-2.7-0.4-3.5,0.7c-1.2-0.5-3.1,0.3-3.8,1.4c-0.1,0.3,0,0.6,0.1,0.9c0.3,0.7,1,1.2,1.7,1.4c0.6,0.2,1.3,0.1,1.8,0.4
			c0.9,0.4,1.9,0.9,2.9,1c0.7,0.1,1.4-0.1,2.1-0.1C49.8,14.1,50.6,14,51.2,13.6z"/>
		<path id="XMLID_333_" class="st10" d="M48.3,9.2c-0.5-0.7-1.5-0.9-2.3-0.7c-0.4,0.1-0.8,0.4-1.2,0.7c-0.1,0.1-0.2,0.3-0.4,0.4
			c-0.2,0-0.5-0.1-0.7-0.1c-0.5,0-1.2,0-1.6,0.3c-0.4,0.4-0.6,0.9-0.3,1.4c0.5,0.9,1.9,1.1,2.8,1c0.2,0,0.5-0.1,0.7-0.1
			c0.5,0.1,1.1,0.4,1.6,0.6c0.5,0.1,1,0.3,1.5,0.3c0.4,0,0.8-0.2,1.1-0.2c0.4,0,0.5,0.2,0.9-0.1c0.5-0.4,0.3-1.1,0-1.5
			c-0.2-0.3-0.5-0.4-0.8-0.5c-0.3-0.1-0.7,0-0.8-0.2c-0.2-0.3-0.2-0.8-0.4-1.2C48.4,9.3,48.3,9.3,48.3,9.2z"/>
		<path id="XMLID_340_" class="st9" d="M54.8,15.7c0-1.8-3.9-1.2-4.9,0.2c0.5,0.7,1.3,1.1,2.2,1.2c0.7,0.1,1.3,0.1,2,0.1
			c0.4,0,0.9,0.1,1.3,0.2c0.1,0,0.2,0,0.3,0C56.1,16.7,55.7,15.8,54.8,15.7z"/>
		<path id="XMLID_335_" class="st10" d="M53,14.9c-0.9-0.1-2.1,0.2-2,0.8c0.1,0.7,1.8,0.6,2.2,0.5c0.4-0.1,1-0.2,0.9-0.8
			C53.9,15,53.3,14.9,53,14.9z"/>
		<path id="XMLID_339_" class="st11" d="M31.4,18.4c-0.1,0-0.1,0-0.2,0c-0.1,0-0.1,0-0.1,0c-0.1-0.1-0.2-0.2-0.3-0.3
			c0-0.1,0.1-0.1,0.1-0.2c0.1,0,0.2,0,0.3,0c0.1,0,0.2,0,0.3,0c0.1,0,0.2,0.1,0.3,0.1c0.1,0,0.2,0.1,0.3,0.1c0.2,0,0.4,0,0.7,0
			c0.5,0,1,0,1.4,0.2c0.3,0.2,0.5,0.4,0.8,0.7c0.2,0.2,0.4,0.2,0.7,0.4c0.3,0.2,0.4,0.9,0.6,1.2c0.3,0.5,0.4,0.2,0.7,0.1
			c0.3,0.3,0,1.1,0,1.4c-0.1,0.7,0,1.3,0.2,2.1c0.1,0.7,0.4,1.3,0.5,2c0,0.4,0,0.8,0,1.1c0,0.4,0,0.4-0.5,0.4c-0.4,0.3-1.5,0-2-0.1
			c0-0.4,0.2-0.9,0.3-1.3c0.2-0.8,0.1-1.7,0.2-2.5c0-0.7,0.5-1.4,0.4-2.1c-0.1-0.4-0.7-0.6-0.8-1c-0.1-0.3-0.1-0.8-0.3-1.1
			c-0.1-0.1-0.2-0.3-0.3-0.4c-0.1-0.1-0.2-0.2-0.3-0.3c-0.1-0.1-0.1-0.1-0.2-0.2c-0.1-0.1-0.1-0.1-0.2-0.2c0,0-0.1-0.1-0.2-0.1
			c-0.1,0-0.2,0-0.3,0c-0.1,0-0.2,0-0.2,0c-0.2,0.1-0.5,0-0.7,0c-0.2,0-0.4,0-0.5,0C31.7,18.4,31.6,18.4,31.4,18.4z"/>
		<path id="XMLID_341_" class="st11" d="M39.3,17.2c-0.1,0.1-0.1,0.2-0.2,0.3c-0.1,0.2-0.3,0.3-0.5,0.4c-0.2,0.1-0.3,0.2-0.4,0.4
			c-0.2,0.2-0.4,0.5-0.5,0.8c-0.1,0.2-0.1,0.4-0.3,0.2c-0.1-0.1-0.2-0.2-0.4-0.3c-0.2-0.1-0.2-0.2-0.1-0.4c0.4-0.7,1.3-0.9,2-1.3
			c0.3-0.2,0.6-0.6,0.9-0.7c0.3-0.1,0.5-0.1,0.8-0.2c0,0.1,0.1,0.1,0.1,0.1c-0.3,0.1-0.6,0.1-0.8,0.3C39.7,16.8,39.5,17.1,39.3,17.2
			z"/>
		<path id="XMLID_342_" class="st11" d="M37.4,14.7c0.5-0.1,1-0.1,1.4-0.2c0.2,0,0.5,0,0.7,0c0.2,0,0.3,0,0.5-0.1
			c0.1,0,0.5-0.1,0.2-0.2c-0.2,0-0.5,0-0.7,0c-0.3,0-0.5,0-0.8,0c-0.4,0-0.7,0.1-1.1,0.2c-0.3,0-0.6,0.1-0.8,0.3
			c-0.1,0.1-0.2,0.2-0.3,0.3c-0.1,0.1-0.2,0.2-0.2,0.3c0,0.1,0,0.2,0,0.4c0,0.1,0,0.3,0,0.4c0.2-0.1,0.2-0.5,0.2-0.7
			c0.1-0.1,0.2-0.3,0.3-0.4c0.1-0.1,0.1-0.2,0.2-0.3C37.2,14.7,37.3,14.7,37.4,14.7z"/>
	</g>
	<g id="XMLID_321_">
		<path id="XMLID_153_" class="st12" d="M32.3,33.7c-1.1,0.7-2.7-2.2-2.7-3c0.1-1.7,2.2-3.5,3.9-2.6c0-1,0.1-1.6,1.1-2.1
			c1.2-0.6,2.9-0.7,3.7,0.5c2.5-0.8,2.9,3.4,2.2,4.8C39.1,34.2,35.4,34.1,32.3,33.7z"/>
		<path id="XMLID_155_" class="st10" d="M34.9,28.4c0.5-0.1,0.9-0.6,0.8-1.1c-0.2-0.7-1-0.1-1.3,0.2c-0.2,0.2-0.3,0.4-0.2,0.7
			C34.3,28.4,34.6,28.4,34.9,28.4z"/>
		<path id="XMLID_156_" class="st10" d="M31.4,30.2c0.4-0.2,0.9-0.8,0.3-1.1c-0.5-0.3-1.2,0.4-1.1,0.9
			C30.6,30.4,31.1,30.3,31.4,30.2z"/>
		<path id="XMLID_157_" class="st8" d="M40.5,31.3c0.6-1.2,0.3-4.4-1.3-4.8c1.4,2.2,0.5,6-2.5,5.9c-0.4,0-0.7-0.2-1-0.3
			c-0.6-0.1-1.4,0.2-2.1,0.3c-0.9,0.1-2.3,0.1-3.5-0.2c0.5,1,1.5,2,2.2,1.6C35.4,34.1,39.1,34.2,40.5,31.3z"/>
	</g>
	<g id="XMLID_306_">
		<path id="XMLID_320_" class="st13" d="M23,21.6c-0.5,0.8-0.7,2.7-1,3.8c-0.3,1.3-0.4,2.8-1.1,4c0.1,0.2,0.4,0.5,0.5,0.6
			c0.2,0.1,0.5,0,0.7,0c0.3,0,0.7,0,1,0c0.7,0,1.4,0.1,2.2,0.1c0.6,0,1.3,0.2,1.8,0c0.5-0.2,1.2-0.9,1.6-1.3
			c0.4-0.3,0.4-0.3,0.4-0.7c0.1-0.4-0.1-0.9-0.2-1.3c-0.1-0.6-0.1-1.3-0.2-2c-0.2-1.3-0.3-2.4-1.1-3.4c-0.4-0.5-0.7-1.2-1.2-1.6
			c-0.4-0.4-1-0.5-1.6-0.7c-0.6,0.4-1.3,0.9-1.9,1.3c-0.1,0.1-0.4,0.1-0.5,0.2C22.4,21.1,22.9,21.3,23,21.6z"/>
		<path id="XMLID_319_" class="st14" d="M27.9,21.8c0-0.1-0.1-0.1-0.1-0.2c-0.4-0.5-0.7-1.2-1.2-1.6c-0.4-0.4-1-0.5-1.6-0.7
			c-0.6,0.4-1.3,0.9-1.9,1.3c-0.1,0.1-0.4,0.1-0.5,0.2c-0.2,0.3,0.3,0.5,0.4,0.8c0,0,0,0.1-0.1,0.1c0.2,0.1,0.4,0.2,0.6,0.2
			c0.4,0.2,0.8,0.4,1.2,0.7c0.2,0.2,0.3,0.5,0.6,0.5c0.4,0.1,1.5-0.6,1.8-0.8C27.3,22.2,27.6,22,27.9,21.8z"/>
		<g id="XMLID_317_">
			<path id="XMLID_318_" class="st15" d="M29.1,27c-0.1-0.6-0.1-1.3-0.2-2c-0.2-1.2-0.3-2.2-1-3.2c-0.3,0.2-0.5,0.5-0.8,0.7
				c-0.3,0.2-1.2,0.8-1.7,0.8c0.1,1,0.2,1.9,0.1,2.9c0,0.5-0.2,1.1-0.2,1.6c0.1,0.5,0.4,1,0.6,1.5c0.1,0.3,0.3,0.7,0.4,1
				c0.3,0,0.6,0,0.8-0.1c0.5-0.2,1.2-0.9,1.6-1.3c0.4-0.3,0.4-0.3,0.4-0.7C29.3,27.8,29.1,27.3,29.1,27z"/>
		</g>
		<path id="XMLID_316_" class="st16" d="M24.9,26.6c-0.1,0.7-0.5,1.3,0,1.9c0.2,0.3,0.6,0.6,0.7,0.9c0.1,0.2,0,0.3,0.1,0.5
			c-0.6,0-1.1-0.1-1.7-0.1c-0.4,0-0.8,0-1.1,0c0-0.7,0.9-0.6,1.4-0.9c0-0.1-0.2-0.4-0.2-0.5c0-0.3,0.3-0.6,0.4-0.8
			c0.2-0.4,0.3-0.9,0.4-1.3c0,0,0.1,0,0.1,0C24.9,26.3,24.9,26.5,24.9,26.6z"/>
		<path id="XMLID_315_" class="st16" d="M22.3,25.4c-0.1,0.4-0.2,1-0.2,1.4c0,0,0.2,0,0.2,0c0.2-0.8,0.7-1.5,0.7-2.3
			c0-0.3-0.1-1.5-0.4-1.5C22.6,23.8,22.5,24.6,22.3,25.4z"/>
		<path id="XMLID_311_" class="st14" d="M27.9,21.8c0-0.1-0.1-0.1-0.1-0.2c0-0.1-0.1-0.1-0.1-0.2c-0.7,0.5-1.6,1.2-2.4,1.1
			c-0.5-0.1-1-0.4-1.4-0.5c-0.3-0.1-0.5-0.2-0.8-0.2c0.2,0.1,0.3,0.1,0.5,0.2c0.4,0.2,0.8,0.4,1.2,0.7c0.2,0.2,0.3,0.5,0.6,0.5
			c0.4,0.1,1.5-0.6,1.8-0.8C27.3,22.2,27.6,22,27.9,21.8z"/>
		<path id="XMLID_309_" class="st17" d="M25.7,23.7c0.2,0.7,0.2,1.5,0.2,2.2c0,0.5-0.2,1-0.2,1.4c0,0.4,0.5,0.8,0.6,1.2
			c0.1,0.3,0.3,0.6,0.4,1c0.1,0,0.2,0,0.3,0c0.1-0.8-0.2-1.6-0.3-2.4c0-0.2,0-0.4,0-0.6c0-0.3,0-0.6,0.1-0.9c0.2,0,0.3,0.5,0.3,0.6
			c0.1-0.1,0.3-0.2,0.5-0.2c0-0.7-0.1-1.5-0.1-2.2c0-0.4-0.1-0.7-0.2-1.1c-0.3,0-0.8,0.2-0.9,0.4c-0.2,0.2,0,0.8-0.3,0.8
			C26.1,23.7,26,23.5,25.7,23.7z"/>
		<path id="XMLID_308_" class="st14" d="M25,19.6c-0.3,0.2-0.6,0.4-0.9,0.6c-0.1,0.1-0.4,0.1-0.5,0.3c-0.1,0.1-0.1,0.3,0,0.5
			c0.5-0.1,0.9-0.3,1.4-0.5c0.5-0.1,1.1,0,1.5,0.1c0-0.3-0.1-0.4-0.4-0.6C25.8,19.8,25.3,19.5,25,19.6z"/>
	</g>
	<g id="XMLID_322_">
		<path id="XMLID_326_" class="st12" d="M22.3,33.5c-0.6,0.3-1.6,0.4-2.1,0.3c-1.5-0.3-3.5-1.7-3.8-3.2c-0.4-2.8,2.7-3.2,4.6-3.3
			c-0.5-2.6,2.6-2.8,4.1-1.5c1.7-1.9,4.4,0.3,4.8,2.3c0.4,1.7-1.1,3-2.5,3.7c-1.6,0.7-3.1,0.5-4.8,0.5
			C23.1,32.9,22.8,33.3,22.3,33.5z"/>
		<path id="XMLID_325_" class="st10" d="M20.1,28.7c0.1-0.5-0.6-0.5-0.9-0.4c-0.5,0.1-1.1,0.5-1.4,0.9c-0.3,0.4,0,0.6,0.5,0.6
			C18.6,29.9,20.1,29.2,20.1,28.7z"/>
		<path id="XMLID_324_" class="st10" d="M26.7,25.1c-0.5,0-1,0.2-1.5,0.7c-1.4-1.1-4.1-1-4.2,0.9c0,0,0,0,0,0c0.3-0.8,0.7-0.9,1-1.1
			c0.4-0.1,1,0,1.4,0c0.7,0.1,1.6,0.7,2.1,1.2C25.5,26.4,26.1,25.4,26.7,25.1z"/>
		<path id="XMLID_323_" class="st8" d="M30.1,28.1c-0.1-0.4-0.2-0.8-0.5-1.1c-0.1,1.4-1.7,2.7-3.1,3.2c-1.8,0.6-3.8,0.4-5.7,0.5
			c0,0.8,1.3,2,0.1,2.7c-0.6,0.4-1.9-0.1-2.5-0.3c-0.1,0-0.3-0.1-0.4-0.1c0.7,0.5,1.5,0.9,2.2,1c0.4,0.1,1.4,0,2.1-0.3
			c0.5-0.2,0.8-0.7,0.5-1.2c1.7,0,3.2,0.2,4.8-0.5C29,31.1,30.4,29.8,30.1,28.1z"/>
	</g>
	<path id="XMLID_194_" class="st18" d="M45.5,30.9c3.2-2,7.5-2.6,11-3.8c0.7-0.2,1.4-0.4,2.1-0.6c-2.1-0.9-4.7-1-6.6-2.3
		c-0.1-0.1-0.3-0.2-0.4-0.3c-1.5,0.7-3.1,1.5-4.4,2.3c-1.8,1-7,3.2-6,6.1c0.7,1.8,3.1,1.5,1.8,3.9c-2.4,4.3-8.5,3.4-12.4,3.3
		c-5-0.1-11.4-0.9-16.1,1.1c-0.4,0.2-1.5,0.9-2.5,1.8c0.8,0.2,1.5,0.5,2.1,1c0.6,0.5,1.1,1.2,1.6,1.9c1,1.2,2.2,2.3,3.7,2.7
		c0.7,0.2,1.5,0.3,2.2,0.2c0.6,0,1.5-0.4,1.9,0.2c0.1,0.1,0.1,0.3,0.1,0.4c0.8-0.4,1.7-0.8,2.6-1.2c4.9-2,10.2-2.4,15.1-4.1
		c2.2-0.8,7-1.6,8-4c1-2.2-1.2-3.8-2.9-5C44.5,33.3,42.9,32.4,45.5,30.9z"/>
	<path id="XMLID_200_" class="st19" d="M43.1,39.6c-0.5,0.5-1.1,1-1.8,1.1c-0.3,0-0.7,0-1,0.2c-0.3,0.2-0.2,0.4,0.1,0.4
		c0.3,0,0.6-0.1,1-0.2c0.2,0,0.5,0,0.7-0.1c0.1-0.1,0.2-0.2,0.4-0.2c0.3-0.1,0.2,0,0.1,0.3c-0.3,0.6,0.6,0.1,0.8,0
		c0.4-0.2,0.8-0.6,1.2-0.9c0.3-0.3,0.7-0.7,0.9-1.2c0.2-0.5,0-0.5-0.3-0.2c-0.4,0.4-0.7,0.8-1.2,0.9c-0.1,0-0.4,0.2-0.5,0
		c-0.1-0.1,0.1-0.3,0.1-0.4c-0.2,0-0.4,0.4-0.6,0.5C43,39.7,43,39.7,43.1,39.6z"/>
	<path id="XMLID_204_" class="st19" d="M45.5,30.9c3.2-2,7.5-2.6,11-3.8c0.7-0.2,1.4-0.4,2.1-0.6c-0.8-0.3-1.7-0.6-2.6-0.8
		c-0.4,0.2-0.8,0.5-1.2,0.7c-0.6,0.3-1.1,0.5-1.6,0.8c-0.9,0.5-2,0.8-2.9,1.2c-0.8,0.3-1.7,1-2.6,1.2c-0.9,0.2-0.3-0.3-0.5-0.8
		c-0.6,0.1-1.1,0.4-1.7,0.6c-0.6,0.2-1.3,0.4-1.7,0.9c-0.8,0.8-0.5,2.5,0.4,3c0.8,0.5,1.6,1,2.4,1.5c0.7,0.4,1.1,0.7,1.3,1.5
		c0.8,3.4-2.8,5.9-5.7,5.9c-0.9,0-1.8-0.2-2.7,0.1c-0.6,0.2-1.1,0.7-1.6,1c-0.6,0.3-1,0.4-1.6,0.5c-1.3,0.3-2.6,0.6-4,0.8
		c-1.1,0.2-2.2,0.4-3.4,0.2c-1.1-0.1-1.5,0.2-2.5,0.7c-1,0.5-2,0.8-3,1.1c-0.8,0.2-1.6,0.5-2.4,0.4c-0.3,0-0.8,0-0.9-0.4
		c-0.1-0.3,0.3-0.7,0.3-1c-0.6,0-1.4,0.6-1.9,0.9c-0.2,0.1-0.6,0.3-0.9,0.5c0.5,0.4,1.1,0.7,1.8,0.9c0.7,0.2,1.5,0.3,2.2,0.2
		c0.6,0,1.5-0.4,1.9,0.2c0.1,0.1,0.1,0.3,0.1,0.4c0.8-0.4,1.7-0.8,2.6-1.2c4.9-2,10.2-2.4,15.1-4.1c2.2-0.8,7-1.6,8-4
		c1-2.2-1.2-3.8-2.9-5C44.5,33.3,42.9,32.4,45.5,30.9z"/>
	<path id="XMLID_203_" class="st19" d="M52,24.2c-0.1-0.1-0.3-0.2-0.4-0.3c-1.5,0.7-3.1,1.5-4.4,2.3c-1.8,1-7,3.2-6,6.1
		c0.7,1.8,3.1,1.5,1.8,3.9c-2.4,4.3-8.5,3.4-12.4,3.3c-5-0.1-11.4-0.9-16.1,1.1c-0.4,0.2-1.5,0.9-2.5,1.8c0.8,0.2,1.5,0.5,2.1,1
		c0.5,0.4,0.9,0.9,1.2,1.4c0.6-0.3,1.2-0.6,1.8-0.9c1.6-0.8,3.4-1.4,5.2-1.5c0.3,0,1.5-0.2,1.4,0.4c0,0.3-0.7,0.4-0.8,0.6
		c-1,1.2,2,0.5,2.4,0.3c1.7-0.7,3.1-1.7,5-1.7c1.3,0,2.5-0.2,3.7-0.4c1.1-0.2,2.2-0.7,3.3-1c1.1-0.3,2.4-0.2,3.6-0.3
		c1.3-0.1,2.5-1.8,3.3-2.8c0.6-0.7,1.6-1.8,1-2.8c-0.4-0.6-1.1-0.8-1.7-1.1c-1-0.6-1.8-1.7-1.2-2.9c0.5-1,1.7-1.6,2.6-2
		c0.8-0.4,1.6-0.9,2.5-1.2c0.6-0.2,0.8,0,1.3,0.1c0.7,0.2,1.4-0.3,2-0.5c1.2-0.5,2.6-1.1,3.7-1.9C53.5,25,52.7,24.7,52,24.2z"/>
	<g id="XMLID_193_">
		<path id="XMLID_195_" class="st7" d="M42,33.4c-0.2-0.2-0.3-0.4-0.5-0.8c-1-2.9,4.2-5.2,6-6.1c1.4-0.7,2.9-1.6,4.4-2.3
			c0.1,0.1,0.3,0.2,0.4,0.3c1.7,1.1,3.9,1.4,5.9,2c0.1,0,0.2-0.1,0.3-0.1c-2.1-0.9-4.7-1-6.6-2.3c-0.1-0.1-0.3-0.2-0.4-0.3
			c-1.5,0.7-3.1,1.5-4.4,2.3c-1.8,1-7,3.2-6,6.1C41.3,32.8,41.6,33.1,42,33.4z"/>
		<path id="XMLID_199_" class="st7" d="M14.8,41c4.7-2,11.1-1.1,16.1-1.1c3.9,0,10,0.9,12.4-3.3c0.7-1.3,0.4-1.8-0.2-2.3
			c0.3,0.4,0.4,0.9-0.2,1.9c-2.4,4.3-8.5,3.4-12.4,3.3c-5-0.1-11.4-0.9-16.1,1.1c-0.4,0.2-1.5,0.9-2.5,1.8c0.2,0.1,0.4,0.1,0.6,0.2
			C13.5,41.8,14.4,41.2,14.8,41z"/>
	</g>
	<path id="XMLID_191_" class="st20" d="M21.3,41.3c0.1,0.6,1.1,0.7,1.6,0.8c0.2,0.4,0.6,0.8,1,1c0.2,0.1,0.5,0,0.7,0.1
		c0.4,0.1,0.3,0.1,0.5,0.4c0.5,0.5,1.1,0.6,1.7,0.9c0.2,0.1,0.9,0.8,0.9,1c0,0.8-0.7,0-0.9-0.1c-0.4-0.4-0.7-0.2-1.3-0.5
		c-0.5-0.2-0.7-0.8-1.1-1c-0.6-0.3-1.1-0.4-1.6-0.9c-0.4-0.5-0.9-0.4-1.4-0.8c-0.1-0.1-0.5-0.5-0.5-0.7C21,41,21.3,41.2,21.3,41.3z"
		/>
	<path id="XMLID_192_" class="st20" d="M26.6,42.7c0.4,0,0.7-0.2,1.1,0c0.3,0.2,0.2,0.2,0.3,0.4c0.3,0.4,0.5,0.6,1.1,0.7
		c0.1,0.4,0.4,0.8,0.8,0.9c0,0,0,0.1,0,0.1c-0.5,0.1-0.5-0.3-0.8-0.6c-0.2-0.2-0.6-0.3-0.9-0.5c-0.3-0.2-0.3-0.6-0.6-0.8
		C27.4,42.8,26.9,42.9,26.6,42.7z"/>
	<path id="XMLID_196_" class="st20" d="M43.6,38.5c-0.2,0.7,1.2,0.5,1.5,0.3c-0.1,0.6,0.7,0.6,1.1,0.7c0.3,0.1,0.7,0.6,1.2,0.4
		c0,0.5-0.9,0.3-1-0.1c-0.6,0.2-1.1-0.1-1.4-0.6C44.6,39.4,43.3,39.3,43.6,38.5z"/>
	<path id="XMLID_197_" class="st20" d="M44.3,36.8c0.1,0.5,0.6,0.1,0.9,0c0.4,0,0.6,0.3,1-0.1c0.2,0.3,0.7,0.3,0.9,0
		c0.2,0.4-0.3,0.3-0.5,0.4c-0.2,0-0.2-0.1-0.4,0c-0.1,0-0.3,0.2-0.4,0.2C45.5,37.3,44,37.3,44.3,36.8z"/>
	<path id="XMLID_198_" class="st21" d="M49.1,26.6c-0.2,0.5,0.7,0.6,1,0.4c0.1,0.4,0.6,0.5,1,0.4c0.2,0.3,0.4,0.5,0.8,0.5
		c-0.4,0.2-0.7,0.1-1.1,0c0,0-0.2-0.1-0.3-0.2c-0.2-0.1-0.4,0-0.6-0.1C49.7,27.6,48.5,26.9,49.1,26.6z"/>
	<path id="XMLID_208_" class="st2" d="M18.6,57.1c-0.1-1.2-0.1-2.3-0.4-3.4c-0.6-2.3-0.8-4.6-1-6.9c-0.5-0.4-1-1-1.5-1.5
		c-0.5-0.6-1-1.3-1.6-1.9c-0.6-0.5-1.4-0.8-2.1-1c-0.1,0.1-0.5,1-0.7,1.6c-0.1,0.5,0,1.2,0,1.8c0.1,1.3,0.4,2.6,0.8,3.8
		c0.5,1.5,1.4,2.9,2.2,4.3c0.5,0.9,1,1.9,1.5,2.8c0.3,0.5,0.3,1,0.4,1.6c0.1,0.9,0.2,1.7,0.2,2.5c0,0.4,0.1,0.8,0,1.2
		c0.4,0.6,0.2,1.7,0.3,2.4c0.1,0.7,0.3,1.3,0.4,2c0.1,0.5,0.1,1,0.2,1.5c0.7,0.1,1.4,0.2,2.1,0.6c0.2-0.5,0.3-1.1,0.3-1.6
		c0-1.9-0.2-3.9-0.4-5.8C18.9,59.9,18.7,58.5,18.6,57.1z"/>
	<path id="XMLID_201_" class="st22" d="M27.8,40.5c-0.4-0.1-1-0.1-1.4-0.1c-0.5,0-1.3-0.1-1.8,0.1c-0.8,0.4,0.4,0.8,0.8,0.9
		c0.5,0.1,1,0.1,1.6,0c0.4-0.1,1.2-0.1,1.5-0.3c0.2-0.1,0.3-0.2,0.1-0.4C28.5,40.3,28.2,40.5,27.8,40.5z"/>
	<path id="XMLID_207_" class="st23" d="M22.5,65.2c-0.1-2.3-0.6-4.5-0.6-6.8c0-0.8,0.2-1.6,0.2-2.4c0-0.8-0.2-1.6-0.2-2.4
		c0.1-1.7,0.6-3.5,1.6-4.9c0-0.1,0-0.2-0.1-0.3c-0.4-0.6-1.3-0.3-1.9-0.2c-0.8,0-1.5,0-2.2-0.2c-1.5-0.4-2.7-1.5-3.7-2.7
		c-0.5-0.6-1-1.3-1.6-1.9c-0.5-0.4-1-0.7-1.6-0.8c-0.1,2.9,0.8,5.7,1.8,8.4c0.7,2,1.5,4,2,6c0.4,1.8,0.4,3.6,0.7,5.4
		c0.2,0.9,0.5,1.6,0.8,2.5c0.2,1,0.2,2,0.3,3c0,0.1,0,0.2,0,0.3c0.6,0.1,1.2,0.4,1.6,0.7c0.5,0.4,0.8,0.9,1.2,1.4
		c0.5,0.7,1.2,1.3,2,1.7c-0.1-0.9-0.2-1.9-0.2-2.8C22.5,67.9,22.6,66.5,22.5,65.2z"/>
	<path id="XMLID_209_" class="st0" d="M21.7,69.4c0-0.9-0.2-1.1-0.6-1.7c-0.3-0.5-0.4-1.2-0.5-1.8c-0.1-0.3-0.4-1.9,0.2-1.8
		c0.4,0,0.4-0.5,0.4-0.8c0-0.4-0.1-0.9-0.2-1.3c-0.2-0.7-0.2-2-0.5-2.6c-0.2-0.3-0.5-0.2-0.7-0.5c-0.3-0.3-0.4-1.2-0.5-1.6
		c-0.2-0.9-0.4-2.4-1.3-2.9c-0.7,0.4,0,2.2-0.2,3c-0.6,2,0.1,4.5,0.5,6.4c0.2,1.2,0.7,3.3,0.5,4.6c0.3,0.1,0.6,0.3,0.9,0.5
		c0.5,0.4,0.8,0.9,1.2,1.4c0.3,0.4,0.7,0.8,1,1.1C21.8,70.7,21.7,70,21.7,69.4z"/>
	<path id="XMLID_210_" class="st2" d="M18.5,61.7c-0.2-0.8-0.5-1.7-0.3-2.5c0.2-0.7,0.5-1.4,0.5-2.2c0-0.4,0-1.1,0.1-1.7
		c-0.2-0.4-0.4-0.7-0.7-0.9c-0.7,0.4,0,2.2-0.2,3c-0.6,2,0.1,4.5,0.5,6.4c0.2,1.2,0.7,3.3,0.5,4.6c0.1,0,0.1,0.1,0.2,0.1
		c0-0.1,0.1-0.3,0.1-0.4c0.3-1.1,0.3-2.4,0.1-3.6C19,63.6,18.7,62.7,18.5,61.7z"/>
	<path id="XMLID_211_" class="st19" d="M16.5,45.1c-0.6-0.7-1.2-1.3-1.8-1.9c0,0.1-0.1,0.3-0.2,0.6c0.4,0.5,0.8,1,1.2,1.5
		c0.7,0.9,1.6,1.8,2.7,2.3c0.4-0.3,0.7-0.6,0.8-0.9c-0.5,0-0.8,0-1.2-0.2C17.3,46.1,16.9,45.6,16.5,45.1z"/>
	<path id="XMLID_202_" class="st24" d="M19.4,53.3c-0.4,0.6-0.2,1.2-0.1,1.8c0.1,0.6,0.2,1.2,0.3,1.8c0.1,0.4,0.1,0.7,0.2,1
		c0,0.2,0.1,0.4,0.2,0.6c0.1,0.1,0.4,0.2,0.5,0.3c0.3,0.3,0.3,0.8,0.6,1c0.3-0.4,0-1.4-0.1-1.8c0-0.2-0.1-0.3-0.2-0.4
		c-0.3-0.4-0.5-0.8-0.6-1.3c-0.2-0.8-0.2-1.6-0.4-2.3c-0.2-0.6,0.1-1.3-0.2-1.8C19.3,52.6,19.5,53,19.4,53.3z"/>
	<path id="XMLID_205_" class="st24" d="M16.9,52.1c-0.1,0.3,0,0.7,0.1,1c0.1,0.4,0.1,0.8,0.2,1.3c0.1,0.6,0.2,1.2,0.1,1.9
		c0,0.4,0,0.7-0.2,1.1c-0.1,0.2,0,0.6-0.2,0.8c-0.2-0.2-0.2-0.4-0.2-0.7c0-0.3-0.1-0.6-0.1-0.9c-0.1-0.5-0.3-1.1-0.3-1.6
		c0-0.2,0.1-0.3,0.2-0.4c0.1-0.3,0.2-0.6,0.3-0.9c0.1-0.5-0.1-0.9-0.2-1.4c0-0.2-0.2-0.7,0-0.8C17.1,51.1,17,52.2,16.9,52.1z"/>
	<path id="XMLID_206_" class="st24" d="M21.5,65c0,0.8,0.3,1.5,0.3,2.3c0,0.1,0,0.5-0.2,0.5c-0.2,0-0.3-0.2-0.3-0.3
		c-0.2-0.4-0.1-1-0.2-1.5c0-0.3-0.1-0.5-0.1-0.8c0.1,0,0.1,0.1,0.2,0c0.1-0.1,0.1-0.2,0.1-0.3c0-0.1,0-0.3,0.1-0.2
		C21.5,64.7,21.5,64.9,21.5,65z"/>
	<g id="XMLID_234_">
		<path id="XMLID_244_" class="st13" d="M49.7,24.2c-0.2,0.1-0.4,0.2-0.5,0.4c-0.4,0.6-0.9,1.2-1.3,1.8c-0.1,0.2-0.4,0.4-0.5,0.6
			c0,0.2,0.1,0.5,0.1,0.7c0,0.5,0.1,1.1,0,1.5c-0.1,0.4-0.4,0.7-0.4,1.1c0,0.6,0.2,1.2,0.3,1.7c0,0.3,0.1,0.5,0.1,0.8
			c0,0.1,0.1,0.3,0.1,0.5c0,0.1-0.1,0.3-0.1,0.4c0.1,0.3,0.5,0.4,0.7,0.6c0.1,0.1,0.3,0.3,0.5,0.3c0.3,0,0.8-0.3,1.1-0.3
			c0.6-0.1,1.2-0.1,1.8-0.1c0.4,0,0.8-0.1,1.2,0.1c0.3-0.5,0.7-0.9,1.2-1.3c0.2-0.2,0.2-0.2,0.2-0.4c0-0.7-0.1-1.4-0.1-2
			c0-0.9,0-1.9-0.1-2.7c0-0.2-0.1-0.5-0.1-0.6c-0.1-0.2-0.3-0.3-0.4-0.5c-0.3-0.3-0.5-0.6-0.7-0.9c-0.4-0.5-0.5-0.8-0.6-1.4
			c-0.1-0.2-0.1-0.8-0.3-0.9c-0.2-0.1-0.6,0.1-0.8,0.2C50.6,23.9,50.1,24,49.7,24.2z"/>
		<path id="XMLID_243_" class="st15" d="M52.8,34.3c0.3-0.5,0.7-0.9,1.2-1.3c0.2-0.2,0.2-0.2,0.2-0.4c0-0.7-0.1-1.4-0.1-2
			c0-0.9,0-1.9-0.1-2.7c0-0.2-0.1-0.5-0.1-0.6c-0.1-0.2-0.3-0.3-0.4-0.5c-0.3-0.3-0.5-0.6-0.7-0.9c-0.4-0.5-0.5-0.8-0.6-1.4
			c-0.1-0.2-0.1-0.8-0.3-0.9c0,0-0.1,0-0.1,0c0,1,0.2,2,0,3c-0.1,0.7-0.7,1.4-0.8,2.1c-0.2,1.2,0.3,2.5,0.2,3.7
			c0,0.4-0.2,0.8-0.2,1.2c0,0.2-0.1,0.4-0.1,0.7c0.3,0,0.6,0,0.9,0C52.1,34.2,52.5,34.1,52.8,34.3z"/>
		<g id="XMLID_241_">
			<path id="XMLID_242_" class="st14" d="M51.7,26.5c0.2-1,0-2,0-3c-0.2,0-0.5,0.2-0.7,0.3c-0.4,0.1-0.9,0.2-1.3,0.4
				c-0.2,0.1-0.4,0.2-0.5,0.4c-0.4,0.6-0.9,1.2-1.3,1.8c-0.1,0.1-0.2,0.2-0.3,0.3c0,0,0.1,0,0.1,0c0.8-0.1,0.9-0.1,1.6,0.3
				c0.6,0.4,1.2,0.8,1.7,1.2C51.2,27.6,51.6,27.1,51.7,26.5z"/>
		</g>
		<path id="XMLID_240_" class="st14" d="M51.7,26.5c0.2-1,0-2,0-3c-0.1,0-0.1,0-0.2,0c0,0.7,0,1.4-0.1,2c-0.1,0.4-0.4,1-0.7,1.4
			c-0.2,0.3-0.6,0.3-0.9,0.1c-0.2-0.2-0.5-0.4-0.7-0.4c-0.2,0-0.4,0-0.6,0.1c0.3,0,0.5,0.1,0.9,0.3c0.6,0.4,1.2,0.8,1.7,1.2
			C51.2,27.6,51.6,27.1,51.7,26.5z"/>
		<path id="XMLID_239_" class="st17" d="M54.2,32.6c0-0.4,0-0.8,0-1.2c-0.1,0.1-0.1,0.2-0.1,0.3c0,0.3,0.1,0.6,0,0.8
			c-0.2,0.3-0.7,0.7-0.9,1c-0.3,0.3-0.2,0.4-0.6,0.4c-0.4,0-0.8-0.2-0.9-0.6c-0.1-0.6-0.1-1.2-0.2-1.7c-0.1-0.6-0.3-1.2-0.6-1.8
			c0.1,0.8,0.3,1.7,0.2,2.5c0,0.4-0.2,0.8-0.2,1.2c0,0.2-0.1,0.4-0.1,0.7c0.3,0,0.6,0,0.9,0c0.4,0,0.8-0.1,1.2,0.1
			c0.3-0.5,0.7-0.9,1.2-1.3C54.2,32.8,54.2,32.8,54.2,32.6z"/>
		<path id="XMLID_238_" class="st17" d="M51.9,26.9c-0.1,0.4-0.6,0.8-0.6,1.2c0,0.2,0.1,0.5,0.1,0.7c0,0.2,0,0.5,0.1,0.6
			c0.1,0.2,0.3,0.4,0.4,0.6c0.1,0.2,0,0.5,0.1,0.7c0.2,0,0.1-0.1,0.1-0.2c0.1-0.3,0.2-0.7,0.2-1c0-0.3-0.2-0.6-0.1-1
			c0-0.4,0.3-0.9,0.3-1.3c0-0.4-0.2-0.9-0.4-1.3C51.8,26.2,52,26.7,51.9,26.9z"/>
		<path id="XMLID_237_" class="st25" d="M49.2,27.7c0.3,0.2,0.9,0.5,1.1,0.8c0.2,0.2,0.1,0.6,0.1,0.9c0,0.6,0.1,1.2,0.3,1.7
			c-0.1,0.1-0.1,0.1-0.2,0.2c-0.3-0.4-0.2-0.9-0.4-1.3c-0.2-0.4-0.6-0.6-0.9-0.9c-0.1-0.1-0.3-0.3-0.3-0.4c-0.1-0.2-0.1-0.4-0.1-0.6
			c-0.1-0.3-0.3-0.3-0.4-0.6c0,0,0.1-0.1,0.1-0.1C48.6,27.4,48.8,27.6,49.2,27.7z"/>
		<path id="XMLID_236_" class="st25" d="M49.1,29.9c0.2,0.1,0.5,0.3,0.6,0.5c0.1,0.2,0.1,0.5,0.2,0.7c-0.1-0.1-0.3,0-0.4,0
			c-0.1-0.3-0.3-0.6-0.5-0.8C49,30.2,49,30.1,49.1,29.9z"/>
		<path id="XMLID_235_" class="st25" d="M48.6,33.8c0.1,0.1,0.2,0.4,0.3,0.5c0.3-0.3,0.9-0.4,1.2-0.3c0-0.1,0-0.2,0-0.2
			C49.7,33.7,49.1,33.7,48.6,33.8z"/>
	</g>
	<g id="XMLID_256_">
		<path id="XMLID_266_" class="st13" d="M52.6,37.5c-1.7-1.1-2.2-3.2-1.5-5c0.5-1.2,1.1-2.9,1.9-3.8c0.7-0.7,2.6-1.7,3.6-1.6
			c0.8,0.1,2.5,0.4,3.1,0.9c0.6,0.5,1.1,1.8,1.4,2.6c0.5,1.1,1.5,2.5,1,3.6c-0.4,0.9-1.2,1.7-1.7,2.5c-0.2,0.3-0.4,0.7-0.7,0.9
			c-1.1,0.8-3.5,0.7-4.7,0.6C54.4,38,53.5,37.9,52.6,37.5z"/>
		<path id="XMLID_265_" class="st14" d="M60.9,29.9c-0.3-0.7-0.7-1.6-1.1-2c-0.6-0.5-2.4-0.9-3.1-0.9c-1-0.1-2.9,0.9-3.6,1.6
			c-0.4,0.4-0.8,1.1-1.1,1.8c0.3,0.1,0.6,0.2,0.9,0.3c0.9,0.3,1.9,0.7,2.8,0.6c1.4-0.2,2.9-0.7,4.2-1.1C60.2,30.1,60.5,30,60.9,29.9
			z"/>
		<g id="XMLID_263_">
			<path id="XMLID_264_" class="st15" d="M61.1,30.5c-0.1-0.2-0.2-0.4-0.3-0.6c-0.4,0.1-0.7,0.2-1.1,0.3c-1.1,0.3-2.4,0.8-3.6,1
				c-0.3,0.4-0.6,1-0.8,1.4c-0.4,0.5-0.8,1.1-0.7,1.8c0.1,0.7,0.4,1.4,0.6,2c0.1,0.3,0.1,0.8,0.3,1c0.2,0.1,0.7,0.2,0.9,0.3
				c0.4,0.1,0.8,0.3,1.2,0.5c0.8-0.1,1.6-0.2,2.1-0.6c0.3-0.2,0.5-0.6,0.7-0.9c0.5-0.8,1.3-1.6,1.7-2.5
				C62.6,33.1,61.6,31.6,61.1,30.5z"/>
		</g>
		<g id="XMLID_261_">
			<path id="XMLID_262_" class="st14" d="M55.3,36.2c-0.2-0.6-0.5-1.3-0.6-1.8c-0.1-0.6,0.3-1.2,0.7-1.8c0.3-0.4,0.5-0.9,0.8-1.4
				c-0.2,0-0.4,0.1-0.6,0.1c-1,0.1-1.9-0.3-2.8-0.6c-0.3-0.1-0.6-0.2-0.9-0.3c-0.1,0.2-0.1,0.3-0.2,0.5c0.6,0.1,1.2,0.3,1.9,0.4
				c0.4,0.1,0.9,0.2,1,0.6c0.3,0.9-0.7,1.6-0.3,2.4C54.5,35,55.2,35.6,55.3,36.2C55.3,36.2,55.3,36.2,55.3,36.2z"/>
		</g>
		<path id="XMLID_260_" class="st17" d="M56.6,32c-0.5,0.3-0.8,1.2-1.1,1.6c-0.3,0.4-0.2,0.6-0.1,1.1c0.2,0.6,0.4,1.2,0.5,1.8
			c0.1,0,0.3,0.1,0.4,0.1c0.2-0.5,0.2-1.2,0.4-1.6c0.3-0.6,1.2-1,1.6-1.6c0.3-0.4,0.3-0.8,0.4-1.3c0.2-0.6,0.6-0.6,1-1
			c-0.2-0.3-0.7,0.1-1,0.2c-0.7,0.2-1.4,0.3-2,0.6c0,0.3,0.1,0.6,0,0.8C56.6,32.4,56.6,32.3,56.6,32z"/>
		<path id="XMLID_259_" class="st17" d="M61.5,33.1c0,0.3,0.1,0.5,0.3,0.8c-0.5,0.4-0.8,1.1-1.3,1.5c-0.2-0.2-0.4-0.5-0.4-0.7
			c0-0.3,0.5-0.8,0.6-1c0.1-0.2,0.3-0.5,0.4-0.7C61.2,32.9,61.3,33,61.5,33.1z"/>
		<path id="XMLID_258_" class="st14" d="M59.8,28.1c-0.3,0-0.6,0.1-0.9,0c-0.7,0-1.4-0.2-2-0.3c-0.4-0.1-0.7-0.3-0.9,0.1
			c0.3,0,0.6,0.2,0.9,0.3c-0.2,0.8-0.9,0.7-1.6,0.8c-0.3,0-1,0-1,0.4c0,0.3,0.2,0.2,0.4,0.2c0.6,0.1,1.4,0.5,2,0.4
			c0.8-0.1,1.7-0.6,2.5-0.8c0.3-0.1,0.7-0.2,1.2-0.2C60.3,28.7,60.1,28.3,59.8,28.1z"/>
		<path id="XMLID_257_" class="st25" d="M51.8,36.2C51.8,36.2,51.8,36.1,51.8,36.2c0.4,0.5,1,1,1.6,1.2c0.2,0.1,0.9,0.1,1.1,0
			c-0.2-0.3-0.6-0.5-0.8-0.7c-0.3-0.2-0.3-0.2-0.6-0.3c-0.3-0.1-0.7-0.1-0.9-0.2c-0.2-0.1-0.5-0.5-0.6-0.7
			C51.4,35.6,51.6,35.9,51.8,36.2z"/>
	</g>
	<g id="XMLID_385_">
		<path id="XMLID_395_" class="st15" d="M38.5,49.3c1.2-0.8,1.5-2.2,1.1-3.4c-0.3-0.8-0.7-2-1.3-2.6c-0.5-0.5-1.8-1.2-2.5-1.1
			c-0.5,0-1.7,0.3-2.2,0.6c-0.4,0.3-0.7,1.3-1,1.8c-0.3,0.7-1,1.7-0.7,2.5c0.3,0.6,0.8,1.1,1.2,1.7c0.1,0.2,0.3,0.5,0.5,0.6
			c0.7,0.5,2.4,0.5,3.2,0.4C37.3,49.7,37.9,49.6,38.5,49.3z"/>
		<path id="XMLID_394_" class="st14" d="M32.8,44.1c0.2-0.5,0.5-1.1,0.8-1.3c0.4-0.3,1.6-0.6,2.2-0.6c0.7,0,2,0.6,2.5,1.1
			c0.3,0.3,0.6,0.7,0.8,1.2c-0.2,0.1-0.4,0.1-0.6,0.2c-0.6,0.2-1.3,0.5-1.9,0.4c-0.9-0.1-2-0.5-2.9-0.8
			C33.3,44.3,33.1,44.2,32.8,44.1z"/>
		<g id="XMLID_392_">
			<path id="XMLID_393_" class="st13" d="M32.7,44.5c0.1-0.1,0.1-0.3,0.2-0.4c0.2,0.1,0.5,0.1,0.7,0.2c0.8,0.2,1.6,0.5,2.5,0.7
				c0.2,0.3,0.4,0.7,0.6,0.9c0.2,0.4,0.5,0.8,0.5,1.2c-0.1,0.5-0.3,0.9-0.4,1.4c-0.1,0.2-0.1,0.5-0.2,0.7c-0.1,0.1-0.5,0.1-0.6,0.2
				c-0.3,0.1-0.5,0.2-0.8,0.3c-0.6,0-1.1-0.2-1.5-0.4c-0.2-0.1-0.3-0.4-0.5-0.6c-0.3-0.6-0.9-1.1-1.2-1.7
				C31.6,46.3,32.3,45.3,32.7,44.5z"/>
		</g>
		<g id="XMLID_390_">
			<path id="XMLID_391_" class="st17" d="M36.7,48.4c0.1-0.4,0.3-0.9,0.4-1.3c0.1-0.4-0.2-0.8-0.5-1.2c-0.2-0.3-0.4-0.6-0.6-0.9
				c0.1,0,0.3,0.1,0.4,0.1c0.7,0.1,1.3-0.2,1.9-0.4c0.2-0.1,0.4-0.1,0.6-0.2c0.1,0.1,0.1,0.2,0.1,0.3c-0.4,0.1-0.9,0.2-1.3,0.3
				c-0.3,0.1-0.6,0.1-0.7,0.4c-0.2,0.6,0.5,1.1,0.2,1.6C37.2,47.6,36.7,48,36.7,48.4C36.7,48.5,36.7,48.4,36.7,48.4z"/>
		</g>
		<path id="XMLID_389_" class="st25" d="M35.8,45.5c0.3,0.2,0.6,0.8,0.8,1.1c0.2,0.3,0.2,0.4,0.1,0.7c-0.1,0.4-0.2,0.8-0.3,1.2
			c-0.1,0-0.2,0.1-0.2,0.1c-0.1-0.3-0.1-0.8-0.3-1.1c-0.2-0.4-0.8-0.7-1.1-1.1c-0.2-0.3-0.2-0.6-0.3-0.9c-0.1-0.4-0.4-0.4-0.7-0.7
			c0.2-0.2,0.5,0.1,0.7,0.1c0.4,0.1,0.9,0.2,1.4,0.4c0,0.2-0.1,0.4,0,0.6C35.7,45.8,35.8,45.7,35.8,45.5z"/>
		<path id="XMLID_388_" class="st25" d="M32.4,46.3c0,0.2-0.1,0.4-0.2,0.5c0.3,0.3,0.5,0.8,0.9,1.1c0.1-0.1,0.3-0.3,0.3-0.5
			c0-0.2-0.3-0.5-0.4-0.7c-0.1-0.2-0.2-0.3-0.3-0.5C32.6,46.2,32.5,46.2,32.4,46.3z"/>
		<path id="XMLID_386_" class="st17" d="M39.1,48.4C39.1,48.4,39.1,48.4,39.1,48.4c-0.2,0.3-0.7,0.7-1.1,0.8c-0.2,0.1-0.6,0.1-0.8,0
			c0.1-0.2,0.4-0.3,0.6-0.5c0.2-0.2,0.2-0.2,0.4-0.2c0.2,0,0.5-0.1,0.6-0.2c0.1-0.1,0.3-0.4,0.4-0.5C39.4,48,39.2,48.2,39.1,48.4z"
			/>
		<path id="XMLID_387_" class="st14" d="M33.5,42.9c0.2,0,0.4,0,0.6,0c0.5,0,0.9-0.1,1.4-0.2c0.3-0.1,0.5-0.2,0.6,0.1
			c-0.2,0-0.4,0.2-0.6,0.2c0.2,0.5,0.6,0.5,1.1,0.5c0.2,0,0.7,0,0.7,0.3c0,0.2-0.1,0.1-0.3,0.1c-0.4,0.1-0.9,0.3-1.4,0.3
			c-0.6-0.1-1.1-0.4-1.7-0.5c-0.2,0-0.5-0.1-0.8-0.1C33.2,43.3,33.4,43,33.5,42.9z"/>
	</g>
	<g id="XMLID_298_">
		<path id="XMLID_314_" class="st13" d="M24.6,36.8c0-0.1,0.1-0.3,0.1-0.5c0.1-0.5,0.3-1.1,0.4-1.6c0.2-1,0.4-2,0.8-2.9
			c0.2-0.5,0.9-0.7,1.4-1c0.5-0.3,1-0.6,1.5-0.6c0.5,0,1.1,0.2,1.6,0.3c0.5,0,0.8-0.1,1.3-0.3c0.6-0.2,1.3-0.2,1.9-0.3
			c0.3,0,0.7-0.2,1-0.1c0.6,0.2,1.1,1.1,1.6,1.5c-0.2,0.5,0.2,1.2,0.3,1.7c0.2,0.8,0.3,1.7,0.5,2.5c0.1,0.3,0.3,0.7,0.2,1
			c-0.1,0.2-0.6,0.6-0.8,0.7c-0.5,0.3-1.1,0.9-1.7,1c-0.6,0.1-1.5-0.3-2.1-0.4c-0.6-0.1-1.2-0.4-1.8-0.4c-0.8,0-1.6,0-2.5,0.1
			c-1,0-2.1,0.1-3.1-0.1C24.6,37.4,24.5,37.1,24.6,36.8z"/>
		<path id="XMLID_313_" class="st15" d="M32.1,35.2c0,0.9-0.2,1.7-0.4,2.5c0.3,0.1,0.6,0.2,0.9,0.2c0.6,0.1,1.5,0.4,2.1,0.4
			c0.6-0.1,1.3-0.6,1.7-1c0.2-0.1,0.7-0.5,0.8-0.7c0.1-0.3-0.2-0.7-0.2-1c-0.1-0.8-0.3-1.7-0.5-2.5c-0.1-0.5-0.5-1.2-0.3-1.7
			c-0.1,0-0.1-0.1-0.2-0.2c-0.3,0.2-0.7,0.4-1,0.5c-0.5,0.2-1,0.2-1.6,0.2c-0.4,0.1-1,0.2-1.5,0.2C32,33.1,32,34.1,32.1,35.2z"/>
		<g id="XMLID_310_">
			<path id="XMLID_312_" class="st13" d="M31.6,37.7c0.2-0.8,0.5-1.6,0.4-2.5c0-1-0.1-1.9-0.1-2.9c-0.1-0.1-0.1-0.2-0.2-0.2
				c-0.1-0.1-0.4-0.1-0.6-0.2c-0.4-0.2-0.9-0.3-1.3-0.5c-1.1-0.5-1.7,0.1-2.7,0.2c-0.4,0.1-0.8,0-1.2,0c0,0.1-0.1,0.1-0.1,0.2
				c-0.4,0.9-0.6,1.9-0.8,2.9c-0.1,0.5-0.3,1.1-0.4,1.6c0,0.2-0.1,0.4-0.1,0.5c0,0.4,0,0.6,0.6,0.7c1,0.2,2.1,0.1,3.1,0.1
				c0.8,0,1.6-0.1,2.5-0.1C31,37.5,31.4,37.6,31.6,37.7C31.7,37.7,31.6,37.7,31.6,37.7z"/>
		</g>
		<g id="XMLID_304_">
			<path id="XMLID_307_" class="st14" d="M27.2,31.5c1.1-0.2,1.7-0.7,2.7-0.2c0.4,0.2,0.8,0.4,1.3,0.5c0.2,0.1,0.5,0.1,0.6,0.2
				c0.1,0.1,0.1,0.1,0.2,0.2c0,0,0-0.1,0-0.1c0.4,0.1,1-0.1,1.5-0.2c0.5-0.1,1.1,0,1.6-0.2c0.4-0.1,0.7-0.3,1-0.5c0,0,0,0,0,0
				c-0.2-0.2-0.3-0.4-0.5-0.6c-0.6,0.5-1.2,0.9-2.1,1c-0.7,0.1-1.5,0.1-2.1,0c-0.7-0.2-1.3-0.5-2-0.7c-0.8-0.2-1.7,0.4-2.6,0.7
				C26.9,31.6,27,31.6,27.2,31.5z"/>
		</g>
		<path id="XMLID_303_" class="st25" d="M25.6,37.2c-0.1-0.1-0.4-0.4-0.4-0.6c-0.1-0.3,0.2-0.9,0.2-1.2c0-0.4-0.1-1.1,0.4-1.3
			c0.1,0,0.9,1.4,1,1.5c0.3,0.3,0.6,0.4,1,0.4c0.6,0.1,0.6,0.2,0.6,0.8c-0.7,0.1-1.6-0.1-2.3,0.1C26,37.1,25.9,37.2,25.6,37.2z"/>
		<path id="XMLID_302_" class="st25" d="M30.3,32c0.3,0.1,0.6,0.3,0.9,0.3c0.1,0.3,0.2,0.6,0.2,0.9c0,0.4-0.2,0.7-0.2,1.1
			c-0.1,0-0.3,0-0.4-0.1c0-0.2,0.1-0.6,0-0.8c-0.1-0.1-0.3-0.3-0.3-0.4c-0.1-0.1-0.2-0.2-0.3-0.4c-0.1-0.2-0.1-0.4-0.2-0.5
			c-0.1-0.1-0.4-0.2-0.3-0.4C29.8,31.9,30.1,32,30.3,32z"/>
		<path id="XMLID_299_" class="st17" d="M33.4,31.9c-0.4,0.1-1,0.2-1.5,0.2c0,1,0.1,2,0.1,3.1c0,0.2,0,0.4,0,0.6
			c0.1-0.2,0.1-0.3,0.2-0.5c0.1-0.6,0.1-1.3,0.4-1.8c0.2-0.4,0.7-0.9,1-1.1c0.5-0.3,1.1-0.4,1.6-0.7l0,0c-0.1,0-0.2,0.1-0.2,0.1
			C34.5,31.9,33.9,31.9,33.4,31.9z"/>
	</g>
	<g id="XMLID_383_">
		<g id="XMLID_344_">
			<path id="XMLID_362_" class="st0" d="M21.4,15.2c0,0.1-0.1,0.5-0.1,0.6c0.1,0.3,0.6,0.5,0.9,0.7c0.2,0.2,0.7,0.4,0.9,0.6
				c0.1,0.2,0.1,0.5,0.2,0.7c-0.1,0-0.2,0.1-0.3,0.1c-0.2-0.8-0.5-0.9-1.1-1.3c-0.2-0.1-0.7-0.3-0.8-0.6c-0.2-0.3,0.1-0.8,0.2-1.1
				c0,0,0.2,0.1,0.2,0.1C21.3,15.2,21.4,15.3,21.4,15.2z"/>
			<g id="XMLID_345_">
				<g id="XMLID_355_">
					<path id="XMLID_361_" class="st0" d="M12.8,28.6c-0.1,0.7,0,1.5,0.1,2.2c0,0.2,0.1,0.6,0,0.8c-0.1,0.2-0.3,0.5-0.4,0.7
						c-0.1,0.3-0.3,0.7-0.3,1.1c0,0.4,0.1,1,0.1,1.4c0,0.2,0,0.4-0.1,0.6c-0.1,0.2-0.4,0.5-0.4,0.7c0.1,0.3,0.6,0.3,0.8,0.3
						c0.3,0.1,0.8,0.4,1.2,0.4c0.2,0,0.8-0.3,0.9-0.4c0.1-0.1-0.1-0.4-0.1-0.6c-0.8-0.2-0.7-0.9-0.7-1.6c0-0.5,0-1,0-1.5
						c0-0.3,0.3-0.6,0.3-0.8c0-0.5-0.2-1.1-0.3-1.6c0-0.4-0.1-0.8-0.1-1.1c0-0.6,0.7-1.7,1.1-2.1c0.4-0.4,1.2-0.2,1.8-0.5
						c0.3-0.2,0.5-0.6,0.8-0.8c0.2-0.2,0.8-0.3,1.1-0.4c0.6-0.2,1.4-0.6,2.1-0.6c0.7,0,1.4,0.2,2.1,0.2c0,0,0-0.1,0-0.1
						c-0.8-0.2-1.4-0.5-2.2-0.4c-0.4,0.1-1,0.1-1.4,0.2c-0.3,0.1-0.5,0.4-0.8,0.5c-0.1-0.1-0.3-0.3-0.3-0.5
						c-0.1-0.3,0.4-0.8,0.6-1.1c0.2-0.3,0.6-0.6,0.5-0.9c-0.1-0.3-0.5-0.5-0.7-0.7c-0.4-0.3-0.9-0.1-1.3,0c-0.2,0-0.4,0.1-0.7,0.1
						c-0.2-0.1-0.3-0.3-0.5-0.3c0,0.2,0.3,0.5,0.4,0.6c0.5,0.3,1.5-0.2,2.1-0.2c0,0.2,0.3,0.4,0.3,0.5c0,0.3-0.6,0.8-0.8,1
						c-0.2,0.3-0.4,0.4-0.4,0.7c0,0.3,0.1,0.6,0.2,0.9c-0.3,0-0.6,0.2-0.9,0.3c-0.3,0.1-0.3,0.2-0.4,0.5c-0.2,0.2-0.3,0.4-0.6,0.5
						c-0.5,0.1-1.1-0.2-1.5,0c-0.4,0.2-0.5,0.8-1,0.8c-0.3,0-0.6-0.3-0.8-0.5c-0.5-0.3-0.9-0.4-1.4-0.6c-0.3-0.1-0.8-0.3-1.1-0.2
						c0,0,0.1,0,0.1,0c-0.2-0.2-0.5-0.6-0.8-0.8c-0.3-0.1-0.9,0-1.2,0.1c-0.4,0-0.7,0.1-1.1,0.1c-0.3,0-0.2,0-0.4-0.1
						C6.4,25.3,6.2,25.1,6,25c-0.6-0.4-0.6-0.4-1.3-0.3c-0.1,0.1-0.8,0.1-1,0.1c0,0.2,0,0.3-0.1,0.5C4.3,25,4.8,25,5.4,25.3
						c0.4,0.2,0.8,0.6,1.3,0.6c0.6,0,1.1-0.4,1.6-0.4c0.3,0,0.4,0.2,0.7,0.4c0.2,0.2,0.4,0.5,0.7,0.6c0.5,0.2,1,0.1,1.5,0.3
						c0.4,0.1,0.4,0.4,0.7,0.7c0.3,0.3,0.6,0.8,0.9,1C12.7,28.6,12.8,28.6,12.8,28.6z"/>
					<path id="XMLID_360_" class="st0" d="M6,22.3c0.3,0.2,0.7,0.3,1.1,0.4c0.6,0.1,1.3,0.2,1.9,0.2c0,0.4,0.2,0.9,0.5,1.2
						c0.2,0.2,0.5,0.2,0.6,0.4c0.1,0.1,0.1,0.5,0.1,0.7c0.1,0.2,0.2,0.4,0.4,0.6c0.1,0.2,0.3,0.4,0.4,0.6c-0.3,0-0.9-0.1-1.2-0.2
						c-0.3-0.1-0.3-0.3-0.3-0.6c-0.1-0.7-0.4-1.1-0.6-1.7c0-0.1,0-0.4-0.1-0.5c-0.2-0.2-0.7-0.1-1-0.2c-0.5-0.1-1.5-0.1-1.8-0.4
						c-0.2-0.2-0.3-0.7-0.5-0.9c-0.2-0.2-0.9-0.1-1.2-0.2c0,0,0-0.2,0-0.2c0.4,0.2,0.9,0.2,1.3,0.2C5.8,22,5.9,22.2,6,22.3z"/>
					<path id="XMLID_359_" class="st0" d="M9.9,21.5c-0.1-0.1,0.1-0.9,0.2-1.1c0.2-0.7,1.1-1.1,1.6-1.5c0.3-0.3,0.9-0.6,1-0.9
						c0.1-0.2-0.1-0.8,0.2-0.8c0,0.4,0,0.9,0.1,1.3c-0.5,0.2-1.1,0.6-1.5,0.9c-0.3,0.2-0.5,0.6-0.8,0.8c-0.3,0.2-0.3,0.2-0.3,0.5
						c-0.1,0.3,0,0.6-0.1,0.8c-0.1,0.4-0.7,0.5-1.1,0.4c0-0.6-0.6-1.1-0.6-1.7c0-0.2,0.1-0.5,0.1-0.8c0-0.6,0.1-0.6-0.3-1
						c-0.2-0.2-1-0.6-0.6-0.9C8,18,8.5,18.4,8.9,18.7c-0.1,0.6-0.1,1.1,0.1,1.7c0.2,0.4,0.4,0.8,0.5,1.2C9.6,21.5,9.7,21.5,9.9,21.5
						z"/>
					<path id="XMLID_358_" class="st0" d="M21.3,23.4c-0.1,0,0-0.1,0.1-0.2c0.2-0.2,0.4-0.5,0.5-0.7c0.4-0.5,0.8-1.1,1.1-1.7
						c0.4-0.6-0.1-0.8-0.2-1.3c-0.1-0.3,0.1-0.4-0.3-0.5c-0.2-0.1-1,0-0.9-0.4c0.4,0.2,1,0.4,1.5,0.5c-0.1,0.6,0.3,0.9,0.5,1.4
						c-0.3,0.2-0.6,0.6-0.9,0.9c-0.2,0.3-0.5,0.6-0.7,0.9c-0.2,0.4-0.4,0.8-0.6,1.2C21.4,23.5,21.3,23.5,21.3,23.4z"/>
					<path id="XMLID_357_" class="st0" d="M18.9,26.6c0.4,0.2,0.8,0.3,1.2,0.5c0.2,0.1,0.5,0.4,0.7,0.4c0.2,0.1,0.5,0,0.8,0
						c0.3,0,0.6,0,0.9,0c0,0.1,0,0.1,0,0.2c-0.5-0.1-1.4-0.2-1.8,0.1c-0.6-0.5-1.3-0.7-2-1C18.8,26.8,18.8,26.7,18.9,26.6z"/>
					<path id="XMLID_356_" class="st0" d="M1.4,23.5c0.2,0.1,0.5,0.1,0.7,0.2c0.3,0.1,0.3,0.2,0.5,0.5c0.3,0.4,0.8,1,1.4,0.9
						c0-0.3-0.4-0.3-0.7-0.5c-0.3-0.2-0.4-0.8-0.7-1c-0.2-0.1-0.8,0-1-0.1c-0.4-0.1-0.4-0.3-0.7,0C1.1,23.8,1.2,23.6,1.4,23.5z"/>
				</g>
				<path id="XMLID_354_" class="st8" d="M11.1,21.7c-0.3-0.6-0.7-0.9-1.4-1.1c-0.5-0.1-1.2,0.1-1.5,0.6c-0.8-0.3-1.4-0.7-2.2,0
					C5.2,22,5.3,23,6.2,23.5c0.4,0.2,0.7,0.2,1.1,0.1c0.4-0.1,0.4-0.2,0.7,0c0.4,0.2,0.8,0.6,1.3,0.6c0.6,0.1,1.1-0.2,1.6-0.4
					c0.5-0.2,1-0.5,1.1-1.1C12,22.3,11.4,21.5,11.1,21.7z"/>
				<path id="XMLID_353_" class="st8" d="M8.3,18.6c-0.6,1-2.6,0.7-3.2-0.1c-0.3-0.4-0.5-1.2-0.3-1.7c0.1-0.4,0.6-0.9,1.1-0.8
					c-0.3-1.8,3.3-2.1,3.2-0.5C11.3,15.9,9.6,19.5,8.3,18.6z"/>
				<path id="XMLID_352_" class="st8" d="M11.6,18.9c-0.3-0.6-0.3-1.5,0.3-2.1c0.5-0.4,1.2-0.5,1.8-0.4c0.3,0,0.9,0.2,1,0.5
					c0.2-0.2,1.1-0.1,1.3-0.1c0.5,0.2,0.5,0.6,0.5,1c-0.1,0.9-0.8,1.5-1.6,1.5c-0.3,0-0.4,0-0.6,0.1c-0.6,0.3-1,0.7-1.7,0.7
					c-0.3,0-1.1-0.2-1.1-0.6C11.4,19.4,11.7,19,11.6,18.9z"/>
				<path id="XMLID_351_" class="st8" d="M18.3,20.9c-0.1-0.1-0.2-0.2-0.3-0.3c-0.5-0.3-1.3-0.4-1.8-0.2c-0.4,0.1-0.9,0.3-1.2,0.7
					c-0.2,0.2-0.2,0.3-0.4,0.4c-0.2,0.1-0.4,0.1-0.6,0.1c-0.8,0.3-1.5,1-1.3,1.9c0.3,1,1.4,1.2,2.3,1.2c0.4,0,2.1-0.2,2.2-0.8
					c0.9,0.6,2.9-0.2,2.8-1.4c0-0.3-0.2-0.6-0.5-0.8c-0.2-0.2-0.5-0.1-0.8-0.3C18.6,21.4,18.5,21.1,18.3,20.9z"/>
				<path id="XMLID_350_" class="st8" d="M21.2,25.5c-0.2,0-0.3-0.1-0.5-0.2c-0.3-0.3-0.6-0.9-0.5-1.4c0.2-0.5,0.6-1,1.1-1.1
					c0.3-0.1,0.5-0.1,0.7-0.1c0.2,0,0.4,0.1,0.5,0.1c0.3,0,0.6-0.1,1-0.1c0.4,0.1,0.9,0.2,1.1,0.5c0.7,0.9-0.6,2.1-1.4,2.3
					c-0.4,0.1-0.7,0.2-1,0c-0.2,0-0.3-0.2-0.5-0.2c-0.1,0-0.2,0.1-0.3,0.2C21.3,25.5,21.3,25.5,21.2,25.5z"/>
				<path id="XMLID_349_" class="st8" d="M19.7,26.3c0.2-1.5-3-1.5-2.6,0.3c-0.4,0.2-0.7,0.7-0.7,1.1c-0.2,0.8,0.3,1.3,1,1.5
					c0.9,0.4,2,0.3,2.9-0.2c0.5-0.3,0.9-0.9,0.7-1.5C21.8,27.1,20.2,25.4,19.7,26.3z"/>
				<path id="XMLID_348_" class="st8" d="M23.1,19.8c-0.8,0.9-3.1,0.9-3.5-0.5c-0.4,0.1-0.7,0.1-1-0.1c-0.4-0.3-0.6-1.1-0.4-1.5
					c0.4-0.8,1.4-0.8,2.2-0.7c0.4,0.1,0.8,0.3,1.2,0.4c0.3,0.1,0.2,0,0.5-0.1c0.8-0.2,1.7-0.1,2.4,0.3c0.4,0.2,0.5,0.7,0.8,0.9
					c0.2,0.1,0.4,0,0.7,0.3c0.1,0.2,0.3,0.5,0.4,0.7c0.2,0.7-0.7,1.3-1.3,1.4c-0.4,0.1-0.7-0.2-1.1-0.3C23.5,20.5,23,20.4,23.1,19.8
					z"/>
				<path id="XMLID_347_" class="st8" d="M21.4,13.4c-0.5-0.8-1.4-0.8-2.2-0.5c-0.9,0.4-1,1.2-0.2,1.8c-0.5,0.2-0.8,0.6-0.4,1.1
					c0.7,0.8,2.4,0.7,3.3,0.5c0.9-0.2,2.5-1.1,1.7-2.2C23.2,13.5,22.1,12.9,21.4,13.4z"/>
				<path id="XMLID_346_" class="st8" d="M4.2,23.9c-0.1,0-0.1,0-0.2,0c-0.2-0.1-0.2-0.3-0.4-0.4c-0.5-0.2-1.1,0.2-1.4,0.5
					c-0.4,0.5-1.3,0.8-1.3,1.6c0,1.3,1.8,1.7,2.8,1.4c0.3-0.1,0.5-0.3,0.9-0.3c0.7,0,1.2,0.2,1.8-0.3C7,25.7,6.9,24.6,6.1,24
					c-0.3-0.3-1.1-0.5-1.5-0.3C4.5,23.7,4.4,23.8,4.2,23.9z"/>
			</g>
		</g>
		<path id="XMLID_365_" class="st9" d="M4.6,23.7c-0.1,0.1-0.3,0.2-0.4,0.2c-0.1,0-0.1,0-0.2,0c-0.2-0.1-0.2-0.3-0.4-0.4
			c-0.5-0.2-1.1,0.2-1.4,0.5c-0.4,0.5-1.3,0.8-1.3,1.6c0,0.1,0,0.2,0,0.2C1,25.9,1.1,26,1.2,26.1c0.4,0.3,1,0.3,1.5,0.2
			c0.4-0.1,0.8-0.4,1.2-0.3c0.3,0.1,0.5,0.3,0.8,0.3c0.3,0.1,0.7,0,1,0c0.2,0,0.5-0.2,0.7-0.2c0.1,0,0.2-0.1,0.2-0.2
			c0.2-0.6,0-1.4-0.6-1.8C5.8,23.7,5,23.5,4.6,23.7z"/>
		<path id="XMLID_366_" class="st9" d="M11.1,21.7c-0.3-0.6-0.7-0.9-1.4-1.1c-0.5-0.1-1.2,0.1-1.5,0.6c-0.8-0.3-1.4-0.7-2.2,0
			c-0.2,0.2-0.3,0.3-0.4,0.5c0,0.3,0,0.5,0.2,0.7C6.1,22.9,6.6,23,7,22.9c0.2,0,0.3,0,0.5-0.1c0.2-0.1,0.3-0.1,0.5,0
			c0.2,0.1,0.4,0.2,0.5,0.3c0.3,0.2,0.7,0.4,1.1,0.3c0.3,0,0.6-0.2,0.9-0.4c0.1-0.1,0.3-0.3,0.4-0.3c0.1,0,0.2,0.1,0.3,0.1
			c0.1,0,0.3,0,0.4,0c0.2,0,0.3,0,0.4-0.1c0,0,0-0.1,0-0.1C12,22.3,11.4,21.5,11.1,21.7z"/>
		<path id="XMLID_367_" class="st9" d="M8.8,17.7c0.4-0.1,0.6-0.2,0.8-0.4c0.2-0.2,0.4-0.4,0.5-0.6c0-0.5-0.4-1-1.1-1.2
			c0.1-1.6-3.4-1.3-3.2,0.5c-0.4-0.1-0.9,0.4-1.1,0.8c-0.2,0.5,0,1.2,0.3,1.7c0.1,0.1,0.3,0.3,0.4,0.4c0.4,0.1,0.9,0.1,1.3-0.1
			c0.3-0.1,0.5-0.3,0.7-0.6c0.1-0.1,0.2-0.3,0.3-0.4c0.1-0.1,0-0.1,0.2,0C8.3,17.7,8.5,17.8,8.8,17.7z"/>
		<path id="XMLID_368_" class="st9" d="M16.5,17.9c0-0.4,0-0.8-0.5-1c-0.2-0.1-1.1-0.2-1.3,0.1c-0.1-0.3-0.7-0.5-1-0.5
			c-0.6-0.1-1.3,0-1.8,0.4c-0.6,0.6-0.6,1.4-0.3,2c0.1,0.1,0.1,0.1,0.2,0.2c0.2,0.2,0.6,0.2,0.9,0.2c0.3,0,0.6,0,0.8-0.2
			c0.3-0.2,0.6-0.4,0.8-0.7c0,0.1,0.5,0.3,0.6,0.3c0.3,0.1,0.6,0.1,0.9,0.1c0.1,0,0.3-0.1,0.4-0.2C16.3,18.4,16.4,18.1,16.5,17.9z"
			/>
		<path id="XMLID_369_" class="st9" d="M23.7,15c0.1-0.3,0.1-0.6-0.1-1c-0.4-0.6-1.5-1.1-2.1-0.7c-0.5-0.8-1.4-0.8-2.2-0.5
			c-0.9,0.4-1,1.2-0.2,1.8l0,0c0.2,0.1,0.4,0.2,0.6,0.3c0.2,0.1,0.4,0.3,0.7,0.4c0.4,0.2,0.9,0.3,1.4,0.3
			C22.3,15.6,23.1,15.4,23.7,15z"/>
		<path id="XMLID_370_" class="st9" d="M26.3,19.5c0-0.2-0.2-0.5-0.4-0.7c-0.2-0.3-0.4-0.2-0.7-0.3c-0.3-0.2-0.4-0.7-0.8-0.9
			c-0.7-0.4-1.6-0.5-2.4-0.3c-0.3,0.1-0.2,0.1-0.5,0.1c-0.4-0.1-0.8-0.3-1.2-0.4c-0.8-0.1-1.8-0.1-2.2,0.7c-0.2,0.3-0.1,0.8,0.1,1.2
			c0.1,0,0.1,0,0.2,0c0.3,0,0.6,0,0.8-0.1c0.2,0,0.4-0.1,0.5-0.1c0.1,0.1,0.3,0.3,0.4,0.4c0.3,0.2,0.6,0.4,0.9,0.4
			c0.7,0.2,1.4,0,2-0.3c0.1,0.2,0.5,0.5,0.7,0.7c0.4,0.3,0.9,0.3,1.3,0.3c0.3,0,0.7-0.1,0.9-0.2c0,0,0.1,0,0.2-0.1
			C26.3,19.9,26.3,19.7,26.3,19.5z"/>
		<path id="XMLID_371_" class="st9" d="M20,22.4c-0.1-0.3-0.2-0.5-0.4-0.7c-0.2-0.2-0.5-0.1-0.8-0.3c-0.2-0.1-0.3-0.3-0.5-0.5
			c-0.1-0.1-0.2-0.2-0.3-0.3c-0.5-0.3-1.3-0.4-1.8-0.2c-0.4,0.1-0.9,0.3-1.2,0.7c-0.2,0.2-0.2,0.3-0.4,0.4c-0.2,0.1-0.4,0.1-0.6,0.1
			c-0.8,0.3-1.5,1-1.3,1.9c0.1,0.3,0.3,0.5,0.5,0.7c0.3,0.1,0.6,0.1,0.9,0.1c0.4,0,0.7-0.1,1-0.3c0.6-0.3,1.1-0.7,1.6-1.1
			c0.2-0.2,0.2-0.2,0.5-0.2c0.3,0.1,0.6,0.2,0.9,0.2c0.5,0.1,1.1,0.1,1.6-0.3C19.9,22.7,20,22.6,20,22.4z"/>
		<path id="XMLID_372_" class="st9" d="M24.7,23.3c-0.2-0.3-0.7-0.5-1.1-0.5c-0.4-0.1-0.6,0.1-1,0.1c-0.1,0-0.3-0.1-0.5-0.1
			c-0.3,0-0.5,0-0.7,0.1c-0.5,0.2-0.9,0.5-1.1,1c0,0.2,0,0.4,0.1,0.5c0.2,0.5,0.8,0.5,1.3,0.4c0.2,0,0.2,0,0.4,0
			c0.2,0.1,0.5,0.2,0.7,0.2c0.4,0.1,0.8,0.1,1.2,0.1c0.1,0,0.2,0,0.3-0.1C24.8,24.5,25.1,23.8,24.7,23.3z"/>
		<path id="XMLID_373_" class="st9" d="M19.7,26.3c0.2-1.5-3-1.5-2.6,0.3c-0.4,0.2-0.7,0.7-0.7,1.1c0,0.1,0,0.2,0,0.3c0,0,0,0,0,0
			c0.2,0.5,0.7,0.6,1.2,0.6c0.3,0,0.7-0.1,1-0.2c0.3-0.1,0.5-0.4,0.8-0.4c0.2,0,0.4,0.2,0.6,0.3c0.3,0.1,0.6,0.2,0.9,0.2
			c0.1,0,0.2,0,0.3-0.1c0.1-0.2,0.1-0.5,0-0.7C21.8,27.1,20.2,25.4,19.7,26.3z"/>
		<path id="XMLID_343_" class="st10" d="M2.8,23.9c-0.5,0.4-1.5,0.7-1.6,1.3c-0.2,1.1,1.6,0.5,2,0.3c0.5-0.2,1.2,0.1,1.7,0.1
			c0.5,0.1,1.3,0.2,1.6-0.4c0.4-0.8-0.9-1.3-1.5-1.2c-0.4,0.1-0.7,0.2-1.1,0.1C3.5,24,3,23.7,2.8,23.9z"/>
		<path id="XMLID_363_" class="st10" d="M8,21.5c-0.2-0.1-0.4-0.3-0.7-0.4c-0.3-0.1-0.8,0-1,0.3c-0.5,0.7,0.7,1,1.2,0.9
			c0.2,0,0.4-0.2,0.5-0.1c0.2,0,0.4,0.2,0.6,0.2c0.5,0.2,1,0.2,1.6,0.1c0.4-0.1,0.7-0.3,0.7-0.8c-0.1-0.3-0.5-0.7-0.8-0.7
			c-0.4-0.1-1,0.1-1.3,0.3c-0.1,0.1-0.3,0.2-0.5,0.3C8.1,21.6,8,21.5,8,21.5z"/>
		<path id="XMLID_364_" class="st10" d="M6.2,16.3c-0.4,0.1-0.8,0.3-1,0.6c-0.2,0.4-0.1,1.1,0.3,1.4c0.7,0.4,1.8-0.4,2.1-1
			C7.7,17.1,7.8,17,8,16.9c0.3-0.2,0.7-0.5,0.7-1c0-0.4-0.1-0.7-0.5-0.9c-0.4-0.2-1.1-0.1-1.4,0.1c-0.2,0.1-0.3,0.3-0.4,0.5
			C6.3,15.7,6.2,16.3,6.2,16.3z"/>
		<path id="XMLID_374_" class="st10" d="M13.4,18.3c0.4-0.2,1-0.6,1-1.1c-0.1-0.6-0.8-0.5-1.2-0.4c-0.5,0.1-1.3,0.6-1.3,1.1
			c0,0.3,0.4,0.5,0.6,0.5C12.8,18.5,13.1,18.4,13.4,18.3z"/>
		<path id="XMLID_375_" class="st10" d="M16.1,17.6c0.1,0.3-0.3,0.5-0.6,0.3c-0.2-0.1-0.5-0.4-0.4-0.6
			C15.4,16.9,16.1,17.2,16.1,17.6z"/>
		<path id="XMLID_376_" class="st10" d="M17.7,21.5c0-1.2-1.6-0.6-2.1-0.1c-0.2,0.2-0.2,0.3-0.5,0.4c-0.3,0.1-0.7,0.2-1,0.3
			c-0.3,0.1-0.6,0.3-0.7,0.6c-0.1,0.3-0.1,0.7,0.2,0.8c1.1,0.6,2-0.8,2.9-1.1C17,22.3,17.7,22.1,17.7,21.5z"/>
		<path id="XMLID_377_" class="st10" d="M21.5,17.7c-0.4-0.2-0.9-0.3-1.3-0.3c-0.4,0-1.1,0.1-1.3,0.5c-0.4,0.8,1.7,0.4,2,0.3
			c0.2,0,0.5-0.1,0.6-0.3C21.6,17.8,21.5,17.8,21.5,17.7z"/>
		<path id="XMLID_378_" class="st10" d="M24.2,17.7c-0.5-0.3-1.3-0.4-1.7-0.3c-0.4,0.1-0.5,0.4-0.2,0.7c0.4,0.5,2.5,1.4,2.4,0.2
			C24.7,18.1,24.5,17.9,24.2,17.7z"/>
		<path id="XMLID_379_" class="st10" d="M25.4,19c0.4,0.1,0.9,1.1,0.3,0.8c-0.2-0.1-0.6-0.4-0.5-0.7C25.2,19.1,25.3,19,25.4,19z"/>
		<path id="XMLID_380_" class="st10" d="M20.3,13c-0.6-0.1-1.4,0-1.6,0.5c-0.3,0.6,0.5,1,1,1.1c0.6,0.1,1.9,0.1,1.7-0.8
			C21.3,13.4,20.8,13.1,20.3,13z"/>
		<path id="XMLID_381_" class="st10" d="M17.4,26.3c0,0.1,0.1,0.2,0.1,0.3c0,0.1-0.2,0.2-0.3,0.3c-0.1,0.1-0.2,0.3-0.3,0.4
			c0,0.3,0.2,0.5,0.4,0.6c0.4,0.1,0.7,0,1.1-0.2c0.3-0.2,0.6-0.5,0.6-0.8c0-0.2-0.1-0.3-0.2-0.5c0-0.1,0-0.1,0-0.1
			c0-0.1,0.1-0.2,0-0.4C18.4,25.4,17.3,25.7,17.4,26.3z"/>
		<path id="XMLID_382_" class="st10" d="M22,23c-0.2,0-0.3,0.1-0.5,0.1c-0.3,0.1-0.8,0.4-0.7,0.9c0.3,0.7,1.3,0.1,1.6-0.2
			c0.5,0.2,1.2-0.3,0.5-0.6C22.7,23,22.3,23,22,23z"/>
	</g>
</g>
</svg>
