<?xml version="1.0" encoding="utf-8"?>
<!-- Generator: Adobe Illustrator 25.0.1, SVG Export Plug-In . SVG Version: 6.00 Build 0)  -->
<svg version="1.1" id="illust" xmlns="http://www.w3.org/2000/svg" xmlns:xlink="http://www.w3.org/1999/xlink" x="0px" y="0px"
	 viewBox="0 0 85 58" style="enable-background:new 0 0 85 58;" xml:space="preserve">
<style type="text/css">
	.st0{fill:none;}
	.st1{fill:#FFFFFF;}
	.st2{fill:url(#SVGID_1_);}
	.st3{fill:url(#SVGID_2_);}
	.st4{fill:url(#SVGID_3_);}
	.st5{fill:url(#SVGID_4_);}
	.st6{fill:url(#SVGID_5_);}
	.st7{fill:url(#SVGID_6_);}
	.st8{fill:url(#SVGID_7_);}
	.st9{fill:url(#SVGID_8_);}
	.st10{fill:url(#SVGID_9_);}
	.st11{fill:url(#SVGID_10_);}
	.st12{fill:url(#SVGID_11_);}
	.st13{fill:url(#SVGID_12_);}
	.st14{fill:url(#SVGID_13_);}
	.st15{fill:url(#SVGID_14_);}
	.st16{fill:url(#SVGID_15_);}
	.st17{fill:url(#SVGID_16_);}
	.st18{fill:url(#SVGID_17_);}
	.st19{fill:url(#SVGID_18_);}
	.st20{fill:url(#SVGID_19_);}
	.st21{fill:url(#SVGID_20_);}
	.st22{fill:url(#SVGID_21_);}
	.st23{fill:url(#SVGID_22_);}
	.st24{fill:url(#SVGID_23_);}
	.st25{fill:url(#SVGID_24_);}
	.st26{fill:url(#SVGID_25_);}
	.st27{fill:url(#SVGID_26_);}
	.st28{fill:url(#SVGID_27_);}
	.st29{fill:url(#SVGID_28_);}
	.st30{fill:url(#SVGID_29_);}
	.st31{fill:url(#SVGID_30_);}
	.st32{fill:url(#SVGID_31_);}
	.st33{fill:url(#SVGID_32_);}
	.st34{fill:url(#SVGID_33_);}
	.st35{fill:url(#SVGID_34_);}
	.st36{fill:url(#SVGID_35_);}
	.st37{fill:url(#SVGID_36_);}
	.st38{fill:url(#SVGID_37_);}
	.st39{fill:url(#SVGID_38_);}
	.st40{fill:url(#SVGID_39_);}
	.st41{fill:url(#SVGID_40_);}
	.st42{fill:url(#SVGID_41_);}
	.st43{fill:url(#SVGID_42_);}
	.st44{fill:url(#SVGID_43_);}
	.st45{fill:url(#SVGID_44_);}
	.st46{fill:#817E7F;}
</style>
<pattern  x="-142" y="425.5" width="27.3" height="19.8" patternUnits="userSpaceOnUse" id="Unnamed_Pattern_2" viewBox="0 -19.8 27.3 19.8" style="overflow:visible;">
	<g>
		<rect x="0" y="-19.8" class="st0" width="27.3" height="19.8"/>
		<path class="st1" d="M27.3-18.8v-1H0v10.7h13.4V0h1v-9.2h12.9v-1c0,0-25.3,0-26.3,0v-8.7C2-18.8,27.3-18.8,27.3-18.8z"/>
	</g>
</pattern>
<g>
	<linearGradient id="SVGID_1_" gradientUnits="userSpaceOnUse" x1="40.3308" y1="-19.0924" x2="42.7098" y2="23.4661">
		<stop  offset="0" style="stop-color:#25A68A"/>
		<stop  offset="0.4947" style="stop-color:#00876B"/>
		<stop  offset="1" style="stop-color:#005742"/>
	</linearGradient>
	<path class="st2" d="M0.6,19.4c0,0,3.3,9.8,12.8,10.4h58.6c0,0,10.3-1.5,12.5-9.9L0.6,19.4z"/>
	<linearGradient id="SVGID_2_" gradientUnits="userSpaceOnUse" x1="13.1702" y1="29.8871" x2="13.1702" y2="28.9374">
		<stop  offset="0" style="stop-color:#CF4746"/>
		<stop  offset="1" style="stop-color:#91301F"/>
	</linearGradient>
	<rect x="12.1" y="19.2" class="st3" width="2.1" height="19.3"/>
	<linearGradient id="SVGID_3_" gradientUnits="userSpaceOnUse" x1="24.9021" y1="29.8871" x2="24.9021" y2="28.9374">
		<stop  offset="0" style="stop-color:#CF4746"/>
		<stop  offset="1" style="stop-color:#91301F"/>
	</linearGradient>
	<rect x="23.9" y="19.2" class="st4" width="2.1" height="19.3"/>
	<linearGradient id="SVGID_4_" gradientUnits="userSpaceOnUse" x1="36.634" y1="29.8871" x2="36.634" y2="28.9374">
		<stop  offset="0" style="stop-color:#CF4746"/>
		<stop  offset="1" style="stop-color:#91301F"/>
	</linearGradient>
	<rect x="35.6" y="19.2" class="st5" width="2.1" height="19.3"/>
	<linearGradient id="SVGID_5_" gradientUnits="userSpaceOnUse" x1="48.366" y1="29.8871" x2="48.366" y2="28.9374">
		<stop  offset="0" style="stop-color:#CF4746"/>
		<stop  offset="1" style="stop-color:#91301F"/>
	</linearGradient>
	<rect x="47.3" y="19.2" class="st6" width="2.1" height="19.3"/>
	<linearGradient id="SVGID_6_" gradientUnits="userSpaceOnUse" x1="60.0978" y1="29.8871" x2="60.0978" y2="28.9374">
		<stop  offset="0" style="stop-color:#CF4746"/>
		<stop  offset="1" style="stop-color:#91301F"/>
	</linearGradient>
	<rect x="59.1" y="19.2" class="st7" width="2.1" height="19.3"/>
	<linearGradient id="SVGID_7_" gradientUnits="userSpaceOnUse" x1="71.8297" y1="29.8871" x2="71.8297" y2="28.9374">
		<stop  offset="0" style="stop-color:#CF4746"/>
		<stop  offset="1" style="stop-color:#91301F"/>
	</linearGradient>
	<rect x="70.8" y="19.2" class="st8" width="2.1" height="19.3"/>
	<linearGradient id="SVGID_8_" gradientUnits="userSpaceOnUse" x1="5.2073" y1="24.3899" x2="71.1591" y2="48.995">
		<stop  offset="0" style="stop-color:#CF4746"/>
		<stop  offset="1" style="stop-color:#91301F"/>
	</linearGradient>
	<rect x="12.1" y="35.8" class="st9" width="60.7" height="5.1"/>
	<linearGradient id="SVGID_9_" gradientUnits="userSpaceOnUse" x1="6.5365" y1="20.8269" x2="72.4884" y2="45.432">
		<stop  offset="0" style="stop-color:#CF4746"/>
		<stop  offset="1" style="stop-color:#91301F"/>
	</linearGradient>
	<rect x="12.1" y="33.9" class="st10" width="60.7" height="0.6"/>
	<linearGradient id="SVGID_10_" gradientUnits="userSpaceOnUse" x1="15.8968" y1="48.9853" x2="116.5208" y2="48.9853">
		<stop  offset="0" style="stop-color:#E8E8E8"/>
		<stop  offset="1" style="stop-color:#999999"/>
	</linearGradient>
	<rect x="10.9" y="40" class="st11" width="63.2" height="18"/>
	<linearGradient id="SVGID_11_" gradientUnits="userSpaceOnUse" x1="40.3228" y1="56.1927" x2="42.8825" y2="13.1879">
		<stop  offset="0" style="stop-color:#25A68A"/>
		<stop  offset="0.4947" style="stop-color:#00876B"/>
		<stop  offset="1" style="stop-color:#005742"/>
	</linearGradient>
	<path class="st12" d="M0.2,19.6c0,0,4.5,5.4,12.3,8h60c0,0,7-2,12.3-8H0.2z"/>
	<pattern  id="SVGID_12_" xlink:href="#Unnamed_Pattern_2" patternTransform="matrix(0.1691 0 0 0.1691 -6147.1724 -7458.4424)">
	</pattern>
	<rect x="10.9" y="40" class="st13" width="63.2" height="18"/>
	<linearGradient id="SVGID_13_" gradientUnits="userSpaceOnUse" x1="42.4999" y1="43.5205" x2="42.4999" y2="38.8402">
		<stop  offset="0" style="stop-color:#FFFFFF"/>
		<stop  offset="1" style="stop-color:#000000"/>
	</linearGradient>
	<rect x="10.9" y="40" class="st14" width="63.2" height="5.5"/>
	<linearGradient id="SVGID_14_" gradientUnits="userSpaceOnUse" x1="42.5" y1="3.1612" x2="42.5" y2="27.038">
		<stop  offset="0" style="stop-color:#413E3D"/>
		<stop  offset="1" style="stop-color:#000000"/>
	</linearGradient>
	<path class="st15" d="M84.6,20.3C80,20.9,67.8,22,43.3,22c-25,0-37.9-1-42.7-1.5c-1.4-0.7,0-1.4,0-1.4c5.3-2.8,11.4-7.5,11.8-8.2
		c0.4-0.8,2.2-9.2,2.2-9.2s26.2,2.6,56.5,0c0,0,1.9,8.8,2.2,9.5c0.3,0.6,6.1,5.2,11.2,7.7C84.6,18.9,85.6,19.6,84.6,20.3z"/>
	<linearGradient id="SVGID_15_" gradientUnits="userSpaceOnUse" x1="14.5866" y1="1.517" x2="16.1421" y2="1.517">
		<stop  offset="0" style="stop-color:#413E3D"/>
		<stop  offset="1" style="stop-color:#000000"/>
	</linearGradient>
	<path class="st16" d="M16.1,2.4c0,0.3-0.3,0.6-0.7,0.6l0,0c-0.4,0-0.7-0.3-0.7-0.6V0.6C14.6,0.3,15,0,15.4,0l0,0
		c0.4,0,0.7,0.3,0.7,0.6V2.4z"/>
	<linearGradient id="SVGID_16_" gradientUnits="userSpaceOnUse" x1="69.7165" y1="1.517" x2="71.2721" y2="1.517">
		<stop  offset="0" style="stop-color:#413E3D"/>
		<stop  offset="1" style="stop-color:#000000"/>
	</linearGradient>
	<path class="st17" d="M71.2,2.4c0,0.3-0.3,0.6-0.7,0.6l0,0c-0.4,0-0.7-0.3-0.7-0.6V0.6c0-0.3,0.3-0.6,0.7-0.6l0,0
		c0.4,0,0.7,0.3,0.7,0.6V2.4z"/>
	<linearGradient id="SVGID_17_" gradientUnits="userSpaceOnUse" x1="43.0139" y1="12.3775" x2="43.6025" y2="12.3775">
		<stop  offset="0" style="stop-color:#413E3D"/>
		<stop  offset="1" style="stop-color:#000000"/>
	</linearGradient>
	<path class="st18" d="M43,2.8V22c0.1,0,0.2,0,0.3,0c0.1,0,0.2,0,0.3,0V2.8C43.4,2.8,43.2,2.8,43,2.8z"/>
	<linearGradient id="SVGID_18_" gradientUnits="userSpaceOnUse" x1="40.0696" y1="12.37" x2="40.6586" y2="12.37">
		<stop  offset="0" style="stop-color:#413E3D"/>
		<stop  offset="1" style="stop-color:#000000"/>
	</linearGradient>
	<path class="st19" d="M40.1,2.8v19.2c0.2,0,0.4,0,0.6,0V2.8C40.5,2.8,40.3,2.8,40.1,2.8z"/>
	<linearGradient id="SVGID_19_" gradientUnits="userSpaceOnUse" x1="37.1253" y1="12.3456" x2="37.7143" y2="12.3456">
		<stop  offset="0" style="stop-color:#413E3D"/>
		<stop  offset="1" style="stop-color:#000000"/>
	</linearGradient>
	<path class="st20" d="M37.1,2.8v19.2c0.2,0,0.4,0,0.6,0V2.8C37.5,2.8,37.3,2.8,37.1,2.8z"/>
	<linearGradient id="SVGID_20_" gradientUnits="userSpaceOnUse" x1="34.1815" y1="12.3039" x2="34.7701" y2="12.3039">
		<stop  offset="0" style="stop-color:#413E3D"/>
		<stop  offset="1" style="stop-color:#000000"/>
	</linearGradient>
	<path class="st21" d="M34.2,2.7v19.2c0.2,0,0.4,0,0.6,0V2.7C34.6,2.7,34.4,2.7,34.2,2.7z"/>
	<linearGradient id="SVGID_21_" gradientUnits="userSpaceOnUse" x1="31.2372" y1="12.245" x2="31.826" y2="12.245">
		<stop  offset="0" style="stop-color:#413E3D"/>
		<stop  offset="1" style="stop-color:#000000"/>
	</linearGradient>
	<path class="st22" d="M31.2,2.6v19.2c0.2,0,0.4,0,0.6,0V2.6C31.6,2.6,31.4,2.6,31.2,2.6z"/>
	<linearGradient id="SVGID_22_" gradientUnits="userSpaceOnUse" x1="28.0388" y1="12.1652" x2="28.8409" y2="12.1652">
		<stop  offset="0" style="stop-color:#413E3D"/>
		<stop  offset="1" style="stop-color:#000000"/>
	</linearGradient>
	<path class="st23" d="M28.3,2.5L28,21.8c0.2,0,0.4,0,0.6,0l0.2-19.3C28.6,2.5,28.4,2.5,28.3,2.5z"/>
	<linearGradient id="SVGID_23_" gradientUnits="userSpaceOnUse" x1="24.8422" y1="12.065" x2="25.8592" y2="12.065">
		<stop  offset="0" style="stop-color:#413E3D"/>
		<stop  offset="1" style="stop-color:#000000"/>
	</linearGradient>
	<path class="st24" d="M25.3,2.4l-0.4,19.4c0.2,0,0.4,0,0.6,0l0.4-19.4C25.7,2.4,25.5,2.4,25.3,2.4z"/>
	<linearGradient id="SVGID_24_" gradientUnits="userSpaceOnUse" x1="21.6471" y1="11.9433" x2="22.8806" y2="11.9433">
		<stop  offset="0" style="stop-color:#413E3D"/>
		<stop  offset="1" style="stop-color:#000000"/>
	</linearGradient>
	<path class="st25" d="M22.3,2.2l-0.6,19.4c0.2,0,0.4,0,0.6,0l0.6-19.4C22.7,2.2,22.5,2.2,22.3,2.2z"/>
	<linearGradient id="SVGID_25_" gradientUnits="userSpaceOnUse" x1="18.4556" y1="11.7981" x2="19.9067" y2="11.7981">
		<stop  offset="0" style="stop-color:#413E3D"/>
		<stop  offset="1" style="stop-color:#000000"/>
	</linearGradient>
	<path class="st26" d="M19.3,2l-0.9,19.5c0.2,0,0.4,0,0.6,0l0.9-19.5C19.7,2.1,19.5,2,19.3,2z"/>
	<linearGradient id="SVGID_26_" gradientUnits="userSpaceOnUse" x1="15.2668" y1="11.6262" x2="16.9393" y2="11.6262">
		<stop  offset="0" style="stop-color:#413E3D"/>
		<stop  offset="1" style="stop-color:#000000"/>
	</linearGradient>
	<path class="st27" d="M16.4,1.8l-1.1,19.6c0.2,0,0.4,0,0.6,0l1.1-19.6C16.7,1.8,16.5,1.8,16.4,1.8z"/>
	<linearGradient id="SVGID_27_" gradientUnits="userSpaceOnUse" x1="12.0827" y1="13.6586" x2="13.6858" y2="13.6586">
		<stop  offset="0" style="stop-color:#413E3D"/>
		<stop  offset="1" style="stop-color:#000000"/>
	</linearGradient>
	<path class="st28" d="M12.9,9.4l-0.8,11.9c0.2,0,0.4,0,0.6,0l1-15.3C13.4,7.2,13.1,8.4,12.9,9.4z"/>
	<linearGradient id="SVGID_28_" gradientUnits="userSpaceOnUse" x1="9.149" y1="16.9315" x2="10.2965" y2="16.9315">
		<stop  offset="0" style="stop-color:#413E3D"/>
		<stop  offset="1" style="stop-color:#000000"/>
	</linearGradient>
	<path class="st29" d="M9.7,13.2l-0.5,7.9c0.2,0,0.4,0,0.6,0l0.6-8.4C10.1,12.9,9.9,13,9.7,13.2z"/>
	<linearGradient id="SVGID_29_" gradientUnits="userSpaceOnUse" x1="6.2175" y1="17.9671" x2="7.2025" y2="17.9671">
		<stop  offset="0" style="stop-color:#413E3D"/>
		<stop  offset="1" style="stop-color:#000000"/>
	</linearGradient>
	<path class="st30" d="M6.6,15.4l-0.4,5.5c0.2,0,0.4,0,0.6,0l0.4-6C7,15.1,6.8,15.3,6.6,15.4z"/>
	<linearGradient id="SVGID_30_" gradientUnits="userSpaceOnUse" x1="3.2884" y1="18.8717" x2="4.1238" y2="18.8717">
		<stop  offset="0" style="stop-color:#413E3D"/>
		<stop  offset="1" style="stop-color:#000000"/>
	</linearGradient>
	<path class="st31" d="M3.5,17.4l-0.2,3.3c0.2,0,0.4,0,0.6,0L4.1,17C3.9,17.1,3.7,17.3,3.5,17.4z"/>
	<linearGradient id="SVGID_31_" gradientUnits="userSpaceOnUse" x1="45.958" y1="12.3668" x2="46.5468" y2="12.3668">
		<stop  offset="0" style="stop-color:#413E3D"/>
		<stop  offset="1" style="stop-color:#000000"/>
	</linearGradient>
	<path class="st32" d="M46,2.8v19.2c0.2,0,0.4,0,0.6,0V2.8C46.4,2.8,46.2,2.8,46,2.8z"/>
	<linearGradient id="SVGID_32_" gradientUnits="userSpaceOnUse" x1="48.9023" y1="12.339" x2="49.4911" y2="12.339">
		<stop  offset="0" style="stop-color:#413E3D"/>
		<stop  offset="1" style="stop-color:#000000"/>
	</linearGradient>
	<path class="st33" d="M48.9,2.8v19.2c0.2,0,0.4,0,0.6,0V2.7C49.3,2.8,49.1,2.8,48.9,2.8z"/>
	<linearGradient id="SVGID_33_" gradientUnits="userSpaceOnUse" x1="51.8464" y1="12.2926" x2="52.4352" y2="12.2926">
		<stop  offset="0" style="stop-color:#413E3D"/>
		<stop  offset="1" style="stop-color:#000000"/>
	</linearGradient>
	<path class="st34" d="M51.8,2.7v19.2c0.2,0,0.4,0,0.6,0V2.7C52.2,2.7,52,2.7,51.8,2.7z"/>
	<linearGradient id="SVGID_34_" gradientUnits="userSpaceOnUse" x1="54.7905" y1="12.2275" x2="55.3793" y2="12.2275">
		<stop  offset="0" style="stop-color:#413E3D"/>
		<stop  offset="1" style="stop-color:#000000"/>
	</linearGradient>
	<path class="st35" d="M54.8,2.6v19.3c0.2,0,0.4,0,0.6,0V2.6C55.2,2.6,55,2.6,54.8,2.6z"/>
	<linearGradient id="SVGID_35_" gradientUnits="userSpaceOnUse" x1="57.7749" y1="12.139" x2="58.5774" y2="12.139">
		<stop  offset="0" style="stop-color:#413E3D"/>
		<stop  offset="1" style="stop-color:#000000"/>
	</linearGradient>
	<path class="st36" d="M57.8,2.5L58,21.8c0.2,0,0.4,0,0.6,0L58.4,2.5C58.2,2.5,58,2.5,57.8,2.5z"/>
	<linearGradient id="SVGID_36_" gradientUnits="userSpaceOnUse" x1="60.7566" y1="12.0283" x2="61.7739" y2="12.0283">
		<stop  offset="0" style="stop-color:#413E3D"/>
		<stop  offset="1" style="stop-color:#000000"/>
	</linearGradient>
	<path class="st37" d="M60.8,2.4l0.4,19.4c0.2,0,0.4,0,0.6,0L61.3,2.3C61.1,2.3,61,2.3,60.8,2.4z"/>
	<linearGradient id="SVGID_37_" gradientUnits="userSpaceOnUse" x1="63.7339" y1="11.8937" x2="64.968" y2="11.8937">
		<stop  offset="0" style="stop-color:#413E3D"/>
		<stop  offset="1" style="stop-color:#000000"/>
	</linearGradient>
	<path class="st38" d="M63.7,2.2l0.6,19.4c0.2,0,0.4,0,0.6,0L64.3,2.2C64.1,2.2,63.9,2.2,63.7,2.2z"/>
	<linearGradient id="SVGID_38_" gradientUnits="userSpaceOnUse" x1="66.7064" y1="11.7339" x2="68.1583" y2="11.7339">
		<stop  offset="0" style="stop-color:#413E3D"/>
		<stop  offset="1" style="stop-color:#000000"/>
	</linearGradient>
	<path class="st39" d="M66.7,2l0.9,19.5c0.2,0,0.4,0,0.6,0L67.3,2C67.1,2,66.9,2,66.7,2z"/>
	<linearGradient id="SVGID_39_" gradientUnits="userSpaceOnUse" x1="69.6732" y1="11.5471" x2="71.345" y2="11.5471">
		<stop  offset="0" style="stop-color:#413E3D"/>
		<stop  offset="1" style="stop-color:#000000"/>
	</linearGradient>
	<path class="st40" d="M69.7,1.8l1.1,19.6c0.2,0,0.4,0,0.6,0L70.3,1.7C70.1,1.7,69.9,1.8,69.7,1.8z"/>
	<linearGradient id="SVGID_40_" gradientUnits="userSpaceOnUse" x1="73.2503" y1="16.0104" x2="74.5263" y2="16.0104">
		<stop  offset="0" style="stop-color:#413E3D"/>
		<stop  offset="1" style="stop-color:#000000"/>
	</linearGradient>
	<path class="st41" d="M73.4,11.2c0-0.1-0.1-0.2-0.1-0.4l0.7,10.4c0.2,0,0.4,0,0.6,0l-0.6-9.4C73.6,11.5,73.4,11.3,73.4,11.2z"/>
	<linearGradient id="SVGID_41_" gradientUnits="userSpaceOnUse" x1="76.3922" y1="17.4032" x2="77.4575" y2="17.4032">
		<stop  offset="0" style="stop-color:#413E3D"/>
		<stop  offset="1" style="stop-color:#000000"/>
	</linearGradient>
	<path class="st42" d="M76.4,13.8l0.5,7.2c0.2,0,0.4,0,0.6,0L77,14.3C76.8,14.1,76.6,14,76.4,13.8z"/>
	<linearGradient id="SVGID_42_" gradientUnits="userSpaceOnUse" x1="79.4803" y1="18.3727" x2="80.3857" y2="18.3727">
		<stop  offset="0" style="stop-color:#413E3D"/>
		<stop  offset="1" style="stop-color:#000000"/>
	</linearGradient>
	<path class="st43" d="M79.5,16l0.3,4.8c0.2,0,0.4,0,0.6-0.1l-0.3-4.4C79.9,16.2,79.7,16.1,79.5,16z"/>
	<linearGradient id="SVGID_43_" gradientUnits="userSpaceOnUse" x1="82.5497" y1="19.1758" x2="83.3109" y2="19.1758">
		<stop  offset="0" style="stop-color:#413E3D"/>
		<stop  offset="1" style="stop-color:#000000"/>
	</linearGradient>
	<path class="st44" d="M82.5,17.9l0.2,2.6c0.2,0,0.4,0,0.6-0.1l-0.1-2.2C83,18.1,82.8,18,82.5,17.9z"/>
	<linearGradient id="SVGID_44_" gradientUnits="userSpaceOnUse" x1="15.5545" y1="40.8527" x2="117.4733" y2="40.8527">
		<stop  offset="0" style="stop-color:#E8E8E8"/>
		<stop  offset="1" style="stop-color:#999999"/>
	</linearGradient>
	<rect x="10.5" y="40" class="st45" width="64.1" height="1.7"/>
	<path class="st46" d="M45.1,22c0,0.5-0.4,0.9-0.9,0.9c-0.5,0-0.9-0.4-0.9-0.9c0-0.5,0.4-0.9,0.9-0.9C44.7,21.1,45.1,21.5,45.1,22z"
		/>
	<path class="st46" d="M47.1,22c0,0.5-0.4,0.9-0.9,0.9c-0.5,0-0.9-0.4-0.9-0.9c0-0.5,0.4-0.9,0.9-0.9C46.7,21.1,47.1,21.5,47.1,22z"
		/>
	<path class="st46" d="M49.1,22c0,0.5-0.4,0.9-0.9,0.9c-0.5,0-0.9-0.4-0.9-0.9c0-0.5,0.4-0.9,0.9-0.9C48.7,21.1,49.1,21.5,49.1,22z"
		/>
	<path class="st46" d="M51.2,22c0,0.5-0.4,0.9-0.9,0.9c-0.5,0-0.9-0.4-0.9-0.9c0-0.5,0.4-0.9,0.9-0.9C50.8,21.1,51.2,21.5,51.2,22z"
		/>
	<path class="st46" d="M53.2,22c0,0.5-0.4,0.9-0.9,0.9c-0.5,0-0.9-0.4-0.9-0.9c0-0.5,0.4-0.9,0.9-0.9C52.8,21.1,53.2,21.5,53.2,22z"
		/>
	<path class="st46" d="M55.3,22c0,0.5-0.4,0.9-0.9,0.9c-0.5,0-0.9-0.4-0.9-0.9c0-0.5,0.4-0.9,0.9-0.9C54.8,21.1,55.3,21.5,55.3,22z"
		/>
	<path class="st46" d="M57.3,22c0,0.5-0.4,0.9-0.9,0.9c-0.5,0-0.9-0.4-0.9-0.9c0-0.5,0.4-0.9,0.9-0.9C56.9,21.1,57.3,21.5,57.3,22z"
		/>
	<path class="st46" d="M59.3,22c0,0.5-0.4,0.9-0.9,0.9c-0.5,0-0.9-0.4-0.9-0.9c0-0.5,0.4-0.9,0.9-0.9C58.9,21.1,59.3,21.5,59.3,22z"
		/>
	<path class="st46" d="M61.4,22c0,0.5-0.4,0.9-0.9,0.9c-0.5,0-0.9-0.4-0.9-0.9c0-0.5,0.4-0.9,0.9-0.9C60.9,21.1,61.4,21.5,61.4,22z"
		/>
	<path class="st46" d="M63.4,22c0,0.5-0.4,0.9-0.9,0.9c-0.5,0-0.9-0.4-0.9-0.9c0-0.5,0.4-0.9,0.9-0.9C63,21.1,63.4,21.5,63.4,22z"/>
	<path class="st46" d="M65.4,21.8c0,0.5-0.4,0.9-0.9,0.9c-0.5,0-0.9-0.4-0.9-0.9c0-0.5,0.4-0.9,0.9-0.9C65,20.9,65.4,21.3,65.4,21.8
		z"/>
	<path class="st46" d="M67.5,21.8c0,0.5-0.4,0.9-0.9,0.9c-0.5,0-0.9-0.4-0.9-0.9c0-0.5,0.4-0.9,0.9-0.9C67,20.9,67.5,21.3,67.5,21.8
		z"/>
	<path class="st46" d="M69.5,21.6c0,0.5-0.4,0.9-0.9,0.9c-0.5,0-0.9-0.4-0.9-0.9c0-0.5,0.4-0.9,0.9-0.9
		C69.1,20.7,69.5,21.1,69.5,21.6z"/>
	<path class="st46" d="M71.5,21.6c0,0.5-0.4,0.9-0.9,0.9c-0.5,0-0.9-0.4-0.9-0.9c0-0.5,0.4-0.9,0.9-0.9
		C71.1,20.7,71.5,21.1,71.5,21.6z"/>
	<path class="st46" d="M73.6,21.4c0,0.5-0.4,0.9-0.9,0.9c-0.5,0-0.9-0.4-0.9-0.9c0-0.5,0.4-0.9,0.9-0.9
		C73.1,20.5,73.6,20.9,73.6,21.4z"/>
	<path class="st46" d="M75.6,21.4c0,0.5-0.4,0.9-0.9,0.9c-0.5,0-0.9-0.4-0.9-0.9c0-0.5,0.4-0.9,0.9-0.9
		C75.2,20.5,75.6,20.9,75.6,21.4z"/>
	<path class="st46" d="M77.6,21.2c0,0.5-0.4,0.9-0.9,0.9c-0.5,0-0.9-0.4-0.9-0.9c0-0.5,0.4-0.9,0.9-0.9
		C77.2,20.3,77.6,20.7,77.6,21.2z"/>
	<path class="st46" d="M79.7,21c0,0.5-0.4,0.9-0.9,0.9c-0.5,0-0.9-0.4-0.9-0.9c0-0.5,0.4-0.9,0.9-0.9C79.2,20.1,79.7,20.5,79.7,21z"
		/>
	<path class="st46" d="M81.7,20.8c0,0.5-0.4,0.9-0.9,0.9c-0.5,0-0.9-0.4-0.9-0.9c0-0.5,0.4-0.9,0.9-0.9
		C81.3,19.8,81.7,20.3,81.7,20.8z"/>
	<path class="st46" d="M83.7,20.4c0,0.5-0.4,0.9-0.9,0.9c-0.5,0-0.9-0.4-0.9-0.9c0-0.5,0.4-0.9,0.9-0.9
		C83.3,19.4,83.7,19.9,83.7,20.4z"/>
	<path class="st46" d="M32.9,22c0,0.5-0.4,0.9-0.9,0.9C31.4,23,31,22.5,31,22c0-0.5,0.4-0.9,0.9-0.9C32.4,21.1,32.9,21.5,32.9,22z"
		/>
	<path class="st46" d="M34.9,22c0,0.5-0.4,0.9-0.9,0.9C33.4,23,33,22.5,33,22c0-0.5,0.4-0.9,0.9-0.9C34.5,21.1,34.9,21.5,34.9,22z"
		/>
	<path class="st46" d="M36.9,22c0,0.5-0.4,0.9-0.9,0.9C35.5,23,35,22.5,35,22c0-0.5,0.4-0.9,0.9-0.9C36.5,21.1,36.9,21.5,36.9,22z"
		/>
	<path class="st46" d="M39,22c0,0.5-0.4,0.9-0.9,0.9c-0.5,0-0.9-0.4-0.9-0.9c0-0.5,0.4-0.9,0.9-0.9C38.5,21.1,39,21.5,39,22z"/>
	<path class="st46" d="M41,22c0,0.5-0.4,0.9-0.9,0.9c-0.5,0-0.9-0.4-0.9-0.9c0-0.5,0.4-0.9,0.9-0.9C40.6,21.1,41,21.5,41,22z"/>
	<path class="st46" d="M43,22c0,0.5-0.4,0.9-0.9,0.9c-0.5,0-0.9-0.4-0.9-0.9c0-0.5,0.4-0.9,0.9-0.9C42.6,21.1,43,21.5,43,22z"/>
	<path class="st46" d="M28.9,22c0,0.5,0.4,0.9,0.9,0.9c0.5,0,0.9-0.4,0.9-0.9c0-0.5-0.4-0.9-0.9-0.9C29.4,21.1,28.9,21.5,28.9,22z"
		/>
	<path class="st46" d="M26.9,22c0,0.5,0.4,0.9,0.9,0.9c0.5,0,0.9-0.4,0.9-0.9c0-0.5-0.4-0.9-0.9-0.9C27.3,21.1,26.9,21.5,26.9,22z"
		/>
	<path class="st46" d="M24.9,22c0,0.5,0.4,0.9,0.9,0.9c0.5,0,0.9-0.4,0.9-0.9c0-0.5-0.4-0.9-0.9-0.9C25.3,21.1,24.9,21.5,24.9,22z"
		/>
	<path class="st46" d="M22.8,22c0,0.5,0.4,0.9,0.9,0.9c0.5,0,0.9-0.4,0.9-0.9c0-0.5-0.4-0.9-0.9-0.9C23.3,21.1,22.8,21.5,22.8,22z"
		/>
	<path class="st46" d="M20.8,22c0,0.5,0.4,0.9,0.9,0.9c0.5,0,0.9-0.4,0.9-0.9c0-0.5-0.4-0.9-0.9-0.9C21.2,21.1,20.8,21.5,20.8,22z"
		/>
	<path class="st46" d="M18.8,22c0,0.5,0.4,0.9,0.9,0.9c0.5,0,0.9-0.4,0.9-0.9c0-0.5-0.4-0.9-0.9-0.9C19.2,21.1,18.8,21.5,18.8,22z"
		/>
	<path class="st46" d="M16.7,21.8c0,0.5,0.4,0.9,0.9,0.9c0.5,0,0.9-0.4,0.9-0.9c0-0.5-0.4-0.9-0.9-0.9
		C17.1,20.9,16.7,21.3,16.7,21.8z"/>
	<path class="st46" d="M14.7,21.8c0,0.5,0.4,0.9,0.9,0.9c0.5,0,0.9-0.4,0.9-0.9c0-0.5-0.4-0.9-0.9-0.9
		C15.1,20.9,14.7,21.3,14.7,21.8z"/>
	<path class="st46" d="M12.7,21.6c0,0.5,0.4,0.9,0.9,0.9c0.5,0,0.9-0.4,0.9-0.9c0-0.5-0.4-0.9-0.9-0.9
		C13.1,20.7,12.7,21.1,12.7,21.6z"/>
	<path class="st46" d="M10.7,21.5c0,0.5,0.4,0.9,0.9,0.9c0.5,0,0.9-0.4,0.9-0.9c0-0.5-0.4-0.9-0.9-0.9C11.1,20.5,10.7,21,10.7,21.5z
		"/>
	<path class="st46" d="M8.8,21.4c0,0.5,0.4,0.9,0.9,0.9c0.5,0,0.9-0.4,0.9-0.9c0-0.5-0.4-0.9-0.9-0.9C9.2,20.5,8.8,20.9,8.8,21.4z"
		/>
	<path class="st46" d="M6.7,21.3c0,0.5,0.4,0.9,0.9,0.9c0.5,0,0.9-0.4,0.9-0.9c0-0.5-0.4-0.9-0.9-0.9C7.1,20.4,6.7,20.8,6.7,21.3z"
		/>
	<path class="st46" d="M4.7,21.1c0,0.5,0.4,0.9,0.9,0.9c0.5,0,0.9-0.4,0.9-0.9c0-0.5-0.4-0.9-0.9-0.9C5.1,20.2,4.7,20.6,4.7,21.1z"
		/>
	<path class="st46" d="M2.7,20.9c0,0.5,0.4,0.9,0.9,0.9c0.5,0,0.9-0.4,0.9-0.9c0-0.5-0.4-0.9-0.9-0.9C3.1,19.9,2.7,20.4,2.7,20.9z"
		/>
	<path class="st46" d="M0.7,20.6c0,0.5,0.4,0.9,0.9,0.9c0.5,0,0.9-0.4,0.9-0.9c0-0.5-0.4-0.9-0.9-0.9C1.1,19.6,0.7,20.1,0.7,20.6z"
		/>
</g>
</svg>
