<?xml version="1.0" encoding="utf-8"?>
<!-- Generator: Adobe Illustrator 25.0.1, SVG Export Plug-In . SVG Version: 6.00 Build 0)  -->
<!DOCTYPE svg PUBLIC "-//W3C//DTD SVG 1.1//EN" "http://www.w3.org/Graphics/SVG/1.1/DTD/svg11.dtd" [
	<!ENTITY ns_extend "http://ns.adobe.com/Extensibility/1.0/">
	<!ENTITY ns_ai "http://ns.adobe.com/AdobeIllustrator/10.0/">
	<!ENTITY ns_graphs "http://ns.adobe.com/Graphs/1.0/">
	<!ENTITY ns_vars "http://ns.adobe.com/Variables/1.0/">
	<!ENTITY ns_imrep "http://ns.adobe.com/ImageReplacement/1.0/">
	<!ENTITY ns_sfw "http://ns.adobe.com/SaveForWeb/1.0/">
	<!ENTITY ns_custom "http://ns.adobe.com/GenericCustomNamespace/1.0/">
	<!ENTITY ns_adobe_xpath "http://ns.adobe.com/XPath/1.0/">
]>
<svg version="1.1" id="Layer_1" xmlns:x="&ns_extend;" xmlns:i="&ns_ai;" xmlns:graph="&ns_graphs;"
	 xmlns="http://www.w3.org/2000/svg" xmlns:xlink="http://www.w3.org/1999/xlink" x="0px" y="0px" viewBox="0 0 45 40.504"
	 style="enable-background:new 0 0 45 40.504;" xml:space="preserve">
<style type="text/css">
	.st0{fill:#020203;}
</style>
<metadata>
	<sfw  xmlns="&ns_sfw;">
		<slices></slices>
		<sliceSourceBounds  bottomLeftOrigin="true" height="40.323" width="45" x="10050" y="-1016.498"></sliceSourceBounds>
	</sfw>
</metadata>
<g>
	
		<ellipse transform="matrix(0.6588 -0.7523 0.7523 0.6588 -10.691 25.2592)" class="st0" cx="22.5" cy="24.415" rx="7.637" ry="7.637"/>
	<path class="st0" d="M42.94,7.546h-9.653l-3.658-6.335c-0.368-0.638-1.048-1.03-1.784-1.03h-10.69c-0.736,0-1.416,0.393-1.784,1.03
		l-3.658,6.335H2.06C0.922,7.546,0,8.469,0,9.606v28.838c0,1.138,0.922,2.06,2.06,2.06h40.88c1.138,0,2.06-0.922,2.06-2.06V9.606
		C45,8.469,44.078,7.546,42.94,7.546z M22.5,35.764c-6.268,0-11.349-5.081-11.349-11.349S16.232,13.066,22.5,13.066
		c6.268,0,11.349,5.081,11.349,11.349S28.768,35.764,22.5,35.764z M39.596,14.967c-1.049,0-1.9-0.85-1.9-1.9
		c0-1.049,0.851-1.9,1.9-1.9c1.049,0,1.9,0.851,1.9,1.9C41.495,14.116,40.645,14.967,39.596,14.967z"/>
</g>
</svg>
