<?xml version="1.0" encoding="utf-8"?>
<!-- Generator: Adobe Illustrator 25.0.1, SVG Export Plug-In . SVG Version: 6.00 Build 0)  -->
<!DOCTYPE svg PUBLIC "-//W3C//DTD SVG 1.1//EN" "http://www.w3.org/Graphics/SVG/1.1/DTD/svg11.dtd" [
	<!ENTITY ns_extend "http://ns.adobe.com/Extensibility/1.0/">
	<!ENTITY ns_ai "http://ns.adobe.com/AdobeIllustrator/10.0/">
	<!ENTITY ns_graphs "http://ns.adobe.com/Graphs/1.0/">
	<!ENTITY ns_vars "http://ns.adobe.com/Variables/1.0/">
	<!ENTITY ns_imrep "http://ns.adobe.com/ImageReplacement/1.0/">
	<!ENTITY ns_sfw "http://ns.adobe.com/SaveForWeb/1.0/">
	<!ENTITY ns_custom "http://ns.adobe.com/GenericCustomNamespace/1.0/">
	<!ENTITY ns_adobe_xpath "http://ns.adobe.com/XPath/1.0/">
]>
<svg version="1.1" id="Layer_1" xmlns:x="&ns_extend;" xmlns:i="&ns_ai;" xmlns:graph="&ns_graphs;"
	 xmlns="http://www.w3.org/2000/svg" xmlns:xlink="http://www.w3.org/1999/xlink" x="0px" y="0px" viewBox="0 0 45 34.667"
	 style="enable-background:new 0 0 45 34.667;" xml:space="preserve">
<style type="text/css">
	.st0{stroke:#000000;stroke-width:0.4599;stroke-miterlimit:10;}
</style>
<metadata>
	<sfw  xmlns="&ns_sfw;">
		<slices></slices>
		<sliceSourceBounds  bottomLeftOrigin="true" height="34.135" width="44.46" x="10050.271" y="-1017.067"></sliceSourceBounds>
	</sfw>
</metadata>
<g id="XMLID_1068_">
	<g id="XMLID_424_">
		<path id="XMLID_430_" class="st0" d="M12.282,7.515c0,0,2.442-0.395,4.111,1.158c1.558,1.449,1.529,3.476,1.519,4.037
			c-0.011,0.591-0.112,1.078-0.204,1.412c-0.063,0.325-0.158,0.817-0.266,1.416c-0.04,0.223-0.27,1.406-0.372,2.194
			c-0.16,1.232-0.324,2.503,0.124,3.897c0.159,0.494,0.472,1.244,1.138,2.054c0.128,0.205,0.322,0.518,0.557,0.901
			c0.628,1.023,0.943,1.535,1.003,1.659c0.79,1.621,0.358,3.412,0.14,3.956c-0.164,0.41-0.362,0.725-0.515,0.938
			c-0.163,0.277-0.414,0.656-0.774,1.059c-0.425,0.475-1.256,1.405-2.641,1.797c-1.341,0.38-2.501,0.057-3.007-0.121
			c0,0-2.903-1.224-6.278-6.133s-4.486-9.978-4.486-9.978S1.145,10.247,12.282,7.515z"/>
		<path id="XMLID_429_" class="st0" d="M13.439,0.496c0.247,0.002,0.652,0.036,1.1,0.23C14.71,0.8,15.342,1.083,15.762,1.75
			c0.504,0.802,0.379,1.66,0.342,1.947c-0.385,2.996-1.701,2.918-1.701,2.918s-2.139,0.305-2.806-1.943
			c-0.188-0.635-0.736-2.016,0.04-3.118C12.187,0.774,13.085,0.559,13.439,0.496z"/>
		<path id="XMLID_428_" class="st0" d="M7.733,3.239C7.809,3.12,7.935,2.951,8.134,2.803c0.482-0.359,1.068-0.362,1.397-0.288
			c0.783,0.177,1.425,1.093,1.412,2.236c0.03,0.186,0.057,0.484-0.004,0.84c-0.052,0.307-0.149,0.869-0.625,1.235
			C10.231,6.89,9.932,7.119,9.546,7.122C8.478,7.131,7.826,5.402,7.798,5.326C7.544,4.631,7.589,4.027,7.609,3.844
			C7.635,3.594,7.687,3.388,7.733,3.239z"/>
		<path id="XMLID_427_" class="st0" d="M4.84,5.208C4.931,5.097,5.105,4.914,5.38,4.78c0.337-0.164,0.668-0.176,0.857-0.152
			c0.61,0.078,1.174,0.721,1.334,1.6c0,0,0.076,0.535-0.032,1.09c-0.091,0.467-0.55,1.156-1.142,1.214
			C5.634,8.607,5.003,7.546,4.8,6.821C4.606,6.127,4.744,5.519,4.84,5.208z"/>
		<path id="XMLID_426_" class="st0" d="M2.488,7.343c0,0,2.243-1.385,2.222,2.078c-0.01,0.562-0.249,1.01-0.591,1.114
			c-0.321,0.097-0.627-0.141-1.009-0.437C2.865,9.906,2.313,9.464,2.157,8.722c-0.029-0.14-0.08-0.396-0.007-0.715
			C2.226,7.68,2.391,7.456,2.488,7.343z"/>
		<path id="XMLID_425_" class="st0" d="M0.758,10.259c0.089-0.085,0.287-0.25,0.586-0.318c0,0,0.439-0.1,0.845,0.107
			c0.539,0.276,0.818,1.172,0.569,2.179c-0.149,0.449-0.47,0.767-0.807,0.777c-0.308,0.009-0.55-0.241-0.734-0.431
			c-0.231-0.239-0.349-0.489-0.408-0.644c-0.088-0.108-0.229-0.312-0.285-0.601C0.418,10.781,0.693,10.354,0.758,10.259z"/>
	</g>
	<g id="XMLID_490_">
		<path id="XMLID_496_" class="st0" d="M32.718,7.515c0,0-2.442-0.395-4.111,1.158c-1.558,1.449-1.529,3.476-1.519,4.037
			c0.011,0.591,0.112,1.078,0.204,1.412c0.063,0.325,0.158,0.817,0.266,1.416c0.04,0.223,0.27,1.406,0.372,2.194
			c0.16,1.232,0.324,2.503-0.124,3.897c-0.159,0.494-0.472,1.244-1.138,2.054c-0.128,0.205-0.322,0.518-0.557,0.901
			c-0.628,1.023-0.943,1.535-1.003,1.659c-0.79,1.621-0.358,3.412-0.14,3.956c0.164,0.41,0.362,0.725,0.515,0.938
			c0.163,0.277,0.414,0.656,0.774,1.059c0.425,0.475,1.256,1.405,2.641,1.797c1.341,0.38,2.501,0.057,3.007-0.121
			c0,0,2.903-1.224,6.278-6.133c3.375-4.91,4.486-9.978,4.486-9.978S43.855,10.247,32.718,7.515z"/>
		<path id="XMLID_495_" class="st0" d="M31.561,0.496c-0.247,0.002-0.652,0.036-1.1,0.23C30.29,0.8,29.658,1.083,29.238,1.75
			c-0.504,0.802-0.379,1.66-0.342,1.947c0.385,2.996,1.701,2.918,1.701,2.918s2.139,0.305,2.806-1.943
			c0.188-0.635,0.736-2.016-0.04-3.118C32.813,0.774,31.915,0.559,31.561,0.496z"/>
		<path id="XMLID_494_" class="st0" d="M37.267,3.239c-0.075-0.119-0.202-0.287-0.401-0.436c-0.482-0.359-1.068-0.362-1.397-0.288
			c-0.783,0.177-1.425,1.093-1.412,2.236c-0.03,0.186-0.057,0.484,0.004,0.84c0.052,0.307,0.149,0.869,0.625,1.235
			c0.084,0.064,0.383,0.294,0.768,0.297c1.068,0.009,1.721-1.721,1.748-1.796c0.253-0.695,0.209-1.299,0.189-1.482
			C37.365,3.594,37.313,3.388,37.267,3.239z"/>
		<path id="XMLID_493_" class="st0" d="M40.16,5.208c-0.091-0.111-0.265-0.294-0.54-0.428c-0.337-0.164-0.668-0.176-0.857-0.152
			c-0.61,0.078-1.174,0.721-1.334,1.6c0,0-0.076,0.535,0.032,1.09c0.091,0.467,0.55,1.156,1.142,1.214
			c0.762,0.075,1.394-0.987,1.596-1.712C40.394,6.127,40.256,5.519,40.16,5.208z"/>
		<path id="XMLID_492_" class="st0" d="M42.512,7.343c0,0-2.243-1.385-2.222,2.078c0.01,0.562,0.249,1.01,0.591,1.114
			c0.321,0.097,0.627-0.141,1.009-0.437c0.246-0.191,0.798-0.632,0.953-1.374c0.029-0.14,0.08-0.396,0.007-0.715
			C42.774,7.68,42.609,7.456,42.512,7.343z"/>
		<path id="XMLID_491_" class="st0" d="M44.242,10.259c-0.089-0.085-0.287-0.25-0.586-0.318c0,0-0.439-0.1-0.845,0.107
			c-0.539,0.276-0.818,1.172-0.569,2.179c0.149,0.449,0.47,0.767,0.807,0.777c0.308,0.009,0.55-0.241,0.734-0.431
			c0.231-0.239,0.349-0.489,0.408-0.644c0.088-0.108,0.229-0.312,0.285-0.601C44.582,10.781,44.307,10.354,44.242,10.259z"/>
	</g>
</g>
</svg>
